Boon-Book.sfdir

StartChar: numbersign
Encoding: 35 35 151
Width: 960
VWidth: 0
Flags: W
HStem: 180 90<80 310 410 550 650 880> 420 90<80 310 410 550 650 880> 840 20G<310 410 550 650>
VStem: 310 100<-240 180 270 420 510 860> 550 100<-240 180 270 420 510 860>
LayerCount: 2
Fore
SplineSet
310 860 m 1
 410 860 l 1
 410 510 l 1
 550 510 l 1
 550 860 l 1
 650 860 l 1
 650 510 l 1
 880 510 l 1
 880 420 l 1
 650 420 l 1
 650 270 l 1
 880 270 l 1
 880 180 l 1
 650 180 l 1
 650 -240 l 1
 550 -240 l 1
 550 180 l 1
 410 180 l 1
 410 -240 l 1
 310 -240 l 1
 310 180 l 1
 80 180 l 1
 80 270 l 1
 310 270 l 1
 310 420 l 1
 80 420 l 1
 80 510 l 1
 310 510 l 1
 310 860 l 1
410 420 m 1
 410 270 l 1
 550 270 l 1
 550 420 l 1
 410 420 l 1
EndSplineSet
Validated: 1
EndChar

StartChar: dollar
Encoding: 36 36 165
Width: 699
Flags: W
HStem: -10 94<252.919 304 396 449.067> 768 94<270.063 316 408 440.402>
VStem: 77 112<144.969 248> 107 116<552.252 721.341> 304 92<-122 -6.51562> 316 92<858.242 992> 507 115<137.591 296.022 601 691.166>
LayerCount: 2
Fore
SplineSet
507 220 m 0xea
 507 255.333 494.5 285.333 469.5 310 c 0
 444.5 334.667 403.333 357 346 377 c 1
 267.333 401 207.833 432.833 167.5 472.5 c 0
 127.167 512.167 107 565.334 107 632 c 0
 107 696.667 125.667 749.167 163 789.5 c 0
 200.333 829.833 251.333 854 316 862 c 1
 316 992 l 1
 408 992 l 1
 408 862 l 1
 473.333 853.333 524.167 826.5 560.5 781.5 c 0
 596.833 736.5 615 676.333 615 601 c 1
 500 601 l 1
 500 650.333 487.667 690.5 463 721.5 c 0
 438.333 752.5 404.333 768 361 768 c 0
 315 768 280.5 756 257.5 732 c 0
 234.5 708 223 675 223 633 c 0xd6
 223 595 234.833 564.333 258.5 541 c 0
 282.167 517.666 325 495.666 387 475 c 1
 467 449 526.167 416.833 564.5 378.5 c 0
 602.833 340.167 622 287.667 622 221 c 0
 622 153.667 602 100.333 562 61 c 0
 522 21.6667 466.667 -1.66667 396 -9 c 1
 396 -122 l 1
 304 -122 l 1
 304 -10 l 1
 236.667 -2.66667 181.5 22 138.5 64 c 0
 95.5 106 75 167.333 77 248 c 1
 78 251 l 1
 189 251 l 1
 189 191 204.333 148.167 235 122.5 c 0
 265.667 96.8333 302.667 84 346 84 c 0
 396.667 84 436.167 96 464.5 120 c 0
 492.833 144 507 177.333 507 220 c 0xea
EndSplineSet
EndChar

StartChar: quotesingle
Encoding: 39 39 168
Width: 240
VWidth: 0
Flags: W
HStem: 680 280<70 150>
VStem: 60 100<699.2 960>
LayerCount: 2
Fore
SplineSet
60 960 m 1
 160 960 l 1
 160 800 l 1
 150 680 l 1
 70 680 l 1
 60 800 l 1
 60 960 l 1
EndSplineSet
EndChar

StartChar: parenleft
Encoding: 40 40 169
Width: 490
VWidth: 0
Flags: W
HStem: -340 60<382.878 450> 990 60<382.878 450>
VStem: 60 100<31.4679 678.532>
LayerCount: 2
Fore
SplineSet
450 -340 m 5
 147 -300 60 -33 60 270 c 6
 60 440 l 6
 60 743 147 1010 450 1050 c 5
 450 990 l 5
 226 950 160 684 160 440 c 6
 160 270 l 6
 160 26 226 -240 450 -280 c 5
 450 -340 l 5
EndSplineSet
EndChar

StartChar: parenright
Encoding: 41 41 170
Width: 490
VWidth: 0
Flags: W
HStem: -340 60<40 107.122> 990 60<40 107.122>
VStem: 330 100<31.4679 678.532>
LayerCount: 2
Fore
SplineSet
40 -340 m 1
 40 -280 l 1
 264 -240 330 26 330 270 c 2
 330 440 l 2
 330 684 264 950 40 990 c 1
 40 1050 l 1
 343 1010 430 743 430 440 c 2
 430 270 l 2
 430 -33 343 -300 40 -340 c 1
EndSplineSet
EndChar

StartChar: asterisk
Encoding: 42 42 152
Width: 460
VWidth: 0
Flags: W
HStem: 480 380
VStem: 143 74<712 860>
LayerCount: 2
Fore
SplineSet
143 860 m 1
 217 860 l 1
 217 712 l 1
 357 758 l 1
 380 688 l 1
 240 642 l 1
 326 523 l 1
 267 480 l 1
 180 599 l 1
 93 480 l 1
 34 523 l 1
 120 642 l 1
 -20 688 l 1
 3 758 l 1
 143 712 l 1
 143 860 l 1
EndSplineSet
EndChar

StartChar: plus
Encoding: 43 43 171
Width: 640
VWidth: 0
Flags: W
HStem: 280 90<60 260 360 560>
VStem: 260 100<75 280 370 575>
LayerCount: 2
Fore
SplineSet
260 575 m 5
 360 575 l 5
 360 370 l 1
 560 370 l 1
 560 280 l 1
 360 280 l 1
 360 75 l 1
 260 75 l 1
 260 280 l 1
 60 280 l 1
 60 370 l 1
 260 370 l 1
 260 575 l 5
EndSplineSet
EndChar

StartChar: comma
Encoding: 44 44 172
Width: 300
VWidth: 0
Flags: W
HStem: -120 280
VStem: 130 90<-36.4021 7>
LayerCount: 2
Fore
SplineSet
140 160 m 0
 190 160 220 115 220 70 c 0
 220 -44 152 -93 110 -120 c 1
 40 -120 l 1
 81 -84 130 -47 130 7 c 5
 94 7 60 37 60 80 c 0
 60 125 95 160 140 160 c 0
EndSplineSet
EndChar

StartChar: hyphen
Encoding: 45 45 157
Width: 640
VWidth: 0
Flags: W
HStem: 280 90<60 560>
LayerCount: 2
Fore
SplineSet
60 370 m 1
 560 370 l 1
 560 280 l 1
 60 280 l 1
 60 370 l 1
EndSplineSet
EndChar

StartChar: period
Encoding: 46 46 104
Width: 300
VWidth: 0
Flags: W
HStem: -6 140<95.8748 204.125>
VStem: 80 140<9.87476 118.125>
LayerCount: 2
Fore
SplineSet
220 64 m 0
 220 25 189 -6 150 -6 c 0
 111 -6 80 25 80 64 c 0
 80 103 111 134 150 134 c 0
 189 134 220 103 220 64 c 0
EndSplineSet
Validated: 1
EndChar

StartChar: slash
Encoding: 47 47 159
Width: 425
VWidth: 0
Flags: W
HStem: -340 21G<-60 51.4615> 940 20G<353.538 465>
LayerCount: 2
Fore
SplineSet
360 960 m 5
 465 960 l 5
 45 -340 l 5
 -60 -340 l 5
 360 960 l 5
EndSplineSet
EndChar

StartChar: one
Encoding: 49 49 174
Width: 640
Flags: W
HStem: 0 21G<375 490> 580 100<100 215.653> 840 20G<360 490>
VStem: 360 130<792.219 860> 375 115<0 683>
LayerCount: 2
Fore
SplineSet
360 860 m 5xf0
 403 860 490 860 490 860 c 5xf0
 490 0 l 5
 375 0 l 5
 375 683 l 5xe8
 322 602 208 580 100 580 c 5
 100 680 l 5
 216 680 360 766 360 860 c 5xf0
EndSplineSet
EndChar

StartChar: two
Encoding: 50 50 175
Width: 640
Flags: W
HStem: 0 100<210 580> 778 100<226.834 394.689>
VStem: 50 110<598 700.669> 460 110<521.071 710.682>
LayerCount: 2
Fore
SplineSet
310 878 m 0
 467.373 878 570 762.64 570 608 c 0
 570 486.395 493.649 407.895 453 362 c 1
 210 100 l 1
 580 100 l 1
 580 0 l 1
 60 0 l 1
 60 100 l 1
 315 374 l 1
 359.405 423.405 460 514.21 460 608 c 0
 460 707.411 406.622 778 310 778 c 0
 213.378 778 160 697.411 160 598 c 1
 50 598 l 1
 50 752.64 152.627 878 310 878 c 0
EndSplineSet
EndChar

StartChar: three
Encoding: 51 51 176
Width: 640
Flags: W
HStem: -18 100<217.204 402.796> 380 100<190 391.738> 628 21G<50 160> 778 100<222.914 397.086>
VStem: 40 110<149.524 232> 50 110<628 716.333> 460 110<540.562 717.358> 470 110<148.533 306.42>
LayerCount: 2
Fore
SplineSet
310 878 m 0xf6
 458 878 570 772 570 628 c 0xf6
 570 526 516 464 455 430 c 1
 516 395 580 335 580 232 c 0
 580 88 476 -18 310 -18 c 0
 144 -18 40 88 40 232 c 1
 150 232 l 1
 150 141 222 82 310 82 c 0
 398 82 470 141 470 232 c 0xf9
 470 311 386 380 310 380 c 2
 190 380 l 1
 190 480 l 1
 310 480 l 2
 388 480 460 530 460 628 c 0
 460 719 398 778 310 778 c 0
 222 778 160 719 160 628 c 1
 50 628 l 1
 50 772 162 878 310 878 c 0xf6
EndSplineSet
EndChar

StartChar: four
Encoding: 52 52 177
Width: 640
Flags: W
HStem: 0 21G<390 500> 200 90<155 390 500 610> 840 20G<367.367 500>
VStem: 390 110<0 200 290 700>
LayerCount: 2
Fore
SplineSet
500 290 m 1
 610 290 l 1
 610 200 l 1
 500 200 l 1
 500 0 l 1
 390 0 l 1
 390 200 l 1
 30 200 l 1
 30 260 l 1
 379 860 l 1
 500 860 l 1
 500 290 l 1
155 290 m 1
 390 290 l 1
 390 700 l 1
 155 290 l 1
EndSplineSet
EndChar

StartChar: five
Encoding: 53 53 178
Width: 640
Flags: W
HStem: -18 100<211.865 393.181> 442 100<222.186 393.181> 760 100<195 530>
VStem: 40 110<148.277 220> 460 110<156.831 367.169>
LayerCount: 2
Fore
SplineSet
105 860 m 1
 530 860 l 1
 530 760 l 1
 195 760 l 1
 163 463 l 1
 182 497 234 542 310 542 c 0
 467 542 570 417 570 262 c 0
 570 107 467 -18 310 -18 c 0
 133 -18 50 86 40 220 c 1
 150 220 l 1
 167 125 213 82 310 82 c 0
 407 82 460 163 460 262 c 0
 460 361 407 442 310 442 c 0
 226 442 189 393 170 350 c 1
 55 380 l 1
 105 860 l 1
EndSplineSet
EndChar

StartChar: seven
Encoding: 55 55 162
Width: 660
Flags: W
HStem: 0 21G<220 340> 760 100<60 450>
VStem: 220 120<0 358.158>
LayerCount: 2
Fore
SplineSet
220 0 m 1
 220 180 l 2
 220 480 450 760 450 760 c 1
 60 760 l 1
 60 860 l 1
 580 860 l 1
 580 760 l 1
 580 760 340 486 340 180 c 2
 340 0 l 1
 220 0 l 1
EndSplineSet
EndChar

StartChar: colon
Encoding: 58 58 160
Width: 320
VWidth: 0
Flags: W
HStem: 0 160<90.4964 209.504> 380 160<90.4964 209.504>
VStem: 70 160<20.4964 139.504 400.496 519.504>
LayerCount: 2
Fore
SplineSet
230 460 m 0
 230 415 195 380 150 380 c 0
 105 380 70 415 70 460 c 0
 70 505 105 540 150 540 c 0
 195 540 230 505 230 460 c 0
230 80 m 0
 230 35 195 0 150 0 c 0
 105 0 70 35 70 80 c 0
 70 125 105 160 150 160 c 0
 195 160 230 125 230 80 c 0
EndSplineSet
EndChar

StartChar: semicolon
Encoding: 59 59 182
Width: 320
VWidth: 0
Flags: W
HStem: -120 280 380 160<90.4964 209.504>
VStem: 70 160<400.496 519.504> 140 90<-36.4021 7>
LayerCount: 2
Fore
SplineSet
150 540 m 0xe0
 195 540 230 505 230 460 c 0
 230 415 195 380 150 380 c 0
 105 380 70 415 70 460 c 0
 70 505 105 540 150 540 c 0xe0
EndSplineSet
Refer: 172 44 N 1 0 0 1 10 0 2
EndChar

StartChar: less
Encoding: 60 60 183
Width: 560
VWidth: 0
Flags: W
LayerCount: 2
Fore
SplineSet
40 285 m 5
 40 365 l 5
 500 590 l 5
 500 490 l 5
 150 325 l 5
 500 160 l 5
 500 60 l 5
 40 285 l 5
EndSplineSet
EndChar

StartChar: greater
Encoding: 62 62 185
Width: 560
VWidth: 0
Flags: W
LayerCount: 2
Fore
SplineSet
500 285 m 1
 40 60 l 1
 40 160 l 1
 390 325 l 1
 40 490 l 1
 40 590 l 1
 500 365 l 1
 500 285 l 1
EndSplineSet
EndChar

StartChar: question
Encoding: 63 63 186
Width: 630
VWidth: 0
Flags: W
HStem: 0 160<270.496 389.504> 788 90<219.538 393.705>
VStem: 40 110<600 712.888> 250 160<20.4964 139.504> 280 90<240 342.626> 460 110<546.333 717.91>
LayerCount: 2
Fore
SplineSet
310 878 m 0xec
 488 878 570 745 570 630 c 0
 570 442 370 430 370 240 c 1
 280 240 l 1
 280 499 460 478 460 630 c 0
 460 696 414 788 310 788 c 0
 206 788 150 714 150 600 c 1
 40 600 l 1
 40 750 132 878 310 878 c 0xec
330 160 m 0
 375 160 410 125 410 80 c 0
 410 35 375 0 330 0 c 0
 285 0 250 35 250 80 c 0xf4
 250 125 285 160 330 160 c 0
EndSplineSet
EndChar

StartChar: at
Encoding: 64 64 187
Width: 1240
VWidth: 0
Flags: W
HStem: -340 90<459.698 860> -18 90<500.242 674.953 886.875 1003.44> 548 90<500.242 675.305> 600 20G<760 860> 870 90<459.692 760.308>
VStem: 60 100<59.6983 560.302> 320 100<156.023 463.977> 760 100<160.448 459.552 530 620> 1060 100<137.25 560.302>
LayerCount: 2
Fore
SplineSet
610 960 m 4xdf80
 913 960 1160 713 1160 410 c 6
 1160 240 l 6
 1160 92 1086 -18 940 -18 c 4
 838 -18 789 47 770 110 c 5
 755 73 713 -18 585 -18 c 4
 422 -18 320 99 320 262 c 6
 320 358 l 6
 320 521 422 638 585 638 c 4xef80
 688 638 743 577 760 530 c 5
 760 620 l 5
 860 620 l 5
 860 180 l 6
 860 120 891 72 940 72 c 4
 1021 72 1060 168 1060 240 c 6
 1060 410 l 6
 1060 654 874 870 610 870 c 4
 346 870 160 654 160 410 c 6
 160 210 l 6
 160 -34 346 -250 610 -250 c 6
 860 -250 l 5
 860 -340 l 5
 610 -340 l 6
 307 -340 60 -93 60 210 c 6
 60 410 l 6
 60 713 307 960 610 960 c 4xdf80
590 548 m 4
 493 548 420 471 420 358 c 6
 420 262 l 6
 420 149 493 72 590 72 c 4
 687 72 760 159 760 262 c 6
 760 358 l 6
 760 461 687 548 590 548 c 4
EndSplineSet
EndChar

StartChar: A
Encoding: 65 65 128
Width: 840
VWidth: 0
Flags: W
HStem: 0 21G<30 161.667 678.333 810> 240 90<265 575> 840 20G<352.326 487.674>
LayerCount: 2
Fore
SplineSet
360 860 m 1
 480 860 l 1
 810 0 l 1
 685 0 l 1
 605 240 l 1
 235 240 l 1
 155 0 l 1
 30 0 l 1
 360 860 l 1
420 740 m 1
 265 330 l 1
 575 330 l 1
 420 740 l 1
EndSplineSet
EndChar

StartChar: B
Encoding: 66 66 103
Width: 750
VWidth: 0
Flags: W
HStem: 0 100<190 503.945> 400 90<190 468.642> 770 90<190 465.306>
VStem: 80 110<100 400 490 770> 530 110<549.73 711.459> 570 110<158.428 331.058>
LayerCount: 2
Fore
SplineSet
80 0 m 1xf4
 80 860 l 1
 340 860 l 2
 561 860 640 757 640 620 c 0xf8
 640 564 611 492 540 450 c 1
 654 411 680 320 680 240 c 0
 680 65 567 0 430 0 c 2
 80 0 l 1xf4
190 400 m 1
 190 100 l 1
 400 100 l 2
 479 100 570 134 570 240 c 0xf4
 570 346 493 400 390 400 c 2
 190 400 l 1
190 490 m 1
 380 490 l 2
 467 490 530 548 530 630 c 0xf8
 530 712 475 770 350 770 c 2
 190 770 l 1
 190 490 l 1
EndSplineSet
Validated: 1
EndChar

StartChar: C
Encoding: 67 67 134
Width: 800
VWidth: 0
Flags: W
HStem: -12 100<325.613 535.086> 772 100<320.475 514.642>
VStem: 60 115<271.113 592.548> 650 120<212.119 300>
LayerCount: 2
Fore
SplineSet
420 872 m 0
 571 872 687 795 745 660 c 1
 640 600 l 1
 601 695 520 772 420 772 c 0
 260 772 175 619 175 430 c 0
 175 241 270 88 420 88 c 0
 551 88 629 156 650 300 c 1
 770 300 l 1
 746 98 624 -12 420 -12 c 0
 184 -12 60 186 60 430 c 0
 60 674 194 872 420 872 c 0
EndSplineSet
Validated: 1
EndChar

StartChar: D
Encoding: 68 68 116
Width: 780
VWidth: 0
Flags: W
HStem: 0 100<190 461.694> 770 90<190 435.426>
VStem: 80 110<100 770> 590 120<251.842 599.953>
LayerCount: 2
Fore
SplineSet
80 860 m 1
 300 860 l 2
 592 860 710 674 710 430 c 0
 710 196 626 0 360 0 c 2
 80 0 l 1
 80 860 l 1
190 770 m 1
 190 100 l 1
 350 100 l 2
 530 100 590 241 590 430 c 0
 590 619 520 770 310 770 c 2
 190 770 l 1
EndSplineSet
Validated: 1
EndChar

StartChar: E
Encoding: 69 69 116
Width: 720
VWidth: 0
Flags: W
HStem: 0 100<190 640> 400 90<190 550> 760 100<190 610>
VStem: 80 110<100 400 490 760>
LayerCount: 2
Fore
SplineSet
80 860 m 1
 610 860 l 1
 610 760 l 1
 190 760 l 1
 190 490 l 1
 550 490 l 1
 550 400 l 1
 190 400 l 1
 190 100 l 1
 640 100 l 1
 640 0 l 1
 80 0 l 1
 80 860 l 1
EndSplineSet
EndChar

StartChar: F
Encoding: 70 70 118
Width: 690
VWidth: 0
Flags: W
HStem: 0 21G<80 190> 400 90<190 550> 760 100<190 610>
VStem: 80 110<0 400 490 760>
LayerCount: 2
Fore
SplineSet
80 860 m 1
 610 860 l 1
 610 760 l 1
 190 760 l 1
 190 490 l 1
 550 490 l 1
 550 400 l 1
 190 400 l 1
 190 0 l 1
 80 0 l 1
 80 860 l 1
EndSplineSet
EndChar

StartChar: G
Encoding: 71 71 136
Width: 820
VWidth: 0
Flags: W
HStem: -18 100<295.961 511.277> 0 21G<640 740> 350 100<450 630> 778 100<295.961 501.144>
VStem: 50 115<234.803 625.197> 610 130<590 665.359> 630 110<213.521 350> 640 100<0 124>
LayerCount: 2
Back
SplineSet
400 878 m 4xf4
 589 878 712 761 740 590 c 5
 610 590 l 5xf8
 589 699 514 778 400 778 c 4
 256 778 165 652 165 500 c 6
 165 360 l 6
 165 208 256 82 400 82 c 4
 513 82 594 126 630 189 c 5
 630 344 l 5
 450 344 l 5
 450 444 l 5
 740 444 l 5
 740 129 l 5
 648 31 577 -18 400 -18 c 4
 180 -18 50 141 50 360 c 6
 50 500 l 6
 50 719 180 878 400 878 c 4xf4
EndSplineSet
Fore
SplineSet
400 878 m 0xb9
 589 878 712 761 740 590 c 1
 610 590 l 1xbc
 589 699 514 778 400 778 c 0
 256 778 165 652 165 500 c 2
 165 360 l 2
 165 208 256 82 400 82 c 0
 573 82 630 220 630 350 c 1xba
 450 350 l 1
 450 450 l 1
 740 450 l 1
 740 0 l 1
 640 0 l 1x79
 640 124 l 1
 611 50 544 -18 400 -18 c 0
 180 -18 50 141 50 360 c 2
 50 500 l 2
 50 719 180 878 400 878 c 0xb9
EndSplineSet
EndChar

StartChar: H
Encoding: 72 72 111
Width: 780
VWidth: 0
Flags: W
HStem: 0 21G<80 190 590 700> 400 90<190 590> 840 20G<80 190 590 700>
VStem: 80 110<0 400 490 860> 590 110<0 400 490 860>
LayerCount: 2
Fore
SplineSet
80 860 m 1
 190 860 l 1
 190 490 l 1
 590 490 l 1
 590 860 l 1
 700 860 l 1
 700 0 l 1
 590 0 l 1
 590 400 l 1
 190 400 l 1
 190 0 l 1
 80 0 l 1
 80 860 l 1
EndSplineSet
Validated: 1
EndChar

StartChar: I
Encoding: 73 73 108
Width: 270
VWidth: 0
Flags: W
HStem: 0 21G<70 180> 840 20G<70 180>
VStem: 70 110<0 860>
LayerCount: 2
Fore
SplineSet
70 860 m 1
 180 860 l 1
 180 0 l 1
 70 0 l 1
 70 860 l 1
EndSplineSet
EndChar

StartChar: J
Encoding: 74 74 119
Width: 630
VWidth: 0
Flags: W
HStem: -18 100<221.15 378.85>
VStem: 50 110<150.985 252> 440 110<150.985 850>
LayerCount: 2
Back
SplineSet
-60 -230 m 5
 95 -230 140 -151 140 60 c 6
 140 860 l 5
 250 860 l 5
 250 60 l 6
 250 -226 157 -340 -60 -340 c 5
 -60 -230 l 5
EndSplineSet
Fore
SplineSet
440 850 m 1
 550 850 l 1
 550 252 l 2
 550 98 449 -18 300 -18 c 0
 151 -18 50 98 50 252 c 1
 160 252 l 1
 160 153 214 82 300 82 c 0
 386 82 440 153 440 252 c 2
 440 850 l 1
EndSplineSet
EndChar

StartChar: K
Encoding: 75 75 113
Width: 730
VWidth: 0
Flags: W
HStem: 0 21G<60 170 594.5 750> 400 100<170 260> 840 20G<60 170 515 660>
VStem: 60 110<0 400 500 860>
LayerCount: 2
Fore
SplineSet
60 860 m 5
 170 860 l 5
 170 500 l 5
 260 500 l 5
 530 860 l 5
 660 860 l 5
 370 480 l 5
 750 0 l 5
 610 0 l 5
 300 400 l 5
 170 400 l 5
 170 0 l 5
 60 0 l 5
 60 860 l 5
EndSplineSet
EndChar

StartChar: L
Encoding: 76 76 117
Width: 620
VWidth: 0
Flags: W
HStem: 0 100<170 600> 840 20G<60 170>
VStem: 60 110<100 860>
LayerCount: 2
Fore
SplineSet
60 860 m 1
 170 860 l 1
 170 100 l 1
 600 100 l 1
 600 0 l 1
 60 0 l 1
 60 860 l 1
EndSplineSet
EndChar

StartChar: M
Encoding: 77 77 122
Width: 930
VWidth: 0
Flags: W
HStem: 0 21G<60 170 407.899 512.101 750 850> 840 20G<60 217.042 702.958 850>
VStem: 60 110<0 690> 750 100<0 690>
LayerCount: 2
Fore
SplineSet
415 0 m 1
 170 690 l 1
 170 0 l 1
 60 0 l 1
 60 860 l 1
 210 860 l 1
 460 150 l 1
 710 860 l 1
 850 860 l 1
 850 0 l 1
 750 0 l 1
 750 690 l 1
 505 0 l 1
 415 0 l 1
EndSplineSet
EndChar

StartChar: N
Encoding: 78 78 121
Width: 780
VWidth: 0
Flags: W
HStem: 0 21G<60 170 568.116 700> 840 20G<60 191.884 590 700>
VStem: 60 110<0 690> 590 110<170 860>
LayerCount: 2
Fore
SplineSet
60 860 m 1
 180 860 l 1
 590 170 l 1
 590 860 l 1
 700 860 l 1
 700 0 l 1
 580 0 l 1
 170 690 l 1
 170 0 l 1
 60 0 l 1
 60 860 l 1
EndSplineSet
EndChar

StartChar: O
Encoding: 79 79 107
Width: 840
VWidth: 0
Flags: W
HStem: -36 100<314.698 525.302> 760 100<314.698 525.302>
VStem: 60 115<216.803 607.197> 665 115<216.803 607.197>
LayerCount: 2
Fore
SplineSet
420 860 m 0
 640 860 780 701 780 482 c 2
 780 342 l 2
 780 123 640 -36 420 -36 c 0
 200 -36 60 123 60 342 c 2
 60 482 l 2
 60 701 200 860 420 860 c 0
420 760 m 0
 276 760 175 634 175 482 c 2
 175 342 l 2
 175 190 276 64 420 64 c 0
 564 64 665 190 665 342 c 2
 665 482 l 2
 665 634 564 760 420 760 c 0
EndSplineSet
EndChar

StartChar: P
Encoding: 80 80 111
Width: 700
VWidth: 0
Flags: W
HStem: 0 21G<60 170> 360 90<170 479.627> 770 90<170 474.701>
VStem: 60 110<0 360 450 770> 550 110<523.869 699.137>
LayerCount: 2
Fore
SplineSet
60 860 m 5
 360 860 l 6
 581 860 660 737 660 600 c 4
 660 471 558 360 410 360 c 6
 170 360 l 5
 170 0 l 5
 60 0 l 5
 60 860 l 5
170 770 m 5
 170 450 l 5
 400 450 l 6
 487 450 550 528 550 610 c 4
 550 692 495 770 370 770 c 6
 170 770 l 5
EndSplineSet
EndChar

StartChar: Q
Encoding: 81 81 129
Width: 840
VWidth: 0
Flags: W
HStem: -18 100<304.698 513.243> 778 100<304.698 515.302>
VStem: 50 115<234.803 625.197> 655 115<232.438 625.197>
LayerCount: 2
Fore
SplineSet
410 878 m 0
 630 878 770 719 770 500 c 2
 770 360 l 2
 770 256 738 165 681 99 c 1
 820 -40 l 1
 740 -120 l 1
 593 27 l 1
 541 -2 480 -18 410 -18 c 0
 190 -18 50 141 50 360 c 2
 50 500 l 2
 50 719 190 878 410 878 c 0
410 778 m 0
 266 778 165 652 165 500 c 2
 165 360 l 2
 165 208 266 82 410 82 c 0
 448 82 483 91 514 106 c 1
 390 230 l 1
 470 310 l 1
 600 180 l 1
 635 229 655 292 655 360 c 2
 655 500 l 2
 655 652 554 778 410 778 c 0
EndSplineSet
EndChar

StartChar: R
Encoding: 82 82 124
Width: 740
VWidth: 0
Flags: W
HStem: 0 21G<80 190 556 700> 400 90<190 465.366> 770 90<190 465.306>
VStem: 80 110<0 400 490 770> 530 110<58.169 326.531 549.73 711.459>
LayerCount: 2
Fore
SplineSet
80 860 m 1
 340 860 l 2
 561 860 640 757 640 620 c 0
 640 564 611 492 540 450 c 1
 617 413 640 300 640 220 c 0
 640 96 669 42 700 0 c 1
 575 0 l 1
 537 29 525 94 525 220 c 0
 525 325 483 400 380 400 c 2
 190 400 l 1
 190 0 l 1
 80 0 l 1
 80 860 l 1
190 770 m 1
 190 490 l 1
 380 490 l 2
 467 490 530 548 530 630 c 0
 530 712 475 770 350 770 c 2
 190 770 l 1
EndSplineSet
EndChar

StartChar: S
Encoding: 83 83 132
Width: 780
VWidth: 0
Flags: W
HStem: -18 100<260.262 507.82> 788 90<269.719 477.953>
VStem: 50 115<168.792 270> 70 115<563.854 707.734> 565 115<600 700.479> 595 115<160.342 327.73>
LayerCount: 2
Fore
SplineSet
370 878 m 0xd4
 579 878 680 750 680 600 c 1
 565 600 l 1
 565 714 497 788 370 788 c 0
 243 788 185 696 185 630 c 0xd8
 185 549 256 514 390 500 c 0
 549 483 710 438 710 250 c 0
 710 63 574 -18 380 -18 c 0
 186 -18 50 87 50 270 c 1
 165 270 l 1xe4
 165 149 249 82 380 82 c 0
 511 82 595 138 595 250 c 0
 595 357 510 376 350 400 c 0
 221 419 70 461 70 630 c 0
 70 745 161 878 370 878 c 0xd4
EndSplineSet
EndChar

StartChar: T
Encoding: 84 84 120
Width: 630
VWidth: 0
Flags: W
HStem: 0 21G<255 365> 760 100<20 255 365 600>
VStem: 255 110<0 760>
LayerCount: 2
Fore
SplineSet
20 860 m 1
 600 860 l 1
 600 760 l 1
 365 760 l 1
 365 0 l 1
 255 0 l 1
 255 760 l 1
 20 760 l 1
 20 860 l 1
EndSplineSet
EndChar

StartChar: U
Encoding: 85 85 123
Width: 780
VWidth: 0
Flags: W
HStem: -12 90<287.409 492.591> 840 20G<80 190 590 700>
VStem: 80 110<193.682 860> 590 110<192.935 860>
LayerCount: 2
Fore
SplineSet
80 860 m 1
 190 860 l 1
 190 351 l 2
 190 152 270 78 390 78 c 0
 510 78 590 151 590 350 c 2
 590 860 l 1
 700 860 l 1
 700 350 l 2
 700 106 586 -12 390 -12 c 0
 194 -12 80 106 80 350 c 2
 80 860 l 1
EndSplineSet
EndChar

StartChar: V
Encoding: 86 86 127
Width: 780
VWidth: 0
Flags: W
HStem: 0 21G<313.256 466.744> 840 20G<30 166.216 613.784 750>
LayerCount: 2
Fore
SplineSet
30 860 m 1
 160 860 l 1
 390 120 l 1
 620 860 l 1
 750 860 l 1
 460 0 l 1
 320 0 l 1
 30 860 l 1
EndSplineSet
Validated: 1
EndChar

StartChar: W
Encoding: 87 87 130
Width: 970
VWidth: 0
Flags: W
HStem: 0 21G<206.512 354.286 615.714 763.488> 840 20G<60 183.099 435.775 534.225 786.901 910>
VStem: 60 120<811.84 860> 790 120<811.84 860>
LayerCount: 2
Fore
SplineSet
440 860 m 1
 530 860 l 1
 680 150 l 1
 790 860 l 1
 910 860 l 1
 760 0 l 1
 620 0 l 1
 485 630 l 1
 350 0 l 1
 210 0 l 1
 60 860 l 1
 180 860 l 1
 290 150 l 1
 440 860 l 1
EndSplineSet
EndChar

StartChar: X
Encoding: 88 88 109
Width: 780
VWidth: 0
Flags: W
HStem: 0 21G<20 172.105 607.895 760> 840 20G<60 211.875 568.125 720>
LayerCount: 2
Fore
SplineSet
60 860 m 1
 200 860 l 1
 390 540 l 1
 580 860 l 1
 720 860 l 1
 465 460 l 1
 760 0 l 1
 620 0 l 1
 390 380 l 1
 160 0 l 1
 20 0 l 1
 315 460 l 1
 60 860 l 1
EndSplineSet
Validated: 1
EndChar

StartChar: Y
Encoding: 89 89 127
Width: 780
VWidth: 0
Flags: W
HStem: 0 21G<330 450> 840 20G<30 182.222 597.778 750>
VStem: 330 120<0 400>
LayerCount: 2
Fore
SplineSet
30 860 m 1
 170 860 l 1
 390 500 l 1
 610 860 l 1
 750 860 l 1
 450 400 l 1
 450 0 l 1
 330 0 l 1
 330 400 l 1
 30 860 l 1
EndSplineSet
Validated: 1
EndChar

StartChar: Z
Encoding: 90 90 131
Width: 780
VWidth: 0
Flags: W
HStem: 0 100<220 700> 760 100<110 550>
LayerCount: 2
Fore
SplineSet
110 860 m 1
 680 860 l 1
 680 760 l 1
 220 100 l 1
 700 100 l 1
 700 0 l 1
 80 0 l 1
 80 100 l 1
 550 760 l 1
 110 760 l 1
 110 860 l 1
EndSplineSet
Validated: 1
EndChar

StartChar: bracketleft
Encoding: 91 91 188
Width: 440
VWidth: 0
Flags: W
HStem: -340 85<160 360> 965 85<160 360>
VStem: 60 100<-255 965>
LayerCount: 2
Fore
SplineSet
60 1050 m 1
 360 1050 l 1
 360 965 l 1
 160 965 l 1
 160 -255 l 1
 360 -255 l 1
 360 -340 l 1
 60 -340 l 1
 60 1050 l 1
EndSplineSet
EndChar

StartChar: backslash
Encoding: 92 92 161
Width: 425
VWidth: 0
Flags: W
HStem: -340 21G<353.538 465> 940 20G<-60 51.4615>
LayerCount: 2
Fore
SplineSet
45 960 m 1
 465 -340 l 1
 360 -340 l 1
 -60 960 l 1
 45 960 l 1
EndSplineSet
EndChar

StartChar: underscore
Encoding: 95 95 191
Width: 860
VWidth: 0
Flags: W
HStem: -90 90<30 820>
LayerCount: 2
Fore
SplineSet
30 0 m 5
 820 0 l 5
 820 -90 l 5
 30 -90 l 5
 30 0 l 5
EndSplineSet
EndChar

StartChar: grave
Encoding: 96 96 192
Width: 240
VWidth: 0
Flags: W
HStem: 780 180
VStem: 0 220
LayerCount: 2
Fore
SplineSet
0 960 m 1
 100 960 l 1
 220 780 l 1
 140 780 l 1
 0 960 l 1
EndSplineSet
EndChar

StartChar: a
Encoding: 97 97 143
Width: 620
VWidth: 0
Flags: W
HStem: -18 90<176.939 358.928> 0 21G<475.455 580> 300 80<186.391 440> 548 90<212.572 396.815>
VStem: 40 100<108.873 255.196> 60 110<430 504.259> 440 100<161.557 300 380 504.671> 455 85<33.9516 110>
LayerCount: 2
Back
SplineSet
325 638 m 4xb6
 478 638 560 541 560 430 c 6xb6
 560 0 l 5
 480 0 l 5x71
 470 90 l 5
 470 90 419 -18 290 -18 c 4
 116 -18 60 88 60 180 c 4xb9
 60 304 167 380 300 380 c 6
 460 380 l 5
 460 430 l 6
 460 498 418 548 325 548 c 4
 232 548 190 498 190 430 c 5
 80 430 l 5
 80 540 172 638 325 638 c 4xb6
300 300 m 6
 229 300 160 267 160 180 c 4xba
 160 102 218 72 290 72 c 4
 391 72 460 152 460 278 c 6
 460 300 l 5
 300 300 l 6
EndSplineSet
Fore
SplineSet
305 638 m 4xb6
 458 638 540 541 540 430 c 6xb6
 540 160 l 6
 540 79 580 0 580 0 c 5
 480 0 l 5x71
 480 0 455 68 455 110 c 5
 455 110 415 -18 270 -18 c 4
 96 -18 40 88 40 180 c 4xb9
 40 304 147 380 280 380 c 6
 440 380 l 5
 440 430 l 6
 440 498 398 548 305 548 c 4
 212 548 170 498 170 430 c 5
 60 430 l 5
 60 540 152 638 305 638 c 4xb6
280 300 m 6
 209 300 140 267 140 180 c 4xba
 140 102 198 72 270 72 c 4
 371 72 440 152 440 278 c 6
 440 300 l 5
 280 300 l 6
EndSplineSet
EndChar

StartChar: b
Encoding: 98 98 125
Width: 690
VWidth: 0
Flags: W
HStem: -12 90<265.969 427.944> 0 21G<80 180> 542 90<261.295 427.944> 940 20G<80 180>
VStem: 80 100<0 110 170.794 449.206 520 960> 510 100<166.831 453.169>
LayerCount: 2
Back
SplineSet
90 960 m 5x7c
 190 960 l 5
 190 555 l 5
 221 592 273 632 345 632 c 4
 508 632 610 493 610 340 c 6
 610 280 l 6
 610 127 508 -12 345 -12 c 4xbc
 268 -12 206 38 185 75 c 5
 160 0 l 5
 40 0 l 5
 40 0 90 101 90 180 c 6
 90 960 l 5x7c
335 542 m 4
 238 542 190 443 190 340 c 6
 190 280 l 6
 190 177 238 78 335 78 c 4
 442 78 510 177 510 280 c 6
 510 340 l 6
 510 443 442 542 335 542 c 4
EndSplineSet
Fore
SplineSet
357 632 m 0x7c
 514 632 610 503 610 352 c 2
 610 268 l 2
 610 117 514 -12 357 -12 c 0xbc
 273 -12 210 46 180 110 c 1
 180 0 l 1
 80 0 l 1
 80 960 l 1
 180 960 l 1
 180 520 l 1
 211 584 273 632 357 632 c 0x7c
345 542 m 0
 237 542 180 439 180 330 c 2
 180 290 l 2
 180 181 237 78 345 78 c 0
 427 78 510 145 510 268 c 2
 510 352 l 2
 510 475 427 542 345 542 c 0
EndSplineSet
EndChar

StartChar: c
Encoding: 99 99 146
Width: 630
VWidth: 0
Flags: W
HStem: -18 90<240.138 409.282> 548 90<240.138 407.054>
VStem: 60 100<160.448 459.552> 478 102<406 469.82> 488 102<152.622 214>
LayerCount: 2
Back
SplineSet
330 632 m 4
 493 632 570 525 570 392 c 5
 470 392 l 5
 470 485 427 542 330 542 c 4
 233 542 190 485 190 392 c 6
 190 228 l 6
 190 135 233 78 330 78 c 4
 427 78 470 135 470 228 c 5
 570 228 l 5
 570 95 493 -12 330 -12 c 4
 167 -12 90 95 90 228 c 6
 90 392 l 6
 90 525 167 632 330 632 c 4
EndSplineSet
Fore
SplineSet
325 638 m 0xe8
 470 638 561 535 580 406 c 1
 478 406 l 1xf0
 462 484 406 548 325 548 c 0
 228 548 160 461 160 358 c 2
 160 262 l 2
 160 159 228 72 325 72 c 0
 406 72 472 136 488 214 c 1
 590 214 l 1
 571 85 470 -18 325 -18 c 0
 162 -18 60 109 60 262 c 2
 60 358 l 2
 60 511 162 638 325 638 c 0xe8
EndSplineSet
EndChar

StartChar: d
Encoding: 100 100 135
Width: 670
VWidth: 0
Flags: W
HStem: -18 90<230.242 404.953> 0 21G<500 590> 548 90<230.242 405.305> 940 20G<490 590>
VStem: 50 100<156.023 463.977> 490 100<160.448 459.552 530 960> 500 90<0 110>
LayerCount: 2
Fore
SplineSet
315 638 m 4xba
 418 638 473 577 490 530 c 5
 490 960 l 5
 590 960 l 5xbc
 590 0 l 5
 500 0 l 5x7a
 500 110 l 5
 485 73 443 -18 315 -18 c 4
 152 -18 50 99 50 262 c 6
 50 358 l 6
 50 521 152 638 315 638 c 4xba
320 548 m 4
 223 548 150 471 150 358 c 6
 150 262 l 6
 150 149 223 72 320 72 c 4
 417 72 490 159 490 262 c 6
 490 358 l 6
 490 461 417 548 320 548 c 4
EndSplineSet
EndChar

StartChar: e
Encoding: 101 101 144
Width: 610
VWidth: 0
Flags: W
HStem: -18 90<218.434 394.092> 280 90<140 475> 548 90<218.953 400.068>
VStem: 40 100<155.885 280 370 463.592>
LayerCount: 2
Fore
SplineSet
310 638 m 0
 483 638 570 498 570 340 c 2
 570 280 l 1
 140 280 l 1
 140 262 l 2
 140 149 203 72 310 72 c 0
 393 72 432 121 460 190 c 1
 570 190 l 1
 540 71 457 -18 310 -18 c 0
 137 -18 40 99 40 262 c 2
 40 358 l 2
 40 506 137 638 310 638 c 0
310 548 m 0
 193 548 149 463 140 370 c 1
 475 370 l 1
 465 458 428 548 310 548 c 0
EndSplineSet
Validated: 1
EndChar

StartChar: f
Encoding: 102 102 154
Width: 450
VWidth: 0
Flags: W
HStem: 0 21G<130 230> 530 90<30 130 230 390> 882 90<314.555 400>
VStem: 130 100<0 530 620 793.552>
LayerCount: 2
Fore
SplineSet
400 972 m 1
 400 882 l 1
 303 882 230 795 230 692 c 2
 230 620 l 1
 390 620 l 1
 390 530 l 1
 230 530 l 1
 230 0 l 5
 130 0 l 1
 130 530 l 1
 30 530 l 1
 30 620 l 1
 130 620 l 1
 130 692 l 2
 130 845 237 972 400 972 c 1
EndSplineSet
EndChar

StartChar: g
Encoding: 103 103 138
Width: 670
VWidth: 0
Flags: W
HStem: -340 90<320 405.445> -12 90<242.056 408.705> 542 90<242.056 404.031> 600 20G<490 590>
VStem: 60 100<166.831 453.169> 490 100<-161.552 100 170.794 449.206 510 620>
LayerCount: 2
Fore
SplineSet
313 632 m 0xec
 397 632 460 574 490 510 c 1
 490 620 l 1
 590 620 l 1xdc
 590 620 590 167 590 -60 c 0
 590 -213 483 -340 320 -340 c 1
 320 -250 l 1
 417 -250 490 -163 490 -60 c 0
 490 -7 490 47 490 100 c 1
 459 36 397 -12 313 -12 c 0
 156 -12 60 117 60 268 c 2
 60 352 l 2
 60 503 156 632 313 632 c 0xec
325 542 m 0xec
 243 542 160 475 160 352 c 2
 160 268 l 2
 160 145 243 78 325 78 c 0
 433 78 490 181 490 290 c 2
 490 330 l 2
 490 439 433 542 325 542 c 0xec
EndSplineSet
EndChar

StartChar: h
Encoding: 104 104 144
Width: 650
VWidth: 0
Flags: W
HStem: 0 21G<80 180 470 570> 542 90<290.925 436.595> 940 20G<80 180>
VStem: 80 100<0 409.502 490 960> 470 100<0 507.282>
LayerCount: 2
Fore
SplineSet
80 960 m 1
 180 960 l 1
 180 490 l 1
 194 545 277 632 370 632 c 0
 527 632 570 523 570 362 c 2
 570 0 l 1
 470 0 l 1
 470 362 l 2
 470 485 452 542 370 542 c 0
 262 542 180 409 180 300 c 0
 180 197 180 0 180 0 c 1
 80 0 l 1
 80 960 l 1
EndSplineSet
EndChar

StartChar: i
Encoding: 105 105 106
Width: 300
VWidth: 0
Flags: W
HStem: 0 21G<100 200> 600 20G<100 200> 700 140<95.8748 204.125>
VStem: 80 140<715.875 824.125> 100 100<0 620>
LayerCount: 2
Fore
SplineSet
150 840 m 0xf0
 189 840 220 809 220 770 c 0
 220 731 189 700 150 700 c 0
 111 700 80 731 80 770 c 0
 80 809 111 840 150 840 c 0xf0
100 620 m 1xe8
 200 620 l 1
 200 0 l 1
 100 0 l 1
 100 620 l 1xe8
EndSplineSet
EndChar

StartChar: j
Encoding: 106 106 115
Width: 280
VWidth: 0
Flags: W
HStem: -340 90<-80 5.44507> 600 20G<90 190> 700 140<85.8748 194.125>
VStem: 70 140<715.875 824.125> 90 100<-161.552 620>
LayerCount: 2
Fore
SplineSet
140 840 m 4xf0
 179 840 210 809 210 770 c 4
 210 731 179 700 140 700 c 4
 101 700 70 731 70 770 c 4
 70 809 101 840 140 840 c 4xf0
90 620 m 5xe8
 190 620 l 5
 190 620 190 166.667 190 -60 c 4
 190 -213 83 -340 -80 -340 c 5
 -80 -250 l 5
 17 -250 90 -163 90 -60 c 4
 90 166.667 90 620 90 620 c 5xe8
EndSplineSet
EndChar

StartChar: k
Encoding: 107 107 157
Width: 590
VWidth: 0
Flags: W
HStem: 0 21G<80 180 423.529 570> 600 20G<393.571 530> 940 20G<80 180>
VStem: 80 100<0 200 340 960>
LayerCount: 2
Fore
SplineSet
80 960 m 1
 180 960 l 1
 180 340 l 1
 410 620 l 1
 530 620 l 1
 290 330 l 1
 570 0 l 1
 440 0 l 1
 230 255 l 1
 180 200 l 1
 180 0 l 1
 80 0 l 1
 80 960 l 1
EndSplineSet
EndChar

StartChar: l
Encoding: 108 108 138
Width: 280
VWidth: 0
Flags: W
HStem: 0 21G<80 180> 940 20G<80 180>
VStem: 80 100<0 960>
LayerCount: 2
Back
SplineSet
270 78 m 5
 250 -6 l 5
 159 -6 90 59 90 180 c 6
 90 960 l 5
 190 960 l 5
 190 180 l 6
 190 122 211 93 270 78 c 5
EndSplineSet
Fore
SplineSet
80 960 m 5
 180 960 l 5
 180 0 l 5
 80 0 l 5
 80 960 l 5
EndSplineSet
EndChar

StartChar: m
Encoding: 109 109 140
Width: 930
VWidth: 0
Flags: W
HStem: 0 21G<60 160 410 510 750 850> 542 90<230.695 358.672 567.469 704.396> 600 20G<60 150>
VStem: 60 100<0 464.955> 60 90<490 620> 410 100<0 475.536> 750 100<0 490.273>
LayerCount: 2
Fore
SplineSet
325 632 m 4xce
 416 632 469 562 490 490 c 5
 505 545 551 632 655 632 c 4
 764 632 850 571 850 410 c 6
 850 0 l 5
 750 0 l 5
 750 380 l 6
 750 516 681 542 630 542 c 4
 558 542 510 460 510 360 c 5
 510 0 l 5
 410 0 l 5
 410 380 l 6
 410 503 341 542 290 542 c 4
 209 542 160 443 160 360 c 6
 160 0 l 5
 60 0 l 5xd6
 60 620 l 5
 150 620 l 5xae
 150 490 l 5
 156 520 195 632 325 632 c 4xce
EndSplineSet
EndChar

StartChar: n
Encoding: 110 110 140
Width: 650
VWidth: 0
Flags: W
HStem: 0 21G<80 180 470 570> 542 90<290.925 436.595> 600 20G<80 180>
VStem: 80 100<0 409.502 490 620> 470 100<0 507.282>
LayerCount: 2
Fore
SplineSet
80 620 m 1xb8
 180 620 l 1xb8
 180 490 l 1
 194 545 277 632 370 632 c 0
 527 632 570 523 570 362 c 2
 570 0 l 1
 470 0 l 1
 470 362 l 2
 470 485 452 542 370 542 c 0xd8
 262 542 180 409 180 300 c 0
 180 197 180 0 180 0 c 1
 80 0 l 1
 80 620 l 1xb8
EndSplineSet
EndChar

StartChar: o
Encoding: 111 111 107
Width: 720
VWidth: 0
Flags: W
HStem: -12 90<269.912 450.088> 542 90<269.912 450.088>
VStem: 60 100<199.346 420.654> 560 100<199.346 420.654>
LayerCount: 2
Fore
SplineSet
360 632 m 0
 526 632 660 488 660 310 c 0
 660 132 526 -12 360 -12 c 0
 194 -12 60 132 60 310 c 0
 60 488 194 632 360 632 c 0
360 542 m 0
 250 542 160 438 160 310 c 0
 160 182 250 78 360 78 c 0
 470 78 560 182 560 310 c 0
 560 438 470 542 360 542 c 0
EndSplineSet
EndChar

StartChar: r
Encoding: 114 114 151
Width: 420
VWidth: 0
Flags: W
HStem: 0 21G<80 180> 542 90<306.191 400> 600 20G<80 180>
VStem: 80 100<0 407.802 470 620>
LayerCount: 2
Fore
SplineSet
400 542 m 1xd0
 262 542 180 412 180 290 c 2
 180 0 l 1
 80 0 l 1
 80 620 l 1
 180 620 l 1xb0
 180 470 l 1
 194 525 287 632 400 632 c 1
 400 542 l 1xd0
EndSplineSet
EndChar

StartChar: s
Encoding: 115 115 154
Width: 610
VWidth: 0
Flags: W
HStem: -18 90<214.798 412.324> 548 90<204.43 385.248>
VStem: 60 110<114.715 180> 75 100<404.397 518.518> 420 100<440 512.044> 450 100<108.255 228.879>
LayerCount: 2
Fore
SplineSet
450 170 m 0xe4
 450 243 369 269 295 280 c 0
 207 293 75 334 75 465 c 0
 75 563 164 638 295 638 c 0
 447 638 520 548 520 440 c 1
 420 440 l 1
 420 511 379 548 295 548 c 0
 211 548 175 508 175 465 c 0xd8
 175 408 222 370 315 360 c 0
 413 349 550 308 550 170 c 0
 550 40 450 -18 310 -18 c 0
 164 -18 61 52 60 180 c 1
 170 180 l 1
 170 114 229 72 310 72 c 0
 391 72 450 102 450 170 c 0xe4
EndSplineSet
EndChar

StartChar: t
Encoding: 116 116 156
Width: 420
VWidth: 0
Flags: W
HStem: 0 21G<140 240> 530 90<40 140 240 400> 940 20G<140 240>
VStem: 140 100<0 530 620 960>
LayerCount: 2
Back
SplineSet
250 860 m 5
 250 620 l 5
 390 620 l 5
 390 530 l 5
 250 530 l 5
 250 -340 l 5
 150 -340 l 5
 150 530 l 5
 50 530 l 5
 50 620 l 5
 150 620 l 5
 150 860 l 5
EndSplineSet
Fore
SplineSet
240 960 m 1
 240 620 l 1
 400 620 l 1
 400 530 l 1
 240 530 l 1
 240 0 l 1
 140 0 l 1
 140 530 l 1
 40 530 l 1
 40 620 l 1
 140 620 l 1
 140 960 l 1
 240 960 l 1
EndSplineSet
EndChar

StartChar: u
Encoding: 117 117 134
Width: 610
VWidth: 0
Flags: W
HStem: -12 90<220.611 389.389> 600 20G<60 160 450 550>
VStem: 60 100<145.216 620> 450 100<145.216 620>
LayerCount: 2
Fore
SplineSet
60 620 m 1
 160 620 l 1
 160 258 l 2
 160 145 208 78 305 78 c 0
 402 78 450 145 450 258 c 2
 450 620 l 1
 550 620 l 1
 550 258 l 2
 550 105 468 -12 305 -12 c 0
 142 -12 60 105 60 258 c 2
 60 620 l 1
EndSplineSet
EndChar

StartChar: v
Encoding: 118 118 147
Width: 600
VWidth: 0
Flags: W
HStem: 0 21G<237.419 362.581> 600 20G<10 122.115 477.885 590>
LayerCount: 2
Fore
SplineSet
10 620 m 1
 115 620 l 1
 300 100 l 1
 485 620 l 1
 590 620 l 1
 355 0 l 1
 245 0 l 1
 10 620 l 1
EndSplineSet
Validated: 1
EndChar

StartChar: w
Encoding: 119 119 147
Width: 760
VWidth: 0
Flags: W
HStem: 0 21G<155.161 274.783 485.217 604.839> 600 20G<10 114.4 330.4 429.6 645.6 750>
LayerCount: 2
Fore
SplineSet
10 620 m 5
 110 620 l 5
 220 120 l 5
 335 620 l 5
 425 620 l 5
 540 120 l 5
 650 620 l 5
 750 620 l 5
 600 0 l 5
 490 0 l 5
 380 460 l 5
 270 0 l 5
 160 0 l 5
 10 620 l 5
EndSplineSet
EndChar

StartChar: x
Encoding: 120 120 105
Width: 630
VWidth: 0
Flags: W
HStem: 0 21G<30 167.075 462.925 600> 600 20G<50 188.023 441.977 580>
LayerCount: 2
Fore
SplineSet
250 335 m 1
 50 620 l 1
 175 620 l 1
 315 405 l 1
 455 620 l 1
 580 620 l 1
 380 335 l 1
 600 0 l 1
 475 0 l 1
 315 265 l 1
 155 0 l 1
 30 0 l 1
 250 335 l 1
EndSplineSet
Validated: 1
EndChar

StartChar: y
Encoding: 121 121 150
Width: 640
VWidth: 0
Flags: W
HStem: 600 20G<20 137.6 502.4 620>
LayerCount: 2
Fore
SplineSet
20 620 m 1
 130 620 l 1
 320 120 l 1
 510 620 l 1
 620 620 l 1
 256 -340 l 1
 147 -340 l 1
 270 -20 l 1
 20 620 l 1
EndSplineSet
EndChar

StartChar: z
Encoding: 122 122 149
Width: 640
VWidth: 0
Flags: W
HStem: 0 90<200 560> 530 90<100 420>
LayerCount: 2
Fore
SplineSet
100 620 m 1
 540 620 l 1
 540 530 l 1
 200 90 l 1
 560 90 l 1
 560 0 l 1
 80 0 l 1
 80 90 l 1
 420 530 l 1
 100 530 l 1
 100 620 l 1
EndSplineSet
EndChar

StartChar: braceleft
Encoding: 123 123 193
Width: 500
VWidth: 0
Flags: W
HStem: -340 80<236.798 420> 970 80<236.798 420>
VStem: 120 100<-246.303 274.455 435.545 956.302>
LayerCount: 2
Fore
SplineSet
280 1050 m 2
 420 1050 l 1
 420 970 l 1
 280 970 l 2
 244 970 220 932 220 900 c 2
 220 500 l 2
 220 383 120 355 120 355 c 1
 120 355 220 327 220 210 c 2
 220 -190 l 2
 220 -222 244 -260 280 -260 c 6
 420 -260 l 5
 420 -340 l 1
 280 -340 l 2
 182 -340 120 -276 120 -190 c 2
 120 210 l 2
 120 277 39 325 0 345 c 1
 0 365 l 1
 39 385 120 433 120 500 c 2
 120 900 l 2
 120 986 182 1050 280 1050 c 2
EndSplineSet
EndChar

StartChar: bar
Encoding: 124 124 158
Width: 280
VWidth: 0
Flags: W
HStem: -340 21G<80 180> 940 20G<80 180>
VStem: 80 100<-340 960>
LayerCount: 2
Fore
SplineSet
80 960 m 1
 180 960 l 1
 180 -340 l 5
 80 -340 l 5
 80 960 l 1
EndSplineSet
EndChar

StartChar: braceright
Encoding: 125 125 194
Width: 500
VWidth: 0
Flags: W
HStem: -340 80<200 243.202> 970 80<200 243.202>
VStem: 260 100<-246.303 -190 210 274.455 435.545 500 900 956.302>
LayerCount: 2
Fore
SplineSet
200 1050 m 2
 60 1050 l 1
 60 970 l 1
 200 970 l 2
 236 970 260 932 260 900 c 2
 260 500 l 2
 260 383 360 355 360 355 c 1
 360 355 260 327 260 210 c 2
 260 -190 l 2
 260 -222 236 -260 200 -260 c 6
 60 -260 l 5
 60 -340 l 1
 200 -340 l 2
 298 -340 360 -276 360 -190 c 2
 360 210 l 2
 360 277 441 325 480 345 c 1
 480 365 l 1
 441 385 360 433 360 500 c 2
 360 900 l 2
 360 986 298 1050 200 1050 c 2
EndSplineSet
EndChar

StartChar: exclamdown
Encoding: 161 161 210
Width: 297
Flags: W
HStem: 513 121<84 200>
VStem: 84 116<-219 354 513 634>
LayerCount: 2
Fore
SplineSet
200 -219 m 1
 84 -219 l 1
 84 354 l 1
 200 354 l 1
 200 -219 l 1
200 513 m 1
 84 513 l 1
 84 634 l 1
 200 634 l 1
 200 513 l 1
EndSplineSet
EndChar

StartChar: cent
Encoding: 162 162 204
Width: 657
Flags: W
HStem: -144 222<280.322 395.766> 555 217<280.847 395.556>
VStem: 57 116<169.135 463.266> 280 116<-144 -1.94336 634.548 772> 469 106<128.561 197 418 498.418>
LayerCount: 2
Fore
SplineSet
336 78 m 0
 371.333 78 402.333 89.8333 429 113.5 c 0
 455.667 137.167 469 166 469 200 c 1
 574 200 l 1
 575 197 l 1
 576.333 151.667 559.667 109.667 525 71 c 0
 490.333 32.3333 447.333 7 396 -5 c 1
 396 -144 l 1
 280 -144 l 1
 280 -7 l 1
 208 5 152.833 40 114.5 98 c 0
 76.1667 156 57 225 57 305 c 2
 57 329 l 2
 57 407.667 76.3333 476 115 534 c 0
 153.667 592 208.667 627.333 280 640 c 1
 280 772 l 1
 396 772 l 1
 396 639 l 1
 450.667 627 494.667 600.667 528 560 c 0
 561.333 519.333 577.333 472 576 418 c 1
 574 415 l 1
 469 415 l 1
 469 453.667 456.333 486.667 431 514 c 0
 405.667 541.333 374 555 336 555 c 0
 279.333 555 238 533 212 489 c 0
 186 445 173 391.667 173 329 c 2
 173 305 l 2
 173 241 185.833 187.167 211.5 143.5 c 0
 237.167 99.8333 278.667 78 336 78 c 0
EndSplineSet
EndChar

StartChar: sterling
Encoding: 163 163 203
Width: 699
Flags: W
HStem: 0 90<79 111.863 220 650> 360 91<41 134 252 494> 639 21G<500 613> 775 90<294.97 453.217>
VStem: 128 115<451 718.925> 137 115<114.662 360 451 528.244> 500 112<642 730.165>
LayerCount: 2
Fore
SplineSet
252 360 m 5xf6
 255 273 l 5
 255 237.667 252 204.167 246 172.5 c 4
 240 140.833 231.333 113.333 220 90 c 5
 651 90 l 5
 650 0 l 5
 79 0 l 5
 79 90 l 5
 84 90 l 5
 102.667 95.3333 116.833 117.167 126.5 155.5 c 4
 136.167 193.833 141 233 141 273 c 5
 137 360 l 5xf6
 41 360 l 5
 41 451 l 5
 134 451 l 5
 128 609 l 5
 128 689 149.833 751.667 193.5 797 c 4
 237.167 842.333 295.667 865 369 865 c 4
 447 865 507.5 844.667 550.5 804 c 4
 593.5 763.333 614.333 709.333 613 642 c 5
 612 639 l 5
 500 639 l 5
 500 685 487.833 719.167 463.5 741.5 c 4
 439.167 763.833 407.667 775 369 775 c 260
 330.333 775 299.666 760.333 277 731 c 4
 254.333 701.667 243 661 243 609 c 5xfa
 249 451 l 5
 494 451 l 5
 494 360 l 5
 252 360 l 5xf6
EndSplineSet
EndChar

StartChar: currency
Encoding: 164 164 211
Width: 853
Flags: W
HStem: -12 103<323.371 536.218> 620 103<323.277 535.755>
VStem: 81 107<234.056 476.641> 671 108<234.556 476.713>
LayerCount: 2
Fore
SplineSet
643 63 m 1
 613 39 579.833 20.5 543.5 7.5 c 0
 507.167 -5.5 469.333 -12 430 -12 c 256
 390.667 -12 352.833 -5.66667 316.5 7 c 0
 280.167 19.6667 247.667 38 219 62 c 1
 142 -15 l 1
 61 66 l 1
 142 148 l 1
 122.667 178 107.667 210.5 97 245.5 c 0
 86.3333 280.5 81 317.333 81 356 c 0
 81 396 86.6667 434.333 98 471 c 0
 109.333 507.667 125.333 541.333 146 572 c 1
 61 659 l 1
 142 741 l 1
 226 655 l 1
 254.667 676.333 286.5 693 321.5 705 c 0
 356.5 717 392.667 723 430 723 c 0
 468 723 504.333 717 539 705 c 0
 573.667 693 605.667 676 635 654 c 1
 721 741 l 1
 803 659 l 1
 715 570 l 1
 735 539.333 750.667 505.833 762 469.5 c 0
 773.333 433.167 779 395.333 779 356 c 0
 779 318 773.833 281.5 763.5 246.5 c 0
 753.167 211.5 738.667 179 720 149 c 1
 803 66 l 1
 721 -16 l 1
 643 63 l 1
188 356 m 0
 188 282.667 211.5 220.167 258.5 168.5 c 0
 305.5 116.833 362.667 91 430 91 c 0
 496.667 91 553.5 116.833 600.5 168.5 c 0
 647.5 220.167 671 282.667 671 356 c 0
 671 428.667 647.5 490.833 600.5 542.5 c 0
 553.5 594.167 496.667 620 430 620 c 0
 362.667 620 305.5 594.167 258.5 542.5 c 0
 211.5 490.833 188 428.666 188 356 c 0
EndSplineSet
EndChar

StartChar: yen
Encoding: 165 165 202
Width: 728
Flags: W
HStem: 0 21G<301 416> 191 71<81 301 416 640> 360 72<81 263 458 640>
VStem: 301 115<0 191 262 360>
LayerCount: 2
Fore
SplineSet
360 465 m 1
 571 853 l 1
 703 853 l 1
 458 432 l 1
 640 432 l 1
 640 360 l 1
 416 360 l 1
 416 262 l 1
 640 262 l 1
 640 191 l 1
 416 191 l 1
 416 0 l 1
 301 0 l 1
 301 191 l 1
 81 191 l 1
 81 262 l 1
 301 262 l 1
 301 360 l 1
 81 360 l 1
 81 432 l 1
 263 432 l 1
 18 853 l 1
 150 853 l 1
 360 465 l 1
EndSplineSet
EndChar

StartChar: brokenbar
Encoding: 166 166 212
Width: 292
Flags: W
VStem: 85 115<-158 306 409 853>
LayerCount: 2
Fore
SplineSet
85 -158 m 1
 85 306 l 1
 200 306 l 1
 200 -158 l 1
 85 -158 l 1
200 409 m 1
 85 409 l 1
 85 853 l 1
 200 853 l 1
 200 409 l 1
EndSplineSet
EndChar

StartChar: section
Encoding: 167 167 213
Width: 737
Flags: W
HStem: -290 91<246.22 471.137> 775 90<254.431 471.998>
VStem: 55 116<-133.761 -41 249.303 399.732> 81 116<577.072 722.573> 531 116<-144.969 -7.51977> 544 112<616 703.775> 558 115<179.182 318.729>
LayerCount: 2
Fore
SplineSet
673 253 m 4xd2
 673 216.333 663.5 184.167 644.5 156.5 c 4
 625.5 128.833 599 107.333 565 92 c 5
 591.667 72 612 48.6667 626 22 c 4
 640 -4.66667 647 -37 647 -75 c 4
 647 -142.333 621 -195 569 -233 c 4
 517 -271 447 -290 359 -290 c 4
 273 -290 200.5 -270 141.5 -230 c 4
 82.5 -190 54 -127 56 -41 c 5
 57 -38 l 5
 167 -36 l 5
 167 -92 185.833 -133.167 223.5 -159.5 c 4
 261.167 -185.833 306.333 -199 359 -199 c 4
 412.333 -199 454.333 -187.333 485 -164 c 4
 515.667 -140.667 531 -111.333 531 -76 c 260
 531 -40.6667 517 -13.1667 489 6.5 c 4
 461 26.1667 407.333 48.3333 328 73 c 5
 234.667 97.6667 165.833 128.167 121.5 164.5 c 4
 77.1667 200.833 55 253.667 55 323 c 4xe8
 55 358.333 64.1667 389.833 82.5 417.5 c 4
 100.833 445.167 127 467 161 483 c 5
 134.333 502.333 114.333 525.667 101 553 c 4
 87.6667 580.333 81 612.667 81 650 c 4
 81 714.667 107.167 766.667 159.5 806 c 4
 211.833 845.333 282 865 370 865 c 4
 461.334 865 532.334 843.333 583 800 c 4
 633.667 756.666 658 695.333 656 616 c 5
 654 613 l 5
 544 613 l 5xd4
 544 659 528.667 697.5 498 728.5 c 4
 467.333 759.5 424.667 775 370 775 c 4
 313.333 775 270.333 763.333 241 740 c 4
 211.667 716.665 197 687.332 197 652 c 4
 197 613.333 210 584.333 236 565 c 4
 262 545.667 316.333 524.667 399 502 c 5
 494.333 475.333 563.833 444.333 607.5 409 c 4
 651.167 373.667 673 321.667 673 253 c 4xd2
353 404 m 5
 334.333 408.667 317 413.333 301 418 c 4
 285 422.667 270 428 256 434 c 5
 227.333 426.667 206 413.167 192 393.5 c 4
 178 373.833 171 350.666 171 324 c 4
 171 284.667 184.167 255 210.5 235 c 4
 236.833 215 291 193.667 373 171 c 5
 395 164.333 413.167 158.833 427.5 154.5 c 4
 441.833 150.167 455.667 145.667 469 141 c 5
 497.001 149 518.834 162.5 534.5 181.5 c 4
 550.167 200.5 558 223.667 558 251 c 4xe2
 558 286.333 543.5 314.5 514.5 335.5 c 4
 485.5 356.5 431.667 379.333 353 404 c 5
EndSplineSet
EndChar

StartChar: copyright
Encoding: 169 169 205
Width: 939
Flags: W
HStem: -12 71<337.972 597.294> 165 76<388.299 538.144> 612 76<388.581 538.703> 793 72<336.98 598.329>
VStem: 52 70<282.677 568.329> 255 90<287.265 565.213> 565 87<268.375 346 505 585.696> 813 70<282.677 568.329>
LayerCount: 2
Fore
SplineSet
651 349 m 1
 652 346 l 1
 653.333 287.333 636.833 242.5 602.5 211.5 c 0
 568.166 180.5 520.333 165 459 165 c 0
 396.333 165 346.666 185.833 310 227.5 c 0
 273.333 269.167 255 324 255 392 c 2
 255 462 l 2
 255 529.333 273.5 583.833 310.5 625.5 c 0
 347.5 667.167 397 688 459 688 c 0
 520.333 688 568.333 672.667 603 642 c 0
 637.669 611.333 654.336 567 653 509 c 1
 652 505 l 1
 566 505 l 1
 566 542.333 557.167 569.5 539.5 586.5 c 0
 521.833 603.5 495 612 459 612 c 0
 422.333 612 394.166 598.167 374.5 570.5 c 0
 354.833 542.833 345 506.667 345 462 c 2
 345 392 l 2
 345 346 354.833 309.333 374.5 282 c 0
 394.167 254.667 422.333 241 459 241 c 0
 494.334 241 520.834 249.5 538.5 266.5 c 0
 556.167 283.5 565 311 565 349 c 1
 651 349 l 1
122 427 m 0
 122 323.667 155.5 236.5 222.5 165.5 c 0
 289.5 94.5 371.333 59 468 59 c 0
 564 59 645.5 94.5 712.5 165.5 c 0
 779.5 236.5 813 323.667 813 427 c 0
 813 529.667 779.333 616.334 712 687 c 0
 644.666 757.667 563.333 793 468 793 c 0
 372 793 290.333 757.667 223 687 c 0
 155.667 616.333 122 529.667 122 427 c 0
52 427 m 0
 52 550.333 92.3333 654.167 173 738.5 c 0
 253.667 822.833 352 865 468 865 c 0
 583.333 865 681.333 822.833 762 738.5 c 0
 842.667 654.166 883 550.333 883 427 c 0
 883 303.667 842.5 199.667 761.5 115 c 0
 680.5 30.3333 582.667 -12 468 -12 c 0
 352.667 -12 254.5 30.3333 173.5 115 c 0
 92.5 199.667 52 303.667 52 427 c 0
EndSplineSet
EndChar

StartChar: registered
Encoding: 174 174 206
Width: 980
Flags: W
HStem: -18 70<355.698 604.302> 405 60<395 552.422> 625 60<395 555.078> 808 70<355.698 604.302>
VStem: 60 70<288.666 571.334> 320 75<190 405 465 625> 575 75<208.255 386.194 486.772 605.359> 830 70<288.666 571.334>
LayerCount: 2
Fore
SplineSet
480 878 m 0
 734 878 900 667 900 430 c 0
 900 193 734 -18 480 -18 c 0
 226 -18 60 193 60 430 c 0
 60 667 226 878 480 878 c 0
480 808 m 0
 273 808 130 629 130 430 c 0
 130 231 273 52 480 52 c 0
 687 52 830 231 830 430 c 0
 830 629 687 808 480 808 c 0
320 685 m 1
 480 685 l 2
 595 685 650 630 650 550 c 0
 650 498 624 457 580 435 c 1
 625 423 655 385 655 300 c 0
 655 218 690 190 690 190 c 1
 605 190 l 1
 605 190 575 216 575 300 c 0
 575 374 554 405 480 405 c 2
 395 405 l 1
 395 190 l 1
 320 190 l 1
 320 685 l 1
575 550 m 0
 575 599 543 625 460 625 c 0
 395 625 l 1
 395 465 l 1
 490 465 l 2
 541 465 575 502 575 550 c 0
EndSplineSet
EndChar

StartChar: acute
Encoding: 180 180 209
Width: 383
Flags: W
HStem: 734 155
VStem: 77 243
LayerCount: 2
Fore
SplineSet
185 889 m 1
 320 889 l 1
 321 886 l 1
 163 734 l 1
 77 734 l 1
 185 889 l 1
EndSplineSet
EndChar

StartChar: uni0E01
Encoding: 161 3585 5
Width: 610
VWidth: 0
Flags: W
HStem: 0 21G<100 200 430 530> 527 85<209.743 373.379>
VStem: 100 100<0 361.767> 430 100<0 469.733>
LayerCount: 2
Back
SplineSet
300 612 m 4
 433 612 540 505 540 372 c 6
 540 0 l 5
 440 0 l 5
 440 372 l 6
 440 455 377 522 300 522 c 4
 223 522 160 455 160 372 c 6
 160 0 l 5
 60 0 l 5
 60 372 l 6
 60 505 167 612 300 612 c 4
EndSplineSet
Fore
SplineSet
290 612 m 0
 423 612 530 529 530 372 c 2
 530 0 l 1
 430 0 l 1
 430 372 l 2
 430 476 368 527 290 527 c 0
 232 527 179 493 160 440 c 1
 260 415 l 1
 260 415 200 352 200 290 c 2
 200 0 l 1
 100 0 l 1
 100 270 l 2
 100 354 150 390 150 390 c 1
 50 410 l 1
 78 500 159 612 290 612 c 0
EndSplineSet
Validated: 1
EndChar

StartChar: uni0E02
Encoding: 162 3586 53
Width: 600
VWidth: 0
Flags: W
HStem: -12 85<294.897 405.103> 326 55<114.987 194.623> 471 52<120.282 194.393> 551 55<131.396 260.645>
VStem: 50 60<385.997 465> 180 100<87.9077 275.759> 200 55<386.377 466.347> 294 75<371.37 517.848> 420 100<87.9077 590>
LayerCount: 2
Back
SplineSet
210 606 m 4xf7
 294 606 370 549 370 446 c 4
 370 338 260 249 260 170 c 6
 260 150 l 6
 260 122 261 73 335 73 c 4
 409 73 410 122 410 150 c 6
 410 590 l 5
 510 590 l 5
 510 150 l 6
 510 112 507 -12 335 -12 c 4
 163 -12 160 112 160 150 c 6
 160 170 l 6xfb
 160 295 289 367 289 460 c 4
 289 511 252 541 210 541 c 4
 198 541 191 540 180 536 c 5
 223 528 250 488 250 446 c 4
 250 391 205 346 150 346 c 4
 95 346 50 388 50 451 c 4
 50 550 131 606 210 606 c 4xf7
150 491 m 4
 126 491 105 470 105 446 c 4
 105 422 126 401 150 401 c 4
 174 401 195 422 195 446 c 4xf7
 195 470 174 491 150 491 c 4
EndSplineSet
Fore
SplineSet
204 606 m 0xfb80
 302 606 369 526 369 444 c 0
 369 313 280 288 280 194 c 2
 280 140 l 2
 280 112 295 73 350 73 c 0
 405 73 420 112 420 140 c 2
 420 590 l 1
 520 590 l 1
 520 140 l 2
 520 102 508 -12 350 -12 c 0
 192 -12 180 102 180 140 c 2
 180 194 l 2xfd80
 180 318 294 347 294 444 c 0
 294 503 254 551 196 551 c 0
 159 551 132 532 120 511 c 1
 120 511 137 523 159 523 c 0
 210 523 255 491 255 426 c 0
 255 371 210 326 155 326 c 0
 100 326 50 378 50 441 c 0
 50 540 122 606 204 606 c 0xfb80
155 471 m 0
 131 471 110 450 110 426 c 0
 110 402 131 381 155 381 c 0
 179 381 200 402 200 426 c 0xfb80
 200 450 179 471 155 471 c 0
EndSplineSet
Validated: 1
EndChar

StartChar: uni0E03
Encoding: 3587 3587 48
Width: 615
VWidth: 0
Flags: W
HStem: -12 85<309.897 420.103> 298 55<112.499 187.364> 433 50<113.112 186> 551 55<110.469 186.555>
VStem: 30 60<449 532.614> 190 50<356.609 429> 195 100<87.9077 258.873> 320 75<369.281 540.983> 435 100<87.9077 590>
LayerCount: 2
Back
SplineSet
160 606 m 0xfac0
 211 606 233 583 251 550 c 1
 270 603 l 1
 310 603 l 1
 367 586 400 528 400 446 c 0
 400 338 290 269 290 170 c 2
 290 150 l 2
 290 122 291 73 365 73 c 0
 439 73 440 122 440 150 c 2
 440 590 l 1
 540 590 l 1
 540 150 l 2
 540 112 537 -12 365 -12 c 0
 193 -12 190 112 190 150 c 2
 190 170 l 2xfcc0
 190 300 320 376 320 470 c 0
 320 520 308 535 299 543 c 1
 275 466 l 1
 230 466 l 1xf9c0
 230 503 198 541 160 541 c 0
 128 541 106 510 101 472 c 1
 115 481 132 486 150 486 c 0
 200 486 240 446 240 396 c 0
 240 346 200 306 150 306 c 0
 79 306 30 365 30 456 c 0
 30 533 89 606 160 606 c 0xfac0
150 436 m 0
 128 436 110 418 110 396 c 0
 110 374 128 356 150 356 c 0
 172 356 190 374 190 396 c 0xfac0
 190 418 172 436 150 436 c 0
EndSplineSet
Fore
SplineSet
149 606 m 0xfd80
 209 606 224 543 224 543 c 1
 261 606 l 1
 289 606 l 1
 346 589 395 526 395 444 c 0
 395 313 295 262 295 194 c 2
 295 140 l 2
 295 112 310 73 365 73 c 0
 420 73 435 112 435 140 c 2
 435 590 l 1
 535 590 l 1
 535 140 l 2
 535 102 523 -12 365 -12 c 0
 207 -12 195 102 195 140 c 2
 195 194 l 2xfb80
 195 291 320 347 320 444 c 0
 320 500 307 526 283 556 c 1
 243 484 l 1
 201 484 l 1
 194 507 187 551 147 551 c 0
 109 551 90 492 90 449 c 1
 102 466 122 483 150 483 c 0
 200 483 240 443 240 393 c 0
 240 343 200 298 150 298 c 0
 79 298 30 357 30 448 c 1
 31 497 61 606 149 606 c 0xfd80
150 433 m 0
 128 433 110 415 110 393 c 0
 110 371 128 353 150 353 c 0
 172 353 190 371 190 393 c 0xfd80
 190 415 172 433 150 433 c 0
EndSplineSet
Validated: 1
EndChar

StartChar: uni0E04
Encoding: 164 3588 0
Width: 630
VWidth: 0
Flags: W
HStem: 0 21G<100 215 455 550> 227 55<269.37 349.708> 372 55<269.755 349.708> 527 85<226.287 394.281>
VStem: 70 90<241.776 460.829> 107 108<0 237.513> 355 55<287.292 366.708> 455 95<0 464.314>
LayerCount: 2
Back
SplineSet
300 612 m 4
 432.549 612 540 504.549 540 372 c 6
 540 0 l 5
 440 0 l 5
 440 372 l 6
 440 454.843 377.32 522 300 522 c 4
 222.68 522 160 454.843 160 372 c 6
 160 0 l 5
 60 0 l 5
 60 372 l 6
 60 504.549 167.451 612 300 612 c 4
EndSplineSet
Fore
SplineSet
310 612 m 0xfb
 443 612 550 529 550 372 c 2
 550 0 l 1
 455 0 l 1
 455 372 l 2
 455 476 388 527 310 527 c 0
 232 527 160 471 160 372 c 0xfb
 160 330 166 274 173 240 c 1
 183 284 196 343 220 377 c 0
 240 407 272 427 310 427 c 0
 365 427 410 382 410 327 c 0
 410 272 365 227 310 227 c 0
 284 227 261 237 243 253 c 1
 219 171 215 79 215 0 c 1
 100 0 l 1
 105 38 107 69 107 96 c 0xf7
 107 213 70 247 70 372 c 0
 70 505 177 612 310 612 c 0xfb
310 372 m 0
 285 372 265 352 265 327 c 0
 265 302 285 282 310 282 c 0
 335 282 355 302 355 327 c 0
 355 352 335 372 310 372 c 0
EndSplineSet
Validated: 1
EndChar

StartChar: uni0E06
Encoding: 3590 3590 44
Width: 630
VWidth: 0
Flags: W
HStem: -6 70<134.838 215.162> 154 70<134.838 205.387> 298 55<112.499 187.364> 433 50<113.112 186> 551 55<110.469 186.555>
VStem: 30 60<449 532.614> 60 70<68.8382 149.162> 190 50<356.609 429> 220 70<69.264 114.761> 320 75<367.919 540.983> 450 100<85 590>
LayerCount: 2
Fore
SplineSet
149 606 m 0xfd60
 209 606 224 543 224 543 c 1
 261 606 l 1
 289 606 l 1
 346 589 395 526 395 444 c 0
 395 315 298 263 295 197 c 1
 362 163 407 127 450 85 c 1
 450 590 l 1
 550 590 l 1
 550 80 l 2
 550 17 501 -6 440 -6 c 1
 394 42 339 88 290 115 c 1
 290 109 l 2
 290 45 239 -6 175 -6 c 0
 111 -6 60 45 60 109 c 0xfae0
 60 173 111 224 175 224 c 0
 184 224 193 221 200 220 c 1
 220 301 320 357 320 444 c 0
 320 500 307 526 283 556 c 1
 243 484 l 1
 201 484 l 1
 194 507 187 551 147 551 c 0
 109 551 90 492 90 449 c 1
 102 466 122 483 150 483 c 0
 200 483 240 443 240 393 c 0
 240 343 200 298 150 298 c 0
 79 298 30 357 30 448 c 1
 31 497 61 606 149 606 c 0xfd60
150 433 m 0
 128 433 110 415 110 393 c 0
 110 371 128 353 150 353 c 0
 172 353 190 371 190 393 c 0xf960
 190 415 172 433 150 433 c 0
175 154 m 0
 150 154 130 134 130 109 c 0
 130 84 150 64 175 64 c 0
 200 64 220 84 220 109 c 0xfae0
 220 134 200 154 175 154 c 0
EndSplineSet
Validated: 1
EndChar

StartChar: uni0E07
Encoding: 167 3591 57
Width: 560
VWidth: 0
Flags: W
HStem: -12 21G<325.217 386> 386 65<329.563 379.111> 541 65<329.488 410.512>
VStem: 260 65<455.488 536.512> 380 100<94.9472 386> 415 65<455.412 536.437>
LayerCount: 2
Back
SplineSet
350 606 m 4xf0
 411 606 460 557 460 496 c 6xe8
 460 114 l 6
 460 45 402 -12 320 -12 c 5
 242 150 161 267 30 370 c 5
 80 445 l 5
 200 358 305 212 360 94 c 5
 360 386 l 5
 350 386 l 6
 289 386 240 435 240 496 c 4
 240 557 289 606 350 606 c 4xf0
350 541 m 4
 325 541 305 521 305 496 c 4
 305 471 325 451 350 451 c 4
 375 451 395 471 395 496 c 4
 395 521 375 541 350 541 c 4
EndSplineSet
Fore
SplineSet
370 606 m 0xf8
 431 606 480 557 480 496 c 2xf4
 480 114 l 2
 480 45 432 -12 340 -12 c 1
 0 448 l 1
 120 448 l 1
 380 94 l 1
 380 386 l 1
 370 386 l 2
 309 386 260 435 260 496 c 0
 260 557 309 606 370 606 c 0xf8
370 541 m 0
 345 541 325 521 325 496 c 0
 325 471 345 451 370 451 c 0
 395 451 415 471 415 496 c 0
 415 521 395 541 370 541 c 0
EndSplineSet
Validated: 1
EndChar

StartChar: uni0E08
Encoding: 3592 3592 74
Width: 590
VWidth: 0
Flags: W
HStem: -6 21G<395 429.848> 200 60<184.269 265.537> 350 60<184.269 264.359> 527 85<193.944 363.636>
VStem: 50 105<434 488.27> 120 60<264.269 345.731> 410 100<220 481.082>
LayerCount: 2
Back
SplineSet
245 612 m 4xf4
 378 612 480 554 480 372 c 6xf4
 480 54 l 6
 480 -8 360 -12 360 -12 c 5
 360 54 l 6xf8
 360 126 326 224 291 278 c 5
 275 249 250 230 210 230 c 4
 155 230 110 275 110 330 c 4
 110 385 155 430 210 430 c 4
 303 430 348 334 380 250 c 5
 380 372 l 6
 380 480 336 527 245 527 c 4
 160 527 101 497 55 455 c 5
 20 528 l 5
 53 558 130 612 245 612 c 4xf4
210 375 m 4
 188 375 165 352 165 330 c 4
 165 308 188 285 210 285 c 4
 232 285 255 308 255 330 c 4
 255 352 232 375 210 375 c 4
EndSplineSet
Fore
SplineSet
280 612 m 0xfa
 433 612 510 513 510 402 c 2
 510 60 l 2
 510 -2 395 -6 395 -6 c 1
 395 36 l 2
 395 103 371 188 313 257 c 1
 301 232 272 200 225 200 c 0
 167 200 120 247 120 305 c 0xf6
 120 363 167 410 225 410 c 0
 309 410 377 304 410 220 c 1
 410 402 l 2
 410 470 365 527 280 527 c 0
 195 527 155 475 155 434 c 1
 50 434 l 1
 50 515 127 612 280 612 c 0xfa
225 350 m 0
 200 350 180 330 180 305 c 0
 180 280 200 260 225 260 c 0
 250 260 270 280 270 305 c 0
 270 330 250 350 225 350 c 0
EndSplineSet
Validated: 1
EndChar

StartChar: uni0E09
Encoding: 169 3593 96
Width: 630
VWidth: 0
Flags: W
HStem: -12 21G<239.5 281> -6 70<425.04 505.162> 220 55<131.172 170> 365 55<130.292 209.708> 527 85<167.176 389.265>
VStem: 70 55<280.292 359.708> 170 100<90 220> 215 55<279.412 358.828> 440 100<216 474.328> 510 70<68.8382 149.461>
LayerCount: 2
Fore
SplineSet
295 612 m 0xbe80
 428 612 540 554 540 372 c 2
 540 216 l 1xbe80
 525 207 l 1
 558 187 580 150 580 109 c 0
 580 45 529 -6 465 -6 c 0x7c40
 413 -6 369 28 355 75 c 1
 336 57 292 17 270 -12 c 1xbd40
 209 -12 170 27 170 90 c 2
 170 220 l 1
 115 220 70 265 70 320 c 0
 70 375 115 420 170 420 c 0xbe
 225 420 270 375 270 320 c 2xbd
 270 90 l 1
 298 131 388 203 440 225 c 1
 440 372 l 2
 440 480 386 527 295 527 c 0
 210 527 141 497 95 455 c 1
 60 528 l 1
 93 558 180 612 295 612 c 0xbe80
170 365 m 0
 145 365 125 345 125 320 c 0
 125 295 145 275 170 275 c 0x3e
 195 275 215 295 215 320 c 0x3d
 215 345 195 365 170 365 c 0
465 154 m 0
 440 154 420 134 420 109 c 0
 420 84 440 64 465 64 c 0
 490 64 510 84 510 109 c 0x7c40
 510 134 490 154 465 154 c 0
EndSplineSet
Validated: 1
EndChar

StartChar: uni0E0A
Encoding: 170 3594 54
Width: 600
VWidth: 0
Flags: W
HStem: -12 85<294.897 405.103> 326 55<114.987 194.623> 471 52<120.282 194.393> 551 55<131.396 261.415>
VStem: 50 60<385.997 465> 180 100<87.9077 275.759> 200 55<386.377 466.347> 420 100<87.9077 404.098> 480 100<595.693 680>
LayerCount: 2
Back
SplineSet
470 680 m 5xf480
 570 680 l 5xf2
 570 560 485 472 425 450 c 5
 425 450 510 418 510 330 c 6
 510 150 l 6xf1
 510 112 507 -12 335 -12 c 4
 163 -12 160 112 160 150 c 6
 160 170 l 6
 160 295 289 367 289 460 c 4xfa
 289 511 252 541 210 541 c 4
 198 541 191 540 180 536 c 5
 223 528 250 488 250 446 c 4
 250 391 205 346 150 346 c 4
 95 346 50 388 50 451 c 4
 50 550 131 606 210 606 c 4
 281 606 347 565 365 490 c 5
 420 540 470 609 470 680 c 5xf480
150 491 m 4
 126 491 105 470 105 446 c 4
 105 422 126 401 150 401 c 4
 174 401 195 422 195 446 c 4xf4
 195 470 174 491 150 491 c 4
366 414 m 5
 344 320 260 241 260 170 c 6
 260 150 l 6
 260 122 261 73 335 73 c 4
 409 73 410 122 410 150 c 6
 410 330 l 6xf9
 410 365 389 394 366 414 c 5
EndSplineSet
Fore
SplineSet
480 680 m 1xfa80
 580 680 l 1xfa80
 580 557 485 497 425 475 c 1
 425 475 520 416 520 360 c 2
 520 140 l 2
 520 102 508 -12 350 -12 c 0
 192 -12 180 102 180 140 c 2
 180 194 l 2xfd
 180 318 294 347 294 444 c 0
 294 503 254 551 196 551 c 0
 159 551 132 532 120 511 c 1
 120 511 137 523 159 523 c 0
 210 523 255 491 255 426 c 0
 255 371 210 326 155 326 c 0
 100 326 50 378 50 441 c 0
 50 540 122 606 204 606 c 0
 273 606 327 566 352 514 c 1
 424 548 480 600 480 680 c 1xfa80
155 471 m 0
 131 471 110 450 110 426 c 0
 110 402 131 381 155 381 c 0
 179 381 200 402 200 426 c 0
 200 450 179 471 155 471 c 0
368 427 m 1
 361 311 280 284 280 194 c 2
 280 140 l 2
 280 112 295 73 350 73 c 0
 405 73 420 112 420 140 c 2
 420 360 l 2xfd
 420 380 396 408 368 427 c 1
EndSplineSet
Validated: 1
Substitution2: "Ascent Substitute" uni0E0A.alt
EndChar

StartChar: uni0E0B
Encoding: 171 3595 52
Width: 620
VWidth: 0
Flags: W
HStem: -12 85<301.822 428.178> 306 50<114.317 186> 436 50<113.318 186> 541 65<117.676 211.262>
VStem: 30 80<359.189 495.132> 190 100<85.4573 253.434> 190 50<360 432> 230 45<466 492.95> 320 280<470 680> 440 100<85.4573 394.196> 500 100<587.134 680>
LayerCount: 2
Fore
SplineSet
500 680 m 1xfa20
 600 680 l 1xf880
 600 560 515 472 455 450 c 1
 455 450 540 418 540 330 c 2
 540 150 l 2
 540 112 537 -12 365 -12 c 0
 193 -12 190 112 190 150 c 2
 190 170 l 2xfc40
 190 300 320 376 320 470 c 0
 320 520 308 535 299 543 c 1
 275 466 l 1
 230 466 l 1xf980
 230 503 198 541 160 541 c 0
 128 541 106 510 101 472 c 1
 115 481 132 486 150 486 c 0
 200 486 240 446 240 396 c 0
 240 346 200 306 150 306 c 0
 79 306 30 365 30 456 c 0
 30 533 89 606 160 606 c 0
 211 606 233 583 251 550 c 1
 270 603 l 1
 310 603 l 1
 356 589 386 550 396 491 c 1
 451 541 500 610 500 680 c 1xfa20
150 436 m 0
 128 436 110 418 110 396 c 0
 110 374 128 356 150 356 c 0
 172 356 190 374 190 396 c 0xfa
 190 418 172 436 150 436 c 0
396 414 m 1
 374 320 290 256 290 170 c 2
 290 150 l 2
 290 122 291 73 365 73 c 0
 439 73 440 122 440 150 c 2
 440 330 l 2xfc40
 440 365 419 394 396 414 c 1
EndSplineSet
Validated: 1
Substitution2: "Ascent Substitute" uni0E0B.alt
EndChar

StartChar: uni0E0C
Encoding: 172 3596 95
Width: 850
VWidth: 0
Flags: W
HStem: -6 70<173.531 246.469 424.838 505.162> 144 70<200.034 245.376> 527 85<209.743 373.379>
VStem: 100 100<214 361.767> 100 70<68.6236 141.563> 250 70<67.5305 140.469> 350 70<68.8382 148.882> 430 100<207.762 469.733> 510 70<69.264 109> 670 100<85 590>
LayerCount: 2
Fore
SplineSet
290 612 m 0xf640
 423 612 530 529 530 372 c 2
 530 220 l 1xf740
 582 196 642 134 670 85 c 1
 670 590 l 1
 770 590 l 1
 770 80 l 2
 770 17 721 -6 660 -6 c 1
 645 23 609 83 580 109 c 1xe6c0
 580 45 529 -6 465 -6 c 0
 401 -6 350 45 350 109 c 0
 350 161 383 204 430 219 c 1
 430 372 l 2
 430 476 368 527 290 527 c 0
 232 527 179 493 160 440 c 1
 260 415 l 1
 260 415 200 352 200 290 c 0
 200 265 200 239 200 214 c 1xf740
 210 214 l 2
 271 214 320 165 320 104 c 0
 320 43 271 -6 210 -6 c 0
 149 -6 100 43 100 104 c 0xee40
 100 159 100 215 100 270 c 0
 100 354 150 390 150 390 c 1
 50 410 l 1
 78 500 159 612 290 612 c 0xf640
465 154 m 0
 440 154 420 134 420 109 c 0
 420 84 440 64 465 64 c 0
 490 64 510 84 510 109 c 0xe6c0
 510 134 490 154 465 154 c 0
210 144 m 0
 188 144 170 126 170 104 c 0xee40
 170 82 188 64 210 64 c 0
 232 64 250 82 250 104 c 0
 250 126 232 144 210 144 c 0
EndSplineSet
Validated: 1
EndChar

StartChar: uni0E0E
Encoding: 174 3598 58
Width: 640
VWidth: 0
Flags: W
HStem: -340 65<169.488 250.488> -185 65<169.488 250.018> -6 70<113.153 187.452> 144 70<114.624 159.966> 527 85<239.743 403.379>
VStem: 40 70<67.5305 140.469> 100 65<-270.512 -189.488> 160 100<214 371.255> 190 70<68.6236 141.563> 300 80<-154.396 -100> 460 100<-263.374 469.733>
LayerCount: 2
Fore
SplineSet
320 612 m 0xfd60
 453 612 560 529 560 372 c 2
 560 -260 l 2
 560 -333 440 -340 440 -340 c 1
 440 -340 380 -305 320 -265 c 1
 297 -312 263 -340 210 -340 c 0
 149 -340 100 -291 100 -230 c 0
 100 -169 149 -120 210 -120 c 0
 266 -120 288 -155 288 -155 c 1
 288 -155 300 -132 300 -100 c 1
 380 -100 l 1
 380 -134 364 -183 350 -198 c 1
 406 -235 460 -265 460 -265 c 1
 460 372 l 2
 460 476 398 527 320 527 c 0
 262 527 209 493 190 440 c 1xfae0
 310 415 l 1
 310 415 261 352 260 290 c 1xf960
 260 104 l 2xf8e0
 260 43 216 -6 155 -6 c 0
 94 -6 40 43 40 104 c 0
 40 165 89 214 150 214 c 2
 160 214 l 1
 160 270 l 2
 160 354 200 390 200 390 c 1
 80 410 l 1
 108 500 189 612 320 612 c 0xfd60
150 144 m 0
 128 144 110 126 110 104 c 0xfce0
 110 82 128 64 150 64 c 0
 172 64 190 82 190 104 c 0
 190 126 172 144 150 144 c 0
210 -185 m 0
 185 -185 165 -205 165 -230 c 0xfa60
 165 -255 185 -275 210 -275 c 0
 235 -275 255 -255 255 -230 c 0
 255 -205 235 -185 210 -185 c 0
EndSplineSet
Validated: 1
Substitution2: "Descent Shorten" uni0E0E.shorten
EndChar

StartChar: uni0E0F
Encoding: 175 3599 76
Width: 640
VWidth: 0
Flags: W
HStem: -340 55<61.3707 148.66> -185 55<61.3707 149.121> -6 70<113.153 187.452> 144 70<114.624 159.966> 527 85<239.743 403.379>
VStem: 0 55<-278.629 -191.371> 40 70<67.5305 140.469> 160 100<214 371.255> 190 70<68.6236 141.563> 209 65<-175.25 -120> 460 100<-260 469.733>
LayerCount: 2
Fore
SplineSet
320 612 m 0xfb20
 453 612 560 529 560 372 c 2
 560 -260 l 2
 560 -333 440 -340 440 -340 c 1
 365 -215 l 1
 295 -334 l 1
 240 -334 l 1
 199 -282 l 1
 182 -316 146 -340 105 -340 c 0
 47 -340 0 -293 0 -235 c 0
 0 -177 47 -130 105 -130 c 0
 141 -130 173 -148 192 -176 c 1
 204 -160 209 -144 209 -120 c 1
 274 -120 l 1xfc60
 274 -168 257 -199 231 -224 c 1
 265 -270 l 1
 349 -130 l 1
 380 -130 l 1
 460 -260 l 1
 460 372 l 2
 460 476 398 527 320 527 c 0
 262 527 209 493 190 440 c 1xf8a0
 310 415 l 1
 310 415 261 352 260 290 c 1xf920
 260 104 l 2xf8a0
 260 43 216 -6 155 -6 c 0
 94 -6 40 43 40 104 c 0
 40 165 89 214 150 214 c 2
 160 214 l 1
 160 270 l 2
 160 354 200 390 200 390 c 1
 80 410 l 1
 108 500 189 612 320 612 c 0xfb20
150 144 m 0
 128 144 110 126 110 104 c 0
 110 82 128 64 150 64 c 0
 172 64 190 82 190 104 c 0xfaa0
 190 126 172 144 150 144 c 0
105 -185 m 0
 77 -185 55 -207 55 -235 c 0xfc20
 55 -263 77 -285 105 -285 c 0
 133 -285 155 -263 155 -235 c 0
 155 -207 133 -185 105 -185 c 0
EndSplineSet
Validated: 1
Substitution2: "Descent Shorten" uni0E0F.shorten
EndChar

StartChar: uni0E10
Encoding: 3600 3600 70
Width: 580
VWidth: 0
Flags: W
HStem: -340 50<94 166.95> -210 50<94 166.756> -210 40<413.54 445> -100 40<413.912 476.088> -6 21<340 376.364> 140 60<147.932 221.908> 280 60<147.932 221.806> 515 85<460.526 520> 537 75<194.611 367.823>
VStem: 40 50<-286 -214> 60 100<456.486 500.022> 85 60<202.932 277.068> 210 60<-189.461 -120> 360 100<175 351.443> 370 40<-165.873 -103.912> 445 75<-284.396 -210> 480 40<-166.492 -104.316>
LayerCount: 2
Fore
SplineSet
445 -60 m 0xbe4b
 486 -60 520 -94 520 -135 c 2xbe0880
 520 -260 l 2
 520 -333 425 -340 425 -340 c 1
 342 -255 l 1
 303 -334 l 1
 256 -334 l 1
 212 -287 l 1
 198 -318 167 -340 130 -340 c 0
 80 -340 40 -300 40 -250 c 0
 40 -200 80 -160 130 -160 c 0xde49
 157 -160 181 -172 198 -191 c 1
 205 -172 210 -145 210 -120 c 1
 270 -120 l 1
 270 -166 251 -214 235 -240 c 1
 275 -285 l 1
 315 -200 l 1
 358 -200 l 1
 445 -287 l 1
 445 -210 l 1
 406 -210 370 -175 370 -135 c 0
 370 -94 404 -60 445 -60 c 0xbe4b
445 -100 m 0xbe09
 426 -100 410 -116 410 -135 c 0
 410 -154 426 -170 445 -170 c 0xbe0b
 464 -170 480 -154 480 -135 c 0xbe0880
 480 -116 464 -100 445 -100 c 0xbe09
130 -210 m 0xde48
 108 -210 90 -228 90 -250 c 0
 90 -272 108 -290 130 -290 c 0
 152 -290 170 -272 170 -250 c 0
 170 -228 152 -210 130 -210 c 0xde48
EndSplineSet
Refer: 18 63232 N 1 0 0 1 0 0 2
Validated: 1
Substitution2: "Descent Substitute" uni0E10.descless
EndChar

StartChar: uni0E13
Encoding: 3603 3603 73
Width: 850
VWidth: 0
Flags: W
HStem: -6 70<173.531 246.469 655.04 735.162> 144 70<200.034 245.376> 527 85<209.743 373.379>
VStem: 100 100<214 361.767> 100 70<68.6236 141.563> 250 70<67.5305 140.469> 430 100<110 469.733> 670 100<224.762 590> 740 70<68.8382 149.461>
LayerCount: 2
Fore
SplineSet
290 612 m 0xf6
 423 612 530 529 530 372 c 0
 530 283 530 199 530 110 c 1
 550 151 612 217 670 235 c 1
 670 590 l 1
 770 590 l 1
 770 216 l 1xf7
 755 207 l 1
 788 187 810 150 810 109 c 0
 810 45 759 -6 695 -6 c 0
 643 -6 599 28 585 75 c 1
 569 57 547 23 530 -6 c 1
 469 -6 430 27 430 90 c 0
 430 184 430 278 430 372 c 0
 430 476 368 527 290 527 c 0
 232 527 179 493 160 440 c 1
 260 415 l 1
 260 415 200 352 200 290 c 2
 200 214 l 1xf680
 210 214 l 2
 271 214 320 165 320 104 c 0
 320 43 271 -6 210 -6 c 0
 149 -6 100 43 100 104 c 2xee
 100 270 l 2
 100 354 150 390 150 390 c 1
 50 410 l 1
 78 500 159 612 290 612 c 0xf6
695 154 m 0
 670 154 650 134 650 109 c 0
 650 84 670 64 695 64 c 0
 720 64 740 84 740 109 c 0xe680
 740 134 720 154 695 154 c 0
210 144 m 0
 188 144 170 126 170 104 c 0xee
 170 82 188 64 210 64 c 0
 232 64 250 82 250 104 c 0
 250 126 232 144 210 144 c 0
EndSplineSet
Validated: 1
EndChar

StartChar: uni0E14
Encoding: 180 3604 3
Width: 630
VWidth: 0
Flags: W
HStem: 0 21G<100 208 455 550> 372 55<270.292 349.708> 527 85<226.287 394.281>
VStem: 70 90<208.682 460.829> 107 101<0 57.9608> 210 55<286.947 366.708> 355 55<289.174 366.708> 455 95<0 464.314>
LayerCount: 2
Back
SplineSet
300 612 m 4
 433 612 540 505 540 372 c 6
 540 0 l 5
 440 0 l 5
 440 372 l 6
 440 455 377 522 300 522 c 4
 223 522 160 455 160 372 c 6
 160 0 l 5
 60 0 l 5
 60 372 l 6
 60 505 167 612 300 612 c 4
EndSplineSet
Fore
SplineSet
310 612 m 0xf7
 443 612 550 529 550 372 c 2
 550 0 l 1
 455 0 l 1
 455 372 l 2
 455 476 388 527 310 527 c 0
 232 527 160 471 160 372 c 0xf7
 160 278 189 209 203 138 c 1
 235 166 269 195 293 228 c 1
 246 236 210 277 210 327 c 0
 210 382 255 427 310 427 c 0
 365 427 410 382 410 327 c 0
 410 172 208 88 208 0 c 1
 100 0 l 1
 105 38 107 69 107 96 c 0xef
 107 213 70 247 70 372 c 0
 70 505 177 612 310 612 c 0xf7
310 372 m 0
 285 372 265 352 265 327 c 0
 265 302 285 282 310 282 c 0
 335 282 355 302 355 327 c 0
 355 352 335 372 310 372 c 0
EndSplineSet
Validated: 1
EndChar

StartChar: uni0E16
Encoding: 182 3606 6
Width: 610
VWidth: 0
Flags: W
HStem: -6 70<173.531 246.469> 144 70<200.034 245.376> 527 85<209.743 373.379>
VStem: 100 100<214 361.767> 100 70<68.6236 141.563> 250 70<67.5305 140.469> 430 100<0 469.733>
LayerCount: 2
Back
SplineSet
300 612 m 4
 433 612 540 505 540 372 c 6
 540 0 l 5
 440 0 l 5
 440 372 l 6
 440 455 377 522 300 522 c 4
 223 522 160 455 160 372 c 6
 160 0 l 5
 60 0 l 5
 60 372 l 6
 60 505 167 612 300 612 c 4
EndSplineSet
Fore
SplineSet
200 214 m 1xf6
 210 214 l 2
 271 214 320 165 320 104 c 0
 320 43 271 -6 210 -6 c 0
 149 -6 100 43 100 104 c 2xee
 100 270 l 2
 100 354 150 390 150 390 c 1
 50 410 l 1
 78 500 159 612 290 612 c 0
 423 612 530 529 530 372 c 2
 530 0 l 1
 430 0 l 1
 430 372 l 2
 430 476 368 527 290 527 c 0
 232 527 179 493 160 440 c 1
 260 415 l 1
 260 415 200 352 200 290 c 2
 200 214 l 1xf6
210 144 m 0
 188 144 170 126 170 104 c 0
 170 82 188 64 210 64 c 0
 232 64 250 82 250 104 c 0
 250 126 232 144 210 144 c 0
EndSplineSet
Validated: 1
EndChar

StartChar: uni0E17
Encoding: 183 3607 67
Width: 640
VWidth: 0
Flags: W
HStem: 0 21G<160 270 460 560> 386 65<109.563 159.111> 541 65<109.488 190.512>
VStem: 40 65<455.488 536.512> 160 110<0 199.186> 160 100<315 386> 195 65<455.412 536.437> 460 100<0 498.624>
LayerCount: 2
Back
SplineSet
130 606 m 4xf5
 191 606 240 557 240 496 c 6xf3
 240 281 l 5xf5
 410 596 l 5
 492 596 550 549 550 460 c 6
 550 0 l 5
 450 0 l 5
 450 500 l 5
 450 500 250 163 250 70 c 6
 250 0 l 5
 140 0 l 5xf9
 140 386 l 5
 130 386 l 6
 69 386 20 435 20 496 c 4
 20 557 69 606 130 606 c 4xf5
130 541 m 4
 105 541 85 521 85 496 c 4
 85 471 105 451 130 451 c 4
 155 451 175 471 175 496 c 4
 175 521 155 541 130 541 c 4
EndSplineSet
Fore
SplineSet
150 606 m 0xf5
 211 606 260 557 260 496 c 2xf3
 260 315 l 1xf5
 305 411 348 495 430 596 c 1
 512 596 560 549 560 460 c 2
 560 0 l 1
 460 0 l 1
 460 500 l 1
 399 425 270 197 270 80 c 2
 270 0 l 1
 160 0 l 1xf9
 160 386 l 1
 150 386 l 2
 89 386 40 435 40 496 c 0
 40 557 89 606 150 606 c 0xf5
150 541 m 0
 125 541 105 521 105 496 c 0
 105 471 125 451 150 451 c 0
 175 451 195 471 195 496 c 0
 195 521 175 541 150 541 c 0
EndSplineSet
Validated: 1
EndChar

StartChar: uni0E1E
Encoding: 3614 3614 36
Width: 690
VWidth: 0
Flags: W
HStem: -6 21G<244 280.44 479.56 516> 386 65<99.5633 149.111> 541 65<99.4878 180.512>
VStem: 30 65<455.488 536.512> 150 100<121 386> 185 65<455.412 536.437> 510 100<120 590>
LayerCount: 2
Back
SplineSet
130 606 m 4xf4
 191 606 240 557 240 496 c 6xec
 240 130 l 5
 370 540 l 5
 500 130 l 5
 500 590 l 5
 600 590 l 5
 600 120 l 6
 600 51 552 -6 470 -6 c 5
 370 300 l 5
 270 -6 l 5
 188 -6 140 51 140 120 c 6
 140 386 l 5
 130 386 l 6
 69 386 20 435 20 496 c 4
 20 557 69 606 130 606 c 4xf4
130 541 m 4
 105 541 85 521 85 496 c 4
 85 471 105 451 130 451 c 4
 155 451 175 471 175 496 c 4
 175 521 155 541 130 541 c 4
EndSplineSet
Fore
SplineSet
140 606 m 0xfa
 201 606 250 557 250 496 c 2xf6
 250 121 l 1
 355 500 l 1
 405 500 l 1
 510 120 l 1
 510 590 l 1
 610 590 l 1
 610 91 l 2
 610 6 547 -6 485 -6 c 1
 380 380 l 1
 275 -6 l 1
 213 -6 150 8 150 91 c 2
 150 386 l 1
 140 386 l 2
 79 386 30 435 30 496 c 0
 30 557 79 606 140 606 c 0xfa
140 541 m 0
 115 541 95 521 95 496 c 0
 95 471 115 451 140 451 c 0
 165 451 185 471 185 496 c 0
 185 521 165 541 140 541 c 0
EndSplineSet
Validated: 1
EndChar

StartChar: uni0E1F
Encoding: 191 3615 37
Width: 670
VWidth: 0
Flags: W
HStem: 386 65<99.5633 149.111> 541 65<99.4878 180.512>
VStem: 30 65<455.488 536.512> 150 100<151 386> 185 65<455.412 536.437> 490 100<150 860>
LayerCount: 2
Fore
SplineSet
140 606 m 0xf4
 201 606 250 557 250 496 c 2xec
 250 151 l 1
 345 450 l 1
 395 450 l 1
 490 150 l 1
 490 860 l 1
 590 860 l 1
 590 100 l 2
 590 15 542 -6 480 -6 c 1
 370 330 l 1
 260 -6 l 1
 198 -6 150 17 150 100 c 2
 150 386 l 1
 140 386 l 2
 79 386 30 435 30 496 c 0
 30 557 79 606 140 606 c 0xf4
140 541 m 0
 115 541 95 521 95 496 c 0
 95 471 115 451 140 451 c 0
 165 451 185 471 185 496 c 0
 185 521 165 541 140 541 c 0
EndSplineSet
Validated: 1
EndChar

StartChar: uni0E20
Encoding: 3616 3616 8
Width: 640
VWidth: 0
Flags: W
HStem: -6 70<113.531 186.469> 144 70<114.624 159.966> 527 85<239.743 403.379>
VStem: 40 70<67.5305 140.469> 160 100<214 371.255> 190 70<68.6236 141.563> 460 100<0 469.733>
LayerCount: 2
Back
SplineSet
300 612 m 4
 433 612 540 505 540 372 c 6
 540 0 l 5
 440 0 l 5
 440 372 l 6
 440 455 377 522 300 522 c 4
 223 522 160 455 160 372 c 6
 160 0 l 5
 60 0 l 5
 60 372 l 6
 60 505 167 612 300 612 c 4
EndSplineSet
Fore
SplineSet
320 612 m 0xfa
 453 612 560 529 560 372 c 2
 560 0 l 1
 460 0 l 1
 460 372 l 2
 460 476 398 527 320 527 c 0
 262 527 209 493 190 440 c 1xf6
 310 415 l 1
 310 415 261 352 260 290 c 1xfa
 260 104 l 2xf6
 260 43 211 -6 150 -6 c 0
 89 -6 40 43 40 104 c 0
 40 165 89 214 150 214 c 2
 160 214 l 1
 160 270 l 2
 160 354 200 390 200 390 c 1
 80 410 l 1
 108 500 189 612 320 612 c 0xfa
150 144 m 0
 128 144 110 126 110 104 c 0
 110 82 128 64 150 64 c 0
 172 64 190 82 190 104 c 0
 190 126 172 144 150 144 c 0
EndSplineSet
Validated: 1
EndChar

StartChar: uni0E21
Encoding: 3617 3617 43
Width: 630
VWidth: 0
Flags: W
HStem: -6 70<134.838 215.162> 154 70<135.264 179.625> 386 65<129.563 179.111> 541 65<129.488 210.512>
VStem: 60 70<68.8382 149.162 453.214 538.786> 180 100<224 386> 215 65<455.412 536.437> 220 70<69.264 114.761> 450 100<85 590>
LayerCount: 2
Fore
SplineSet
170 606 m 0xfc80
 231 606 280 557 280 496 c 2
 280 205 l 1xfa80
 355 169 404 130 450 85 c 1
 450 590 l 1
 550 590 l 1
 550 80 l 2
 550 17 501 -6 440 -6 c 1
 394 42 339 88 290 115 c 1
 290 113 290 111 290 109 c 0xf980
 290 45 239 -6 175 -6 c 0
 111 -6 60 45 60 109 c 0
 60 173 111 224 175 224 c 0
 177 224 178 224 180 224 c 1
 180 386 l 1
 170 386 l 2
 109 386 60 435 60 496 c 0
 60 557 109 606 170 606 c 0xfc80
170 541 m 0
 145 541 125 521 125 496 c 0
 125 471 145 451 170 451 c 0
 195 451 215 471 215 496 c 0
 215 521 195 541 170 541 c 0
175 154 m 0
 150 154 130 134 130 109 c 0
 130 84 150 64 175 64 c 0
 200 64 220 84 220 109 c 0xf980
 220 134 200 154 175 154 c 0
EndSplineSet
Validated: 1
EndChar

StartChar: uni0E22
Encoding: 194 3618 49
Width: 600
VWidth: 0
Flags: W
HStem: -12 85<202.925 404.499> 282 75<217 330> 386 65<185.218 245.512> 541 65<164.456 245.512>
VStem: 70 100<105.514 240.062> 80 80<421.519 536.805> 250 65<455.488 536.512> 420 100<92.3669 590>
LayerCount: 2
Back
SplineSet
195 606 m 0xf7
 256 606 305 557 305 496 c 0
 305 435 256 386 195 386 c 0
 188 386 175 389 175 389 c 1
 198 356 247 357 301 357 c 1
 301 282 l 1
 213 282 160 219 160 170 c 0
 160 117 205 73 300 73 c 0
 355 73 429 102 430 180 c 1
 430 590 l 1
 530 590 l 1
 530 208 l 2
 530 46 433 -12 300 -12 c 0
 154 -12 60 55 60 170 c 0xfb
 60 225 86 278 150 325 c 1
 105 358 70 395 70 486 c 0
 70 547 117 606 195 606 c 0xf7
195 541 m 0
 170 541 150 521 150 496 c 0xf7
 150 471 170 451 195 451 c 0
 220 451 240 471 240 496 c 0
 240 521 220 541 195 541 c 0
EndSplineSet
Fore
SplineSet
205 606 m 0xf7
 266 606 315 557 315 496 c 0
 315 435 266 386 205 386 c 0
 198 386 185 389 185 389 c 1
 208 359 276 357 330 357 c 1
 330 282 l 1
 242 282 170 253 170 170 c 0
 170 117 205 73 300 73 c 0
 386 73 420 110 420 110 c 1
 420 590 l 1
 520 590 l 1
 520 50 l 1
 520 50 439 -12 300 -12 c 0
 154 -12 70 55 70 170 c 0xfb
 70 225 92 285 165 325 c 1
 107 356 80 409 80 481 c 0
 80 542 127 606 205 606 c 0xf7
205 541 m 0
 180 541 160 521 160 496 c 0xf7
 160 471 180 451 205 451 c 0
 230 451 250 471 250 496 c 0
 250 521 230 541 205 541 c 0
EndSplineSet
Validated: 1
EndChar

StartChar: uni0E24
Encoding: 196 3620 62
Width: 610
VWidth: 0
Flags: W
HStem: -340 21G<430 530> -6 70<173.531 246.469> 144 70<200.034 245.376> 527 85<209.743 373.379>
VStem: 100 100<214 361.767> 100 70<68.6236 141.563> 250 70<67.5305 140.469> 430 100<-340 469.733>
LayerCount: 2
Fore
SplineSet
200 214 m 1xfb
 210 214 l 2
 271 214 320 165 320 104 c 0
 320 43 271 -6 210 -6 c 0
 149 -6 100 43 100 104 c 2xf7
 100 270 l 2
 100 354 150 390 150 390 c 1
 50 410 l 1
 78 500 159 612 290 612 c 0
 423 612 530 529 530 372 c 2
 530 -340 l 1
 430 -340 l 1
 430 372 l 2
 430 476 368 527 290 527 c 0
 232 527 179 493 160 440 c 1
 260 415 l 1
 260 415 200 352 200 290 c 2
 200 214 l 1xfb
210 144 m 0
 188 144 170 126 170 104 c 0
 170 82 188 64 210 64 c 0
 232 64 250 82 250 104 c 0
 250 126 232 144 210 144 c 0
EndSplineSet
Validated: 1
EndChar

StartChar: uni0E25
Encoding: 197 3621 26
Width: 610
VWidth: 0
Flags: W
HStem: -6 65<228.66 301.835> 139 65<227.551 301.835> 344 80<210.479 353.804> 527 85<173.994 388.484>
VStem: 70 90<149.344 293.721> 305 65<62.1654 135.835> 420 110<34.9796 272.291> 440 90<330 474.328>
LayerCount: 2
Back
SplineSet
295 612 m 0xfd
 428 612 530 554 530 372 c 2xfd
 530 60 l 2
 530 -2 420 -6 420 -6 c 1
 420 60 l 2xfe
 420 173 362 325 260 325 c 0
 205 325 160 272 160 200 c 0
 160 181 164 155 170 140 c 1
 186 174 220 199 260 199 c 0
 315 199 360 154 360 99 c 0
 360 45 323 -6 255 -6 c 0
 150 -6 70 84 70 200 c 0
 70 316 155 405 260 405 c 0
 359 405 415 341 440 260 c 1
 440 372 l 2
 440 480 386 527 295 527 c 0
 210 527 151 497 105 455 c 1
 70 528 l 1
 103 558 180 612 295 612 c 0xfd
260 139 m 0
 241 139 220 118 220 99 c 0
 220 80 241 59 260 59 c 0
 279 59 300 80 300 99 c 0
 300 118 279 139 260 139 c 0
EndSplineSet
Fore
SplineSet
295 612 m 4xfd
 428 612 530 554 530 372 c 6xfd
 530 60 l 6
 530 -2 420 -6 420 -6 c 5
 420 180 l 6xfe
 420 257 366 344 280 344 c 4
 214 344 160 286 160 209 c 4
 160 187 164 166 172 148 c 5
 190 181 225 204 265 204 c 4
 323 204 370 157 370 99 c 4
 370 41 323 -6 265 -6 c 4
 155 -6 70 74 70 209 c 4
 70 331 164 424 280 424 c 4
 356 424 413 381 440 330 c 5
 440 372 l 6
 440 480 386 527 295 527 c 4
 210 527 151 497 105 455 c 5
 70 528 l 5
 103 558 180 612 295 612 c 4xfd
265 139 m 4
 243 139 225 121 225 99 c 4
 225 77 243 59 265 59 c 4
 287 59 305 77 305 99 c 4
 305 121 287 139 265 139 c 4
EndSplineSet
Validated: 1
EndChar

StartChar: uni0E28
Encoding: 200 3624 7
Width: 630
VWidth: 0
Flags: W
HStem: 0 21G<100 215 455 550> 227 55<269.37 349.708> 372 55<269.755 349.708> 527 85<226.287 395.993>
VStem: 70 90<260.593 460.829> 107 108<0 245.284> 355 55<287.292 366.708> 455 95<0 466.746> 510 100<587.866 680>
LayerCount: 2
Back
SplineSet
620 620 m 5
 620 520 l 5
 582 520 544 508 513 493 c 5
 530 459 540 419 540 372 c 6
 540 0 l 5
 445 0 l 5
 445 372 l 6
 445 476 378 527 300 527 c 4
 222 527 150 471 150 372 c 4
 150 330 156 293 163 259 c 5
 173 303 186 343 210 377 c 4
 230 407 262 427 300 427 c 4
 355 427 400 382 400 327 c 4
 400 272 355 227 300 227 c 4
 274 227 251 237 233 253 c 5
 209 171 205 79 205 0 c 5
 90 0 l 5
 95 38 97 69 97 96 c 4
 97 213 60 247 60 372 c 4
 60 505 167 612 300 612 c 4
 360 612 414 595 456 562 c 5
 506 596 565 620 620 620 c 5
300 367 m 4
 278 367 260 349 260 327 c 4
 260 305 278 287 300 287 c 4
 322 287 340 305 340 327 c 4
 340 349 322 367 300 367 c 4
EndSplineSet
Fore
SplineSet
510 680 m 1xfa80
 610 680 l 1xfa80
 610 598 570 530 525 489 c 1
 541 456 550 417 550 372 c 2
 550 0 l 1
 455 0 l 1
 455 372 l 2
 455 476 388 527 310 527 c 0
 232 527 160 471 160 372 c 0xfb
 160 330 166 293 173 259 c 1
 183 303 196 343 220 377 c 0
 240 407 272 427 310 427 c 0
 365 427 410 382 410 327 c 0
 410 272 365 227 310 227 c 0
 284 227 261 237 243 253 c 1
 219 171 215 79 215 0 c 1
 100 0 l 1
 105 38 107 69 107 96 c 0xf6
 107 213 70 247 70 372 c 0
 70 505 177 612 310 612 c 0
 371 612 426 595 468 561 c 1
 493 598 510 639 510 680 c 1xfa80
310 372 m 0
 285 372 265 352 265 327 c 0
 265 302 285 282 310 282 c 0
 335 282 355 302 355 327 c 0
 355 352 335 372 310 372 c 0
EndSplineSet
Validated: 1
Substitution2: "Ascent Substitute" uni0E28.alt
EndChar

StartChar: uni0E29
Encoding: 201 3625 41
Width: 700
VWidth: 0
Flags: W
HStem: -12 85<274.291 465.786> 190 60<407.68 490> 386 65<99.5633 149.111> 400 50<334 406> 541 65<99.4878 180.512>
VStem: 30 65<455.488 536.512> 150 100<98.5881 386> 185 65<455.412 536.437> 280 50<325.04 396> 410 50<323.374 396> 490 100<98.5881 190 277 590> 640 80<301.215 380>
LayerCount: 2
Fore
SplineSet
140 606 m 0xeef0
 201 606 250 557 250 496 c 2xedf0
 250 160 l 1
 251 82 315 73 370 73 c 0
 425 73 489 82 490 160 c 1
 490 190 l 1
 424 190 280 235 280 360 c 0
 280 410 320 450 370 450 c 0xdef0
 420 450 460 410 460 360 c 0
 460 329 444 296 405 275 c 1
 435 250 464 250 490 250 c 1
 490 590 l 1
 590 590 l 1
 590 277 l 1
 622 301 640 329 640 380 c 1
 720 380 l 1
 720 305 678 242 590 201 c 1
 590 188 l 2
 590 26 503 -12 370 -12 c 0
 237 -12 151 26 150 188 c 1
 150 386 l 1
 140 386 l 2
 79 386 30 435 30 496 c 0
 30 557 79 606 140 606 c 0xeef0
140 541 m 0
 115 541 95 521 95 496 c 0
 95 471 115 451 140 451 c 0
 165 451 185 471 185 496 c 0
 185 521 165 541 140 541 c 0
370 400 m 0xdcf0
 348 400 330 382 330 360 c 0
 330 338 348 320 370 320 c 0
 392 320 410 338 410 360 c 0
 410 382 392 400 370 400 c 0xdcf0
EndSplineSet
Validated: 1
EndChar

StartChar: uni0E2A
Encoding: 3626 3626 29
Width: 610
VWidth: 0
Flags: W
HStem: -6 65<227.973 301.835> 139 65<227.517 301.835> 330 75<208.497 363.2> 527 85<213.944 383.609>
VStem: 60 100<131.222 280.635> 70 105<434 488.27> 305 65<62.1654 135.835> 430 100<32.19 261.775 320 481.082> 490 100<596.306 680>
LayerCount: 2
Back
SplineSet
600 620 m 5
 600 520 l 5
 564 520 528 510 498 495 c 5
 512 463 520 422 520 372 c 6
 520 60 l 6
 520 -2 410 -6 410 -6 c 5
 410 60 l 6
 410 173 352 325 250 325 c 4
 195 325 150 272 150 200 c 4
 150 181 154 155 160 140 c 5
 176 174 210 199 250 199 c 4
 305 199 350 154 350 99 c 4
 350 45 313 -6 245 -6 c 4
 140 -6 60 84 60 200 c 4
 60 316 145 405 250 405 c 4
 349 405 405 341 430 260 c 5
 430 372 l 6
 430 480 376 527 285 527 c 4
 200 527 141 497 95 455 c 5
 60 528 l 5
 93 558 170 612 285 612 c 4
 347 612 402 599 444 567 c 5
 492 598 548 620 600 620 c 5
250 134 m 4
 231 134 215 118 215 99 c 4
 215 80 231 64 250 64 c 4
 269 64 285 80 285 99 c 4
 285 118 269 134 250 134 c 4
EndSplineSet
Fore
SplineSet
490 680 m 1xf680
 590 680 l 1xf680
 590 598 548 544 502 511 c 1
 521 478 530 441 530 402 c 2
 530 60 l 2
 530 -4 430 -6 430 -6 c 1
 430 180 l 2
 430 230 386 330 285 330 c 0
 214 330 160 277 160 190 c 0xfb
 160 169 163 149 175 130 c 1xf6
 179 162 213 204 265 204 c 0
 323 204 370 157 370 99 c 0
 370 41 323 -6 265 -6 c 0
 151 -5 60 68 60 190 c 0
 60 314 147 405 275 405 c 0
 365 405 417 347 430 320 c 1
 430 402 l 2xfb
 430 470 385 527 300 527 c 0
 215 527 175 475 175 434 c 1
 70 434 l 1
 70 515 147 612 300 612 c 0
 360 612 409 597 445 571 c 1
 473 600 490 636 490 680 c 1xf680
265 139 m 0
 243 139 225 121 225 99 c 0
 225 77 243 59 265 59 c 0
 287 59 305 77 305 99 c 0
 305 121 287 139 265 139 c 0
EndSplineSet
Validated: 1
Substitution2: "Ascent Substitute" uni0E2A.alt
EndChar

StartChar: uni0E2B
Encoding: 3627 3627 59
Width: 640
VWidth: 0
Flags: W
HStem: 0 21G<160 270 460 560> 386 65<109.563 159.111> 541 65<109.488 190.512 437.044 522.956>
VStem: 40 65<455.488 536.512> 160 110<0 210.799> 160 100<295 386> 195 65<455.412 536.437> 370 65<461.269 542.512> 460 100<0 380> 525 65<461.2 542.512>
LayerCount: 2
Fore
SplineSet
480 612 m 0xf5
 541 612 590 563 590 502 c 0xf540
 590 460 566 423 531 404 c 1
 560 395 l 1
 560 0 l 1
 460 0 l 1
 460 380 l 1
 460 380 270 279 270 110 c 2
 270 0 l 1
 160 0 l 1xf980
 160 386 l 1xf5
 150 386 l 2
 89 386 40 435 40 496 c 0
 40 557 89 606 150 606 c 0
 211 606 260 557 260 496 c 2xf3
 260 295 l 1
 295 350 357 391 399 427 c 1
 381 447 370 473 370 502 c 0
 370 563 419 612 480 612 c 0xf5
480 547 m 0
 455 547 435 527 435 502 c 0
 435 477 455 457 480 457 c 0
 505 457 525 477 525 502 c 0
 525 527 505 547 480 547 c 0
150 541 m 0
 125 541 105 521 105 496 c 0
 105 471 125 451 150 451 c 0
 175 451 195 471 195 496 c 0xf3
 195 521 175 541 150 541 c 0
EndSplineSet
Validated: 1
EndChar

StartChar: uni0E2C
Encoding: 3628 3628 68
Width: 690
VWidth: 0
Flags: W
HStem: -6 21G<244 281.863 478.137 516> 386 65<99.5633 149.111> 430 60<473.427 510> 541 65<99.4878 180.512> 570 60<472.932 547.562>
VStem: 30 65<455.488 536.512> 150 100<110 386> 185 65<455.412 536.437> 410 60<492.932 567.068> 510 100<110 430>
LayerCount: 2
Back
SplineSet
510 630 m 4x9b80
 538 630 563 617 580 597 c 5
 613 611 647 620 680 620 c 5
 680 520 l 5xcb80
 652 520 625 514 600 505 c 5
 600 120 l 6
 600 51 542 -6 460 -6 c 5
 370 340 l 5
 280 -6 l 5
 198 -6 140 51 140 120 c 6
 140 386 l 5
 130 386 l 6
 69 386 20 435 20 496 c 4
 20 557 69 606 130 606 c 4xad80
 191 606 240 557 240 496 c 6
 240 70 l 5
 350 490 l 5
 390 490 l 5
 500 70 l 5
 500 451 l 5
 455 456 420 494 420 540 c 4
 420 590 460 630 510 630 c 4x9b80
510 580 m 4x9980
 488 580 470 562 470 540 c 4
 470 518 488 500 510 500 c 4
 532 500 550 518 550 540 c 4
 550 562 532 580 510 580 c 4x9980
130 541 m 4xab80
 105 541 85 521 85 496 c 4
 85 471 105 451 130 451 c 4
 155 451 175 471 175 496 c 4
 175 521 155 541 130 541 c 4xab80
EndSplineSet
Fore
SplineSet
510 630 m 0xaec0
 563 630 607 588 610 536 c 1
 653 558 690 590 690 590 c 1
 690 500 l 1
 690 500 657 475 610 460 c 1
 610 91 l 2
 610 6 547 -6 485 -6 c 1
 380 300 l 1
 275 -6 l 1
 213 -6 150 8 150 91 c 2
 150 386 l 1xcec0
 140 386 l 2
 79 386 30 435 30 496 c 0
 30 557 79 606 140 606 c 0
 201 606 250 557 250 496 c 2xd5c0
 250 110 l 1
 355 400 l 1
 405 400 l 1
 510 110 l 1
 510 430 l 1
 455 430 410 475 410 530 c 0
 410 585 455 630 510 630 c 0xaec0
510 570 m 0
 488 570 470 552 470 530 c 0
 470 508 488 490 510 490 c 0xacc0
 532 490 550 508 550 530 c 0
 550 552 532 570 510 570 c 0
140 541 m 0xd5c0
 115 541 95 521 95 496 c 0
 95 471 115 451 140 451 c 0
 165 451 185 471 185 496 c 0
 185 521 165 541 140 541 c 0xd5c0
EndSplineSet
Validated: 1
EndChar

StartChar: uni0E2D
Encoding: 3629 3629 22
Width: 610
VWidth: 0
Flags: W
HStem: -12 85<214.291 405.786> 190 65<190.889 240.437> 345 65<159.488 240.512> 527 85<213.944 383.636>
VStem: 70 105<434 488.27> 90 100<98.5881 190> 90 65<259.412 340.437> 245 65<259.488 340.512> 430 100<98.5881 481.082>
LayerCount: 2
Back
SplineSet
295 612 m 4xfb
 428 612 530 539 530 372 c 6
 530 188 l 6
 530 26 443 -12 310 -12 c 4
 177 -12 91 26 90 188 c 5xfb
 90 310 l 6xf7
 90 371 139 420 200 420 c 4
 261 420 310 371 310 310 c 4
 310 249 261 200 200 200 c 4
 197 200 193 200 190 200 c 5
 190 160 l 5
 191 82 255 73 310 73 c 4
 365 73 429 82 430 160 c 5
 430 372 l 6
 430 486 373 527 295 527 c 4
 210 527 151 492 105 450 c 5
 70 525 l 5
 103 555 180 612 295 612 c 4xfb
200 355 m 4
 175 355 155 335 155 310 c 4xf7
 155 285 175 265 200 265 c 4
 225 265 245 285 245 310 c 4
 245 335 225 355 200 355 c 4
EndSplineSet
Fore
SplineSet
300 612 m 0xf980
 453 612 530 513 530 402 c 2
 530 188 l 2
 530 26 443 -12 310 -12 c 0
 177 -12 91 26 90 188 c 1xf580
 90 300 l 2xf380
 90 361 139 410 200 410 c 0
 261 410 310 361 310 300 c 0
 310 239 261 190 200 190 c 2
 190 190 l 1
 190 160 l 1xf580
 191 82 255 73 310 73 c 0
 365 73 429 82 430 160 c 1
 430 402 l 2
 430 470 385 527 300 527 c 0
 215 527 175 475 175 434 c 1
 70 434 l 1
 70 515 147 612 300 612 c 0xf980
200 345 m 0
 175 345 155 325 155 300 c 0xf380
 155 275 175 255 200 255 c 0
 225 255 245 275 245 300 c 0
 245 325 225 345 200 345 c 0
EndSplineSet
Validated: 1
EndChar

StartChar: uni0E2E
Encoding: 3630 3630 30
Width: 610
VWidth: 0
Flags: W
HStem: -12 85<214.291 405.786> 190 65<190.889 240.437> 345 65<159.488 240.512> 527 85<213.944 383.609>
VStem: 70 105<434 488.27> 90 100<98.5881 190> 90 65<259.412 340.437> 245 65<259.488 340.512> 430 100<98.5881 481.082> 490 100<596.306 680>
LayerCount: 2
Back
SplineSet
600 620 m 5
 600 520 l 5
 563 520 526 509 496 494 c 5
 511 461 520 421 520 372 c 6
 520 188 l 6
 520 26 433 -12 300 -12 c 4
 167 -12 81 26 80 188 c 5
 80 310 l 6
 80 371 129 420 190 420 c 4
 251 420 300 371 300 310 c 4
 300 249 251 200 190 200 c 6
 180 200 l 5
 180 160 l 5
 181 82 245 73 300 73 c 4
 355 73 419 82 420 160 c 5
 420 372 l 6
 420 486 363 527 285 527 c 4
 200 527 141 492 95 450 c 5
 60 525 l 5
 93 555 170 612 285 612 c 4
 345 612 399 597 440 565 c 5
 489 597 546 620 600 620 c 5
190 355 m 4
 165 355 145 335 145 310 c 4
 145 285 165 265 190 265 c 4
 215 265 235 285 235 310 c 4
 235 335 215 355 190 355 c 4
EndSplineSet
Fore
SplineSet
490 680 m 1xf940
 590 680 l 1xf940
 590 598 548 544 502 511 c 1
 521 478 530 441 530 402 c 2
 530 188 l 2
 530 26 443 -12 310 -12 c 0
 177 -12 91 26 90 188 c 1xf580
 90 300 l 2xf3
 90 361 139 410 200 410 c 0
 261 410 310 361 310 300 c 0
 310 239 261 190 200 190 c 2
 190 190 l 1
 190 160 l 1
 191 82 255 73 310 73 c 0
 365 73 429 82 430 160 c 1
 430 402 l 2xf580
 430 470 385 527 300 527 c 0
 215 527 175 475 175 434 c 1
 70 434 l 1
 70 515 147 612 300 612 c 0
 360 612 409 597 445 571 c 1
 473 600 490 636 490 680 c 1xf940
200 345 m 0
 175 345 155 325 155 300 c 0xf3
 155 275 175 255 200 255 c 0
 225 255 245 275 245 300 c 0
 245 325 225 345 200 345 c 0
EndSplineSet
Validated: 1
Substitution2: "Ascent Substitute" uni0E2E.alt
EndChar

StartChar: uni0E2F
Encoding: 207 3631 71
Width: 520
VWidth: 0
Flags: W
HStem: -120 90<160 245.445> 340 70<155.976 292.474> 535 55<86.5001 153.5>
VStem: 30 55<466.647 533.5> 155 55<466.589 533.5> 330 100<58.4477 385> 350 80<471.373 570>
LayerCount: 2
Back
SplineSet
120 590 m 4xf8
 170 590 210 550 210 500 c 4
 210 469 189 441 165 425 c 5
 173 415 194 410 215 410 c 4
 299 410 350 482 350 570 c 5
 430 570 l 5xf4
 430 52 l 6
 430 -65 270 -120 270 -120 c 5
 230 -36 l 5
 230 -36 327 -8 330 52 c 5
 330 375 l 5
 299 355 261 340 215 340 c 4
 154 340 30 375 30 500 c 4
 30 550 70 590 120 590 c 4xf8
120 535 m 4
 101 535 85 519 85 500 c 4
 85 481 101 465 120 465 c 4
 139 465 155 481 155 500 c 4
 155 519 139 535 120 535 c 4
EndSplineSet
Fore
SplineSet
120 590 m 0xfc
 170 590 210 550 210 500 c 0
 210 464 182 427 155 425 c 1
 163 415 194 410 215 410 c 0
 299 410 350 482 350 570 c 1
 430 570 l 1xfa
 430 570 430 393 430 160 c 0
 430 7 323 -120 160 -120 c 1
 160 -30 l 1
 257 -30 330 57 330 160 c 0
 330 305 330 240 330 385 c 1
 310 365 271 340 215 340 c 0
 154 340 30 375 30 500 c 0
 30 550 70 590 120 590 c 0xfc
120 535 m 0
 101 535 85 519 85 500 c 0
 85 481 101 465 120 465 c 0
 139 465 155 481 155 500 c 0
 155 519 139 535 120 535 c 0
EndSplineSet
Validated: 1
EndChar

StartChar: uni0E31
Encoding: 3633 3633 45
Width: 0
VWidth: 0
Flags: W
HStem: 680 70<-272.906 -148.149> 875 55<-353.5 -286.5>
VStem: -410 55<806.647 873.5> -285 55<806.698 873.5> -90 90<817.632 910>
LayerCount: 2
Fore
SplineSet
-320 930 m 0
 -270 930 -230 890 -230 840 c 0
 -230 809 -251 778 -275 762 c 1
 -267 752 -236 750 -215 750 c 0
 -125 750 -90 855 -90 910 c 1
 0 910 l 1
 0 811 -63 680 -215 680 c 0
 -276 680 -410 715 -410 840 c 0
 -410 890 -370 930 -320 930 c 0
-320 875 m 0
 -339 875 -355 859 -355 840 c 0
 -355 821 -339 805 -320 805 c 0
 -301 805 -285 821 -285 840 c 0
 -285 859 -301 875 -320 875 c 0
EndSplineSet
Validated: 1
Position2: "Vowel Above-Left" dx=-200 dy=0 dh=0 dv=0
EndChar

StartChar: uni0E32
Encoding: 210 3634 25
Width: 500
VWidth: 0
Flags: W
HStem: 0 21G<330 430> 521 85<109.4 291.584>
VStem: 330 100<0 481.908>
LayerCount: 2
Fore
SplineSet
210 606 m 0
 309 606 430 570 430 376 c 2
 430 0 l 1
 330 0 l 1
 330 376 l 2
 330 497 275 521 210 521 c 0
 161 521 110 505 65 464 c 1
 30 534 l 1
 72 575 134 606 210 606 c 0
EndSplineSet
Validated: 1
EndChar

StartChar: uni0E34
Encoding: 212 3636 10
Width: 0
VWidth: 0
Flags: W
HStem: 760 30<-405 -313.119> 840 70<-387.958 -239.803>
LayerCount: 2
Fore
SplineSet
-325 910 m 0
 -190 910 -115 808 -80 660 c 1
 -252 741 -319 760 -520 760 c 1
 -494 844 -438 910 -325 910 c 0
-325 840 m 0
 -358 840 -393 820 -405 790 c 1
 -333 790 -246 770 -170 733 c 1
 -212 821 -284 840 -325 840 c 0
EndSplineSet
Validated: 1
Position2: "Vowel Above-Left" dx=-140 dy=0 dh=0 dv=0
EndChar

StartChar: uni0E35
Encoding: 3637 3637 12
Width: 0
VWidth: 0
Flags: W
HStem: 740 30<-425 -334.297> 820 70<-407.342 -258.104>
VStem: -190 90<764.2 890>
LayerCount: 2
Fore
SplineSet
-190 920 m 1
 -100 890 l 1
 -100 640 l 1
 -272 721 -339 740 -540 740 c 1
 -514 824 -463 890 -355 890 c 0
 -248 890 -198 820 -155 745 c 1
 -177 792 -190 827 -190 880 c 2
 -190 920 l 1
-345 820 m 0
 -378 820 -413 800 -425 770 c 1
 -353 770 -251 742 -175 705 c 1
 -232 798 -294 820 -345 820 c 0
EndSplineSet
Validated: 1
Position2: "Vowel Above-Left" dx=-140 dy=0 dh=0 dv=0
EndChar

StartChar: uni0E36
Encoding: 214 3638 20
Width: 0
VWidth: 0
Flags: W
HStem: 630 21G<-186 -104> 730 30<-425 -333.119> 810 70<-407.148 -259.866> 850 50<-186.688 -114>
VStem: -110 50<773.524 846>
LayerCount: 2
Fore
SplineSet
-150 900 m 0xd8
 -100 900 -60 860 -60 810 c 0
 -60 767 -91 730 -132 722 c 1
 -118 694 -108 663 -100 630 c 1
 -272 711 -339 730 -540 730 c 1
 -514 814 -458 880 -350 880 c 0xe8
 -297 880 -270 867 -233 844 c 1
 -220 877 -188 900 -150 900 c 0xd8
-150 850 m 0xd8
 -172 850 -190 832 -190 810 c 0
 -190 788 -172 770 -150 770 c 0
 -128 770 -110 788 -110 810 c 0xe8
 -110 832 -128 850 -150 850 c 0xd8
-345 810 m 0
 -378 810 -413 790 -425 760 c 1
 -353 760 -256 737 -180 700 c 1
 -237 793 -304 810 -345 810 c 0
EndSplineSet
Validated: 1
Position2: "Vowel Above-Left" dx=-140 dy=0 dh=0 dv=0
EndChar

StartChar: uni0E37
Encoding: 215 3639 21
Width: 0
VWidth: 0
Flags: W
HStem: 730 30<-425 -334.297> 810 70<-407.342 -319.411>
VStem: -325 85<877.376 920> -185 85<743.679 880>
LayerCount: 2
Fore
SplineSet
-325 950 m 1
 -240 920 l 1
 -240 843 l 1
 -204 816 -179 776 -155 735 c 1
 -177 782 -185 817 -185 870 c 2
 -185 910 l 1
 -100 880 l 1
 -100 630 l 1
 -272 711 -339 730 -540 730 c 1
 -514 814 -463 880 -355 880 c 0
 -344 880 -328 878 -318 877 c 1
 -322 885 -325 895 -325 905 c 2
 -325 950 l 1
-345 810 m 0
 -378 810 -413 790 -425 760 c 1
 -353 760 -251 732 -175 695 c 1
 -232 788 -294 810 -345 810 c 0
EndSplineSet
Validated: 1
Position2: "Vowel Above-Left" dx=-140 dy=0 dh=0 dv=0
EndChar

StartChar: uni0E38
Encoding: 3640 3640 11
Width: 0
VWidth: 0
Flags: W
HStem: -340 21G<-170 -90> -250 55<-213.5 -170.338> -125 55<-213.5 -146.5>
VStem: -270 55<-193.5 -126.5> -170 80<-340 -249> -145 55<-193.878 -126.878>
LayerCount: 2
Fore
SplineSet
-180 -70 m 0xf8
 -130 -70 -90 -110 -90 -160 c 2xf4
 -90 -340 l 1
 -170 -340 l 1
 -170 -249 l 1
 -173 -250 -177 -250 -180 -250 c 0
 -230 -250 -270 -210 -270 -160 c 0
 -270 -110 -230 -70 -180 -70 c 0xf8
-180 -125 m 0
 -199 -125 -215 -141 -215 -160 c 0
 -215 -179 -199 -195 -180 -195 c 0
 -161 -195 -145 -179 -145 -160 c 0
 -145 -141 -161 -125 -180 -125 c 0
EndSplineSet
Validated: 1
Position2: "Vowel Below-Low" dx=0 dy=-200 dh=0 dv=0
EndChar

StartChar: uni0E39
Encoding: 217 3641 47
Width: 0
VWidth: 0
Flags: W
HStem: -340 65<-248.658 -171.403> -250 55<-373.5 -329.522> -125 55<-373.5 -306.5>
VStem: -430 55<-193.5 -126.5> -330 80<-273.258 -249> -305 55<-193.878 -126.878> -170 80<-273.592 -80>
LayerCount: 2
Fore
SplineSet
-340 -70 m 0xfa
 -290 -70 -250 -110 -250 -160 c 2
 -250 -240 l 2xf6
 -250 -257 -245 -275 -210 -275 c 0
 -175 -275 -170 -256 -170 -240 c 2
 -170 -80 l 1
 -90 -80 l 1
 -90 -260 l 2
 -90 -285 -96 -340 -210 -340 c 0
 -324 -340 -330 -284 -330 -260 c 2
 -330 -249 l 1
 -333 -250 -337 -250 -340 -250 c 0
 -390 -250 -430 -210 -430 -160 c 0
 -430 -110 -390 -70 -340 -70 c 0xfa
-340 -125 m 0
 -359 -125 -375 -141 -375 -160 c 0
 -375 -179 -359 -195 -340 -195 c 0
 -321 -195 -305 -179 -305 -160 c 0
 -305 -141 -321 -125 -340 -125 c 0
EndSplineSet
Validated: 1
Position2: "Vowel Below-Low" dx=0 dy=-200 dh=0 dv=0
EndChar

StartChar: uni0E3A
Encoding: 218 3642 60
Width: 0
VWidth: 0
Flags: W
HStem: -210 140<-204.125 -95.8748>
VStem: -220 140<-194.125 -85.8748>
LayerCount: 2
Fore
SplineSet
-80 -140 m 0
 -80 -179 -111 -210 -150 -210 c 0
 -189 -210 -220 -179 -220 -140 c 0
 -220 -101 -189 -70 -150 -70 c 0
 -111 -70 -80 -101 -80 -140 c 0
EndSplineSet
Validated: 1
Position2: "Vowel Below-Low" dx=0 dy=-200 dh=0 dv=0
EndChar

StartChar: uni0E3F
Encoding: 3647 3647 92
Width: 680
VWidth: 0
Flags: W
HStem: 0 100<170 270 350 446.492> 400 90<170 270 350 412.923> 770 90<170 270 350 408.563>
VStem: 60 110<100 400 490 770> 270 80<-150 0 100 400 491 766 860 1010> 460 110<537.992 720.208> 500 110<152.359 339.782>
LayerCount: 2
Fore
SplineSet
270 1010 m 1xfa
 350 1010 l 1
 350 857 l 5
 500 854 570 744 570 620 c 0xfc
 570 564 541 492 470 450 c 1
 584 411 610 320 610 240 c 0
 610 65 517 0 380 0 c 2
 350 0 l 1
 350 -150 l 1
 270 -150 l 1
 270 0 l 1
 60 0 l 1
 60 860 l 1
 270 860 l 1
 270 1010 l 1xfa
170 770 m 1
 170 490 l 1
 270 490 l 1
 270 770 l 1
 170 770 l 1
350 766 m 1
 350 491 l 1
 424 499 460 555 460 630 c 0
 460 700 435 752 350 766 c 1
170 400 m 1
 170 100 l 1
 270 100 l 1
 270 400 l 1
 170 400 l 1
350 400 m 1
 350 100 l 1
 429 100 500 134 500 240 c 0xfa
 500 343 447 396 350 400 c 1
EndSplineSet
EndChar

StartChar: uni0E43
Encoding: 227 3651 39
Width: 340
VWidth: 0
Flags: W
HStem: -6 65<197.069 262.931> 129 65<230 261.984> 750 65<50.1324 130.512> 905 65<90 130.437> 992 60<91.2596 205.191>
VStem: -30 75<820.119 900.735> 130 100<194 692.017> 135 65<59.7081 128.713 819.488 900.512> 241 69<791.039 955.517> 265 65<61.0689 126.931>
LayerCount: 2
Fore
SplineSet
140 1052 m 0xfd80
 247 1052 310 967 310 880 c 0xfd80
 310 740 230 706 230 590 c 2
 230 194 l 1
 285 194 330 149 330 94 c 0
 330 39 285 -6 230 -6 c 0
 175 -6 130 39 130 94 c 2
 130 590 l 2xfe40
 130 722 241 769 241 880 c 0
 241 934 206 992 140 992 c 0
 117 992 99 983 90 970 c 1
 151 970 200 921 200 860 c 0
 200 799 151 750 90 750 c 0
 29 750 -30 795 -30 880 c 0
 -29 995 53 1052 140 1052 c 0xfd80
90 905 m 0
 65 905 45 885 45 860 c 0
 45 835 65 815 90 815 c 0
 115 815 135 835 135 860 c 0
 135 885 115 905 90 905 c 0
230 129 m 0xfe40
 211 129 195 113 195 94 c 0
 195 75 211 59 230 59 c 0
 249 59 265 75 265 94 c 0
 265 113 249 129 230 129 c 0xfe40
EndSplineSet
Validated: 1
EndChar

StartChar: uni0E45
Encoding: 229 3653 64
Width: 280
VWidth: 0
Flags: W
HStem: 527 85<-100.6 81.5839>
VStem: 120 100<-340 487.908>
LayerCount: 2
Fore
SplineSet
0 612 m 0
 99 612 220 576 220 382 c 2
 220 -340 l 1
 120 -340 l 1
 120 382 l 2
 120 503 65 527 0 527 c 0
 -49 527 -100 511 -145 470 c 1
 -180 540 l 1
 -138 581 -76 612 0 612 c 0
EndSplineSet
Validated: 1
EndChar

StartChar: uni0E46
Encoding: 230 3654 50
Width: 660
VWidth: 0
Flags: W
HStem: -340 90<240 325.445> 286 50<144.317 216> 416 50<143.199 216> 546 60<142.448 244.049>
VStem: 60 61<437 525.824> 220 50<340 412> 410 100<-161.552 529.23>
LayerCount: 2
Back
SplineSet
190 606 m 4
 241 606 273 583 291 550 c 5
 320 606 l 5
 370 606 l 5
 427 589 480 528 480 446 c 6
 480 -168 l 6
 480 -285 320 -340 320 -340 c 5
 280 -256 l 5
 280 -256 377 -228 380 -168 c 5
 380 470 l 6
 380 520 368 538 359 546 c 5
 315 466 l 5
 260 466 l 5
 260 503 228 541 190 541 c 4
 158 541 136 510 131 472 c 5
 145 481 162 486 180 486 c 4
 230 486 270 446 270 396 c 4
 270 346 230 306 180 306 c 4
 109 306 60 365 60 456 c 4
 60 533 119 606 190 606 c 4
180 436 m 4
 158 436 140 418 140 396 c 4
 140 374 158 356 180 356 c 4
 202 356 220 374 220 396 c 4
 220 418 202 436 180 436 c 4
EndSplineSet
Fore
SplineSet
190 606 m 0
 241 606 281 573 291 545 c 1
 335 606 l 1
 390 606 l 1
 447 589 510 532 510 430 c 2
 510 -60 l 2
 510 -213 403 -340 240 -340 c 1
 240 -250 l 1
 337 -250 410 -163 410 -60 c 2
 410 430 l 2
 410 504 381 541 359 551 c 1
 308 481 l 1
 260 481 l 1
 260 500 241 546 193 546 c 0
 142 546 121 498 121 437 c 1
 127 449 152 466 180 466 c 0
 230 466 270 426 270 376 c 0
 270 326 230 286 180 286 c 0
 109 286 60 345 60 436 c 0
 60 518 106 606 190 606 c 0
180 416 m 0
 158 416 140 398 140 376 c 0
 140 354 158 336 180 336 c 0
 202 336 220 354 220 376 c 0
 220 398 202 416 180 416 c 0
EndSplineSet
Validated: 1
EndChar

StartChar: uni0E47
Encoding: 3655 3655 51
Width: 0
VWidth: 0
Flags: W
HStem: 660 56<-291.4 -228.856> 806 40<-217.809 -162.191> 866 60<-416.469 -193.875>
VStem: -500 70<738.456 852.815> -260 40<747.776 803.809> -170 80<950.671 1006> -160 40<748.57 803.809>
LayerCount: 2
Fore
SplineSet
-170 1006 m 1xfc
 -90 1006 l 1xfc
 -90 934 -158 866 -230 866 c 2
 -360 866 l 2
 -408 866 -430 835 -430 796 c 0
 -430 761 -412 741 -393 729 c 1
 -355 796 l 1
 -308 796 l 1
 -308 755 -284 716 -240 716 c 0
 -236 716 -232 716 -228 717 c 1
 -247 730 -260 751 -260 776 c 0
 -260 815 -229 846 -190 846 c 0
 -151 846 -120 815 -120 776 c 0xfa
 -120 719 -164 660 -240 660 c 0
 -285 660 -320 688 -340 721 c 1
 -370 666 l 1
 -442 666 -500 724 -500 796 c 0
 -500 868 -442 926 -360 926 c 2
 -250 926 l 2
 -207 926 -170 967 -170 1006 c 1xfc
-190 806 m 0
 -207 806 -220 793 -220 776 c 0
 -220 759 -207 746 -190 746 c 0
 -173 746 -160 759 -160 776 c 0xfa
 -160 793 -173 806 -190 806 c 0
EndSplineSet
Validated: 1
Position2: "Vowel Above-Left" dx=-120 dy=0 dh=0 dv=0
EndChar

StartChar: uni0E48
Encoding: 232 3656 9
Width: 0
VWidth: 0
Flags: W
HStem: 950 230<-148.9 -130>
VStem: -220 90<990 1180>
LayerCount: 2
Fore
SplineSet
-220 1180 m 1
 -130 1180 l 1
 -130 950 l 1
 -220 990 l 1
 -220 1180 l 1
EndSplineSet
Validated: 1
Position2: "Nikhahit & Tone High-Left" dx=-180 dy=0 dh=0 dv=0
Position2: "Mai Han-Akat & Tone High-Left" dx=-220 dy=0 dh=0 dv=0
Position2: "Tone High-Left" dx=-120 dy=0 dh=0 dv=0
MultipleSubs2: "Tone High-Low" uni0E48.low
EndChar

StartChar: uni0E49
Encoding: 233 3657 34
Width: 0
VWidth: 0
Flags: W
HStem: 960 55<-228 -141.687> 960 45<-336.692 -312> 1150 50<-289.402 -230.598>
VStem: -340 50<1090.6 1149.4> -230 50<1091.03 1149.4> -85 85<1072.85 1170>
LayerCount: 2
Back
SplineSet
-230 1150 m 4x3e
 -194 1150 -165 1121 -165 1085 c 4
 -165 1036 -195 1015 -195 1015 c 5x5e
 -130 1015 -80 1052 -80 1130 c 5
 0 1130 l 5
 0 1022 -67 960 -200 960 c 6
 -270 960 l 6
 -301 960 -310 995 -310 995 c 5
 -281 998 l 6
 -271 1000 -254 1005 -242 1020 c 5
 -272 1026 -295 1053 -295 1085 c 4
 -295 1121 -266 1150 -230 1150 c 4x3e
-230 1110 m 4
 -244 1110 -255 1099 -255 1085 c 4
 -255 1071 -244 1060 -230 1060 c 4x9e
 -216 1060 -205 1071 -205 1085 c 4
 -205 1099 -216 1110 -230 1110 c 4
EndSplineSet
Fore
SplineSet
-260 1200 m 0x7c
 -216 1200 -180 1164 -180 1120 c 0
 -180 1063 -228 1015 -228 1015 c 1
 -145 1015 -85 1066 -85 1170 c 1
 0 1170 l 1
 0 1040 -68 960 -228 960 c 2xbc
 -312 960 l 2
 -350 960 -360 1005 -360 1005 c 1
 -312 1011 l 2
 -294 1013 -281 1022 -276 1042 c 1
 -312 1049 -340 1081 -340 1120 c 0
 -340 1164 -304 1200 -260 1200 c 0x7c
-260 1150 m 0
 -277 1150 -290 1137 -290 1120 c 0
 -290 1103 -277 1090 -260 1090 c 0
 -243 1090 -230 1103 -230 1120 c 0
 -230 1137 -243 1150 -260 1150 c 0
EndSplineSet
Validated: 1
Position2: "Nikhahit & Tone High-Left" dx=-150 dy=0 dh=0 dv=0
Position2: "Mai Han-Akat & Tone High-Left" dx=-180 dy=0 dh=0 dv=0
Position2: "Tone High-Left" dx=-120 dy=0 dh=0 dv=0
MultipleSubs2: "Tone High-Low" uni0E49.low
EndChar

StartChar: uni0E4A
Encoding: 234 3658 91
Width: 0
VWidth: 0
Flags: W
HStem: 970 45<-320.147 -262.951> 1075 45<-319.776 -262.951> 1160 45<-308.346 -238.686>
VStem: -380 58<1016.35 1115.96> -262 45<1015.95 1074.05> -157 65<1030.17 1159.6> -55 75<1054.73 1200>
LayerCount: 2
Fore
SplineSet
-275 1205 m 0
 -244 1205 -229 1193 -215 1171 c 1
 -187 1205 l 1
 -157 1205 l 1
 -119 1191 -92 1138 -92 1085 c 0
 -92 1048 -102 1030 -102 1030 c 1
 -77 1050 -55 1077 -55 1200 c 1
 20 1200 l 1
 18 1104 15 973 -157 973 c 1
 -175 1010 l 1
 -158 1010 -157 1046 -157 1085 c 0
 -157 1125 -163 1151 -178 1160 c 1
 -206 1130 l 1
 -236 1130 l 1
 -236 1139 -254 1160 -273 1160 c 0
 -288 1160 -315 1141 -320 1115 c 1
 -311 1118 -302 1120 -292 1120 c 0
 -251 1120 -217 1086 -217 1045 c 0
 -217 1004 -251 970 -292 970 c 0
 -333 970 -380 995 -380 1082 c 0
 -380 1148 -330 1205 -275 1205 c 0
-292 1075 m 0
 -309 1075 -322 1062 -322 1045 c 0
 -322 1028 -309 1015 -292 1015 c 0
 -275 1015 -262 1028 -262 1045 c 0
 -262 1062 -275 1075 -292 1075 c 0
EndSplineSet
Validated: 1
Position2: "Nikhahit & Tone High-Left" dx=-150 dy=0 dh=0 dv=0
Position2: "Mai Han-Akat & Tone High-Left" dx=-180 dy=0 dh=0 dv=0
Position2: "Tone High-Left" dx=-120 dy=0 dh=0 dv=0
MultipleSubs2: "Tone High-Low" uni0E4A.low
EndChar

StartChar: uni0E4B
Encoding: 3659 3659 77
Width: 0
VWidth: 0
Flags: W
HStem: 1050 50<-280 -200 -120 -40>
VStem: -200 80<990 1050 1100 1180>
LayerCount: 2
Fore
SplineSet
-200 1180 m 1
 -120 1180 l 1
 -120 1100 l 1
 -40 1100 l 1
 -40 1050 l 1
 -120 1050 l 1
 -120 950 l 1
 -200 990 l 1
 -200 1050 l 1
 -280 1050 l 1
 -280 1100 l 1
 -200 1100 l 1
 -200 1180 l 1
EndSplineSet
Validated: 1
Position2: "Nikhahit & Tone High-Left" dx=-180 dy=0 dh=0 dv=0
Position2: "Mai Han-Akat & Tone High-Left" dx=-220 dy=0 dh=0 dv=0
Position2: "Tone High-Left" dx=-130 dy=0 dh=0 dv=0
MultipleSubs2: "Tone High-Low" uni0E4B.low
EndChar

StartChar: uni0E4C
Encoding: 3660 3660 46
Width: 0
VWidth: 0
Flags: W
HStem: 920 45<-222.187 -158.203>
VStem: -275 50<966.715 1031.46> -155 45<968.203 1032.28> -110 90<1130.93 1180>
LayerCount: 2
Fore
SplineSet
-110 1180 m 1xd0
 -20 1180 l 1xd0
 -30 1124 -77 1066 -134 1057 c 1
 -119 1042 -110 1022 -110 1000 c 0xe0
 -110 956 -146 920 -190 920 c 0
 -234 920 -275 951 -275 1000 c 0
 -275 1119 -121 1079 -110 1180 c 1xd0
-190 1035 m 0
 -209 1035 -225 1019 -225 1000 c 0
 -225 981 -209 965 -190 965 c 0
 -171 965 -155 981 -155 1000 c 0xe0
 -155 1019 -171 1035 -190 1035 c 0
EndSplineSet
Validated: 1
Position2: "Tone High-Left" dx=-100 dy=0 dh=0 dv=0
MultipleSubs2: "Tone High-Low" uni0E4C.low
EndChar

StartChar: uni0E4F
Encoding: 239 3663 82
Width: 760
VWidth: 0
Flags: W
HStem: 0 90<281.776 478.224> 170 75<334.489 425.511> 355 75<334.489 425.511> 510 90<281.776 478.224>
VStem: 80 90<201.776 398.224> 250 75<254.489 345.511> 435 75<254.489 345.511> 590 90<201.776 398.224>
LayerCount: 2
Fore
SplineSet
380 600 m 0
 546 600 680 466 680 300 c 0
 680 134 546 0 380 0 c 0
 214 0 80 134 80 300 c 0
 80 466 214 600 380 600 c 0
380 510 m 0
 264 510 170 416 170 300 c 0
 170 184 264 90 380 90 c 0
 496 90 590 184 590 300 c 0
 590 416 496 510 380 510 c 0
380 430 m 0
 452 430 510 372 510 300 c 0
 510 228 452 170 380 170 c 0
 308 170 250 228 250 300 c 0
 250 372 308 430 380 430 c 0
380 355 m 0
 350 355 325 330 325 300 c 0
 325 270 350 245 380 245 c 0
 410 245 435 270 435 300 c 0
 435 330 410 355 380 355 c 0
EndSplineSet
Validated: 1
EndChar

StartChar: uni0E50
Encoding: 240 3664 65
Width: 744
VWidth: 0
Flags: W
HStem: -12 90<279.592 464.408> 522 90<279.592 464.408>
VStem: 60 110<193.428 406.572> 574 110<193.428 406.572>
LayerCount: 2
Back
SplineSet
522 872 m 4
 766 872 964 674 964 430 c 4
 964 186 766 -12 522 -12 c 4
 278 -12 80 186 80 430 c 4
 80 674 278 872 522 872 c 4
522 712 m 4
 388 712 290 586 290 430 c 4
 290 274 388 148 522 148 c 4
 656 148 754 274 754 430 c 4
 754 586 656 712 522 712 c 4
EndSplineSet
Fore
SplineSet
372 612 m 0
 544 612 684 472 684 300 c 0
 684 128 544 -12 372 -12 c 0
 200 -12 60 128 60 300 c 0
 60 472 200 612 372 612 c 0
372 522 m 0
 260 522 170 423 170 300 c 0
 170 177 260 78 372 78 c 0
 484 78 574 177 574 300 c 0
 574 423 484 522 372 522 c 0
EndSplineSet
Validated: 1
EndChar

StartChar: uni0E51
Encoding: 3665 3665 83
Width: 744
VWidth: 0
Flags: W
HStem: -60 95<372 460.746> 85 85<209.342 369.301> 197 61<331.328 370> 342 71<331.319 408.52> 522 90<262.864 471.963>
VStem: 60 105<217.79 420.364> 257 71<261.532 337.765> 412 76<262.056 337.817> 579 105<161.981 410.58>
LayerCount: 2
Back
SplineSet
522 872 m 4
 766 872 964 686 964 430 c 4
 964 201 850 -72 522 -72 c 5
 522 104 l 5
 691 118 764 268 764 430 c 4
 764 586 656 702 522 702 c 4
 388 702 280 606 280 450 c 4
 280 379 313 300 381 300 c 4
 395 300 408 303 418 308 c 5
 384 337 362 381 362 430 c 4
 362 518 434 590 522 590 c 4
 610 590 682 518 682 430 c 4
 682 283 588 140 381 140 c 4
 166 140 80 293 80 450 c 4
 80 694 278 872 522 872 c 4
522 490 m 4
 489 490 462 463 462 430 c 4
 462 397 489 370 522 370 c 4
 555 370 582 397 582 430 c 4
 582 463 555 490 522 490 c 4
EndSplineSet
Fore
SplineSet
370 612 m 0
 542 612 684 481 684 300 c 0
 684 109 603 -60 372 -60 c 1
 372 35 l 1
 491 45 579 120 579 300 c 0
 579 412 505 522 370 522 c 0
 235 522 165 425 165 315 c 0
 165 224 213 170 280 170 c 0
 324 170 352 174 370 197 c 1
 314 197 257 236 257 300 c 0
 257 364 308 413 370 413 c 0
 444 413 488 357 488 295 c 0
 488 178 415 85 280 85 c 0
 128 85 60 204 60 315 c 0
 60 487 198 612 370 612 c 0
370 342 m 0
 347 342 328 323 328 300 c 0
 328 277 347 258 370 258 c 0
 393 258 412 277 412 300 c 0
 412 323 393 342 370 342 c 0
EndSplineSet
Validated: 1
EndChar

StartChar: uni0E52
Encoding: 242 3666 84
Width: 1292
VWidth: 0
Flags: W
LayerCount: 2
Back
SplineSet
0 1100 m 5xfe80
 292 1100 325 833 326 700 c 6
 328 450 l 6
 329 270 365 187 410 160 c 5
 922 160 l 5
 980 251 1002 316 1002 430 c 4
 1002 586 987 712 918 712 c 4
 849 712 844 617 844 617 c 5
 724 617 l 5xfd80
 724 617 705 712 630 712 c 4
 575 712 550 629 550 583 c 5
 574 594 601 600 630 600 c 4
 740 600 830 510 830 400 c 4
 830 290 740 200 630 200 c 4
 449 200 380 327 380 550 c 4
 380 734 495 872 630 872 c 4
 716 872 762 815 784 780 c 5
 808 815 853 872 928 872 c 4
 1120 872 1212 674 1212 430 c 4
 1212 294 1173 146 1082 0 c 5
 272 0 l 5
 272 0 118 69 118 420 c 6
 118 700 l 6
 118 776 112 900 0 900 c 5
 0 1100 l 5xfe80
630 480 m 4
 586 480 550 444 550 400 c 4
 550 356 586 320 630 320 c 4
 674 320 710 356 710 400 c 4xfe80
 710 444 674 480 630 480 c 4
EndSplineSet
EndChar

StartChar: uni0E53
Encoding: 243 3667 61
Width: 1118
VWidth: 0
Flags: W
LayerCount: 2
Back
SplineSet
372 872 m 4xbd
 443 872 508 833 559 769 c 5
 610 833 675 872 746 872 c 4
 907 872 1038 674 1038 430 c 4
 1038 294 1022 144 966 0 c 5
 726 0 l 5
 785 163 828 231 828 430 c 4
 828 586 791 682 746 682 c 4
 701 682 644 586 644 430 c 5
 474 430 l 5x7b
 474 586 417 682 372 682 c 4
 327 682 290 586 290 430 c 4
 290 410 291 390 292 371 c 5
 316 382 343 388 372 388 c 4
 482 388 572 298 572 188 c 4
 572 78 482 -12 372 -12 c 4
 164 -12 80 186 80 430 c 4
 80 674 211 872 372 872 c 4xbd
372 268 m 4
 328 268 292 232 292 188 c 4
 292 144 328 108 372 108 c 4
 416 108 452 144 452 188 c 4xbd
 452 232 416 268 372 268 c 4
EndSplineSet
EndChar

StartChar: uni0E54
Encoding: 244 3668 85
Width: 830
VWidth: 0
Flags: W
HStem: 0 90<263.764 465 528.674 750> 144 75<490.168 575.511> 329 75<485.149 575.511> 504 90<270.672 663.276>
VStem: 60 110<199.156 400.089> 385 90<189.429 319.671> 585 75<228.489 319.511> 750 110<687.563 810>
LayerCount: 2
Back
SplineSet
1092 1100 m 5
 1092 900 l 5
 962 900 959 800 910 742 c 4
 885 712 843 692 777 692 c 6
 777 692 615 692 492 692 c 5
 369 691 290 592 290 436 c 4
 290 280 369 160 492 160 c 6
 689 160 l 6
 645 160 490 275 490 430 c 4
 490 540 580 630 690 630 c 4
 800 630 890 540 890 430 c 4
 890 355 849 290 789 256 c 5
 837 197 873 160 972 160 c 5
 972 0 l 5
 492 0 l 6
 218 0 80 192 80 436 c 4
 80 680 264 872 492 872 c 6
 812 872 l 5
 812 872 878 1100 1092 1100 c 5
690 510 m 4
 646 510 610 474 610 430 c 4
 610 386 646 350 690 350 c 4
 734 350 770 386 770 430 c 4
 770 474 734 510 690 510 c 4
EndSplineSet
Fore
SplineSet
750 810 m 1
 860 810 l 1
 860 598 726 504 560 504 c 2
 360 504 l 2
 250 504 170 410 170 294 c 1
 171 227 230 90 330 90 c 2
 465 90 l 1
 424 121 385 174 385 254 c 0
 385 337 449 404 530 404 c 0
 602 404 660 346 660 274 c 0
 660 202 602 144 530 144 c 0
 508 144 490 155 490 155 c 1
 511 103 599 90 651 90 c 2
 750 90 l 1
 750 0 l 1
 750 0 453 0 330 0 c 0
 164 0 60 128 60 294 c 0
 60 460 194 594 360 594 c 2
 560 594 l 2
 670 594 750 659 750 810 c 1
530 329 m 0
 500 329 475 304 475 274 c 0
 475 244 500 219 530 219 c 0
 560 219 585 244 585 274 c 0
 585 304 560 329 530 329 c 0
EndSplineSet
Validated: 1
EndChar

StartChar: uni0E55
Encoding: 245 3669 86
Width: 1092
VWidth: 0
Flags: W
LayerCount: 2
Back
SplineSet
590 1120 m 4xfc80
 689 1120 770 1039 770 940 c 4
 770 916 765 893 757 872 c 5
 812 872 l 5
 812 872 878 1100 1092 1100 c 5
 1092 900 l 5
 962 900 959 800 910 742 c 4
 885 712 843 692 777 692 c 6
 492 692 l 5
 369 691 290 592 290 436 c 4
 290 280 369 160 492 160 c 6
 689 160 l 6
 645 160 490 275 490 430 c 4xfb
 490 540 580 630 690 630 c 4
 800 630 890 540 890 430 c 4
 890 355 849 290 789 256 c 5
 837 197 873 160 972 160 c 5
 972 0 l 5
 492 0 l 6
 218 0 80 192 80 436 c 4
 80 656 229 833 426 866 c 5
 416 889 410 914 410 940 c 4
 410 1039 491 1120 590 1120 c 4xfc80
590 1000 m 4
 557 1000 530 973 530 940 c 4xfd
 530 907 557 880 590 880 c 4
 623 880 650 907 650 940 c 4
 650 973 623 1000 590 1000 c 4
690 510 m 4
 646 510 610 474 610 430 c 4
 610 386 646 350 690 350 c 4
 734 350 770 386 770 430 c 4xfa80
 770 474 734 510 690 510 c 4
EndSplineSet
EndChar

StartChar: uni0E56
Encoding: 3670 3670 87
Width: 770
VWidth: 0
Flags: W
HStem: -12 90<313.291 515.726> 124 75<290 334.78> 309 75<243.716 335.511> 504 90<284.995 499.328> 710 100<40 111.6>
VStem: 150 85<208.287 299.098> 345 75<208.489 299.511> 600 110<174.82 400.089>
LayerCount: 2
Back
SplineSet
0 1100 m 5
 180 1100 267 976 301 790 c 5
 344 833 426 872 530 872 c 4
 780 872 952 674 952 430 c 4
 952 186 794 -12 520 -12 c 4
 296 -12 140 122 140 300 c 4
 140 410 230 500 340 500 c 4
 450 500 540 410 540 300 c 4
 540 242 515 190 476 154 c 5
 490 150 505 148 520 148 c 4
 643 148 742 274 742 430 c 4
 742 586 673 702 530 702 c 4
 402 702 328 623 300 560 c 5
 150 560 l 5
 150 676 130 900 0 900 c 5
 0 1100 l 5
340 380 m 4
 296 380 260 344 260 300 c 4
 260 256 296 220 340 220 c 4
 384 220 420 256 420 300 c 4
 420 344 384 380 340 380 c 4
EndSplineSet
Fore
SplineSet
40 710 m 1
 40 810 l 1
 140 810 255 735 293 594 c 1
 293 594 374 594 410 594 c 0
 576 594 710 460 710 294 c 0
 710 128 618 -12 425 -12 c 0
 232 -12 150 129 150 234 c 4
 150 307 209 384 290 384 c 4
 362 384 420 326 420 254 c 4
 420 182 362 124 290 124 c 5
 314 90 377 78 425 78 c 0
 556 78 600 195 600 294 c 0
 600 410 520 504 410 504 c 0
 349 504 216 504 216 504 c 1
 204 574 143 710 40 710 c 1
290 309 m 4
 260 309 235 284 235 254 c 4
 235 224 260 199 290 199 c 4
 320 199 345 224 345 254 c 4
 345 284 320 309 290 309 c 4
EndSplineSet
EndChar

StartChar: uni0E57
Encoding: 247 3671 88
Width: 990
VWidth: 0
Flags: W
HStem: -6 80<269.277 352.908> 174 80<266.689 352.908> 500 100<221.49 323.502>
VStem: 60 110<155.673 431.669> 360 80<81.0919 166.908> 610 110<120 469.891> 800 110<183.563 590>
LayerCount: 2
Back
SplineSet
922 1100 m 5xfb
 1145 1100 1262 845 1262 540 c 4
 1262 188 1015 -12 746 -12 c 5
 746 148 l 5
 791 148 828 274 828 430 c 4
 828 586 791 682 746 682 c 4
 701 682 644 586 644 430 c 5
 474 430 l 5xf7
 474 586 417 682 372 682 c 4
 327 682 290 586 290 430 c 4
 290 410 291 390 292 371 c 5
 316 382 343 388 372 388 c 4
 482 388 572 298 572 188 c 4
 572 78 482 -12 372 -12 c 4
 157 -12 80 186 80 430 c 4
 80 674 211 872 372 872 c 4
 443 872 508 833 559 769 c 5
 610 833 675 872 746 872 c 4
 907 872 1018 674 1018 430 c 4
 1018 378 1013 327 1003 281 c 5
 1033 339 1052 421 1052 540 c 4
 1052 761 1001 900 922 900 c 5
 922 1100 l 5xfb
372 268 m 4
 328 268 292 232 292 188 c 4
 292 144 328 108 372 108 c 4
 416 108 452 144 452 188 c 4xfb
 452 232 416 268 372 268 c 4
EndSplineSet
Fore
SplineSet
510 606 m 1
 560 606 l 1
 674 567 720 451 720 306 c 2
 720 120 l 1
 769 153 800 213 800 306 c 2
 800 590 l 1
 910 590 l 1
 910 306 l 2
 910 94 776 0 610 0 c 1
 610 90 l 1
 610 306 l 2
 610 405 608 478 555 500 c 1
 475 319 l 1
 389 319 l 1
 389 390 337 500 270 500 c 0
 218 500 170 416 170 300 c 0
 170 256 176 174 195 155 c 1
 206 205 248 254 310 254 c 0
 382 254 440 196 440 124 c 0
 440 52 382 -6 310 -6 c 0
 144 -6 60 119 60 300 c 0
 60 466 150 600 270 600 c 0
 393 600 441 459 441 459 c 1
 510 606 l 1
310 174 m 0
 282 174 260 152 260 124 c 0
 260 96 282 74 310 74 c 0
 338 74 360 96 360 124 c 0
 360 152 338 174 310 174 c 0
EndSplineSet
Validated: 1
EndChar

StartChar: uni0E58
Encoding: 248 3672 89
Width: 1180
VWidth: 0
Flags: W
LayerCount: 2
Back
SplineSet
1180 1088 m 5
 1180 888 l 5
 1050 888 1047 788 998 730 c 4
 973 700 931 680 865 680 c 4
 734 680 623 680 492 680 c 5
 369 679 290 592 290 436 c 4
 290 251 400 180 400 180 c 5
 460 320 l 5
 600 320 l 5
 600 270 657 148 750 148 c 4
 811 148 842 172 862 219 c 5
 847 210 842 209 822 209 c 4
 702 209 622 294 622 409 c 4
 622 524 712 609 822 609 c 4
 1003 609 1062 461 1062 348 c 4
 1062 115 927 -12 770 -12 c 4
 572 -12 520 120 520 120 c 5
 472 -12 l 5
 199 -12 80 192 80 436 c 4
 80 680 264 860 492 860 c 4
 628 860 764 860 900 860 c 5
 900 860 966 1088 1180 1088 c 5
822 489 m 4
 778 489 742 453 742 409 c 4
 742 365 778 329 822 329 c 4
 866 329 902 365 902 409 c 4
 902 453 866 489 822 489 c 4
EndSplineSet
EndChar

StartChar: uni0E59
Encoding: 3673 3673 90
Width: 850
VWidth: 0
Flags: W
HStem: -6 80<269.277 352.908> 174 80<266.689 352.908> 500 100<221.49 323.381>
VStem: 60 110<155.673 431.669> 360 80<81.0919 166.908> 770 110<564.039 810>
LayerCount: 2
Back
SplineSet
1182 1100 m 5xbf
 1182 900 l 5
 1073 900 1054 756 1054 420 c 5
 894 420 l 5
 894 420 893 682 784 682 c 4
 754 682 737 666 737 620 c 4
 737 544 810 378 810 0 c 5
 620 0 l 5x7f
 620 409 527 682 404 682 c 4
 337 682 290 586 290 430 c 4
 290 410 293 390 294 371 c 5
 318 382 345 388 374 388 c 4
 484 388 574 298 574 188 c 4
 574 78 484 -12 374 -12 c 4
 156 -12 80 186 80 430 c 4
 80 674 193 872 384 872 c 4
 482 872 548 833 601 769 c 5
 659 843 705 872 764 872 c 4
 824 872 853 850 885 827 c 5
 921 929 1009 1100 1182 1100 c 5xbf
374 268 m 4
 330 268 294 232 294 188 c 4
 294 144 330 108 374 108 c 4xbf
 418 108 454 144 454 188 c 4
 454 232 418 268 374 268 c 4
EndSplineSet
Fore
SplineSet
770 810 m 1
 880 810 l 1
 880 626 851 320 610 320 c 1
 610 407 591 468 555 500 c 1
 485 400 l 1
 650 0 l 1
 540 0 l 1
 370 400 l 1
 370 400 336 500 270 500 c 0
 218 500 170 416 170 300 c 0
 170 256 176 174 195 155 c 1
 206 205 248 254 310 254 c 0
 382 254 440 196 440 124 c 0
 440 52 382 -6 310 -6 c 0
 144 -6 60 119 60 300 c 0
 60 466 150 600 270 600 c 0
 393 600 440 500 440 500 c 1
 510 606 l 1
 560 606 l 1
 619 580 660 535 680 450 c 1
 744 484 770 642 770 810 c 1
310 174 m 0
 282 174 260 152 260 124 c 0
 260 96 282 74 310 74 c 0
 338 74 360 96 360 124 c 0
 360 152 338 174 310 174 c 0
EndSplineSet
Validated: 1
EndChar

StartChar: uni0E5A
Encoding: 250 3674 72
Width: 650
VWidth: 0
Flags: W
HStem: 340 70<156.038 296.634> 535 55<76.5001 143.5>
VStem: 20 55<466.647 533.5> 145 55<466.494 533.5> 340 80<-23.3623 389> 360 60<476.799 574> 490 80<-46.9396 574>
LayerCount: 2
Fore
SplineSet
110 590 m 0xfa
 160 590 200 550 200 500 c 0
 200 469 179 441 155 425 c 1
 163 415 189 410 215 410 c 0
 310 410 360 493 360 574 c 1
 420 574 l 1xf6
 420 20 l 2
 420 -51 348 -100 305 -120 c 1
 275 -45 l 1
 308 -31 338 -13 340 20 c 1
 340 389 l 1
 304 361 273 340 215 340 c 0
 149 340 20 375 20 500 c 0
 20 550 60 590 110 590 c 0xfa
490 574 m 1
 570 574 l 1
 570 64 l 2
 570 -30 533 -84 490 -120 c 1
 456 -57 l 1
 482 -30 490 10 490 65 c 2
 490 574 l 1
110 535 m 0
 91 535 75 519 75 500 c 0
 75 481 91 465 110 465 c 0
 129 465 145 481 145 500 c 0
 145 519 129 535 110 535 c 0
EndSplineSet
EndChar

StartChar: uni0E5B
Encoding: 251 3675 80
Width: 1340
VWidth: 0
Flags: W
HStem: -12 70<253.066 426.096> 149 59<285.683 390.242> 235 45<284 320.607> 240 70<941.665 1160> 360 50<249 321> 542 70<226.367 375.363>
VStem: 60 80<181.936 433.326> 195 50<283.884 356.865> 325 50<283.873 356> 420 80<238.809 493.97>
LayerCount: 2
Back
SplineSet
300 612 m 4xafa0
 437 612 510 504 510 380 c 4
 510 237 460 149 335 149 c 4
 243 149 200 237 200 300 c 4
 200 350 240 390 290 390 c 4
 340 390 380 350 380 300 c 4
 380 275 371 253 355 237 c 5
 396 252 400 335 400 380 c 4
 400 460 363 512 300 512 c 4
 233 512 170 431 170 300 c 4
 170 190 256 88 340 88 c 4
 529 88 590 320 590 560 c 5
 700 560 l 5xdfc0
 740 300 l 5
 780 500 l 5
 860 500 l 5
 879 417 900 340 960 340 c 6
 1160 340 l 5
 1160 240 l 5
 960 240 l 6
 842 240 830 300 830 300 c 5
 790 90 l 5
 690 90 l 5
 650 300 l 5
 635 181 585 -12 340 -12 c 4
 165 -12 60 153 60 300 c 4
 60 466 160 612 300 612 c 4xafa0
290 340 m 4
 268 340 250 322 250 300 c 4
 250 278 268 260 290 260 c 4
 312 260 330 278 330 300 c 4
 330 322 312 340 290 340 c 4
EndSplineSet
Fore
SplineSet
300 612 m 0xdfc0
 437 612 500 504 500 380 c 0
 500 237 445 149 340 149 c 0
 233 149 195 241 195 312 c 0
 195 362 235 410 285 410 c 0
 335 410 375 370 375 320 c 0
 375 252 315 235 284 235 c 1xefc0
 294 213 319 208 340 208 c 0
 398 208 420 271 420 380 c 0
 420 483 382 542 300 542 c 0
 203 542 140 431 140 300 c 0
 140 159 234 58 340 58 c 0
 538 58 570 366 585 560 c 1
 660 560 l 1
 740 210 l 1
 820 500 l 1
 870 500 l 1
 889 417 930 310 990 310 c 2
 1160 310 l 1
 1160 240 l 1
 990 240 l 2
 893 240 850 370 850 370 c 1
 775 90 l 1
 710 89 l 1
 640 400 l 1
 625 281 590 -12 340 -12 c 0
 141 -12 60 153 60 300 c 0
 60 466 160 612 300 612 c 0xdfc0
285 360 m 0
 263 360 245 342 245 320 c 0
 245 298 263 280 285 280 c 0
 307 280 325 298 325 320 c 0
 325 342 307 360 285 360 c 0
EndSplineSet
Validated: 1
EndChar

StartChar: uni0E0A.alt
Encoding: 265 3681 97
Width: 590
VWidth: 0
Flags: W
HStem: -12 85<271.822 398.178> 346 55<110.377 189.623> 520 100<486.366 590> 541 65<180.478 268.972>
VStem: 50 55<405.609 486.251> 160 100<85.4573 249.971> 195 55<406.377 486.027> 410 100<85.4573 394.196>
LayerCount: 2
Fore
SplineSet
590 620 m 1xeb
 590 520 l 1
 519 520 447 479 425 450 c 1
 425 450 510 418 510 330 c 2
 510 150 l 2
 510 112 507 -12 335 -12 c 0
 163 -12 160 112 160 150 c 2
 160 170 l 2xed
 160 295 289 367 289 460 c 0
 289 511 252 541 210 541 c 0
 198 541 191 540 180 536 c 1
 223 528 250 488 250 446 c 0
 250 391 205 346 150 346 c 0
 95 346 50 388 50 451 c 0
 50 550 131 606 210 606 c 0xdb
 275 606 336 571 360 507 c 1
 418 566 508 620 590 620 c 1xeb
150 491 m 0
 126 491 105 470 105 446 c 0
 105 422 126 401 150 401 c 0
 174 401 195 422 195 446 c 0xcb
 195 470 174 491 150 491 c 0
366 414 m 1
 344 320 260 241 260 170 c 2
 260 150 l 2xcd
 260 122 261 73 335 73 c 0
 409 73 410 122 410 150 c 2
 410 330 l 2
 410 365 389 394 366 414 c 1
EndSplineSet
Validated: 1
EndChar

StartChar: uni0E0B.alt
Encoding: 3682 3682 98
Width: 615
VWidth: 0
Flags: W
HStem: -12 85<309.897 420.103> 298 55<112.499 187.364> 433 50<113.112 186> 535 95<494.585 615> 551 55<110.469 186.555>
VStem: 30 60<449 532.614> 190 50<356.609 429> 195 100<87.9077 257.973> 435 100<87.9077 406.719>
LayerCount: 2
Fore
SplineSet
615 630 m 1xf680
 615 535 l 1
 544 535 480 510 430 470 c 1
 430 470 535 430 535 360 c 2
 535 140 l 2
 535 102 523 -12 365 -12 c 0
 207 -12 195 102 195 140 c 2
 195 194 l 2xf580
 195 291 320 347 320 444 c 0
 320 500 307 526 283 556 c 1
 243 484 l 1
 201 484 l 1
 194 507 187 551 147 551 c 0
 109 551 90 492 90 449 c 1
 102 466 122 483 150 483 c 0
 200 483 240 443 240 393 c 0
 240 343 200 298 150 298 c 0
 79 298 30 357 30 448 c 1
 31 497 61 606 149 606 c 0
 209 606 224 543 224 543 c 1
 261 606 l 1
 289 606 l 1xee80
 325 595 358 566 377 525 c 1
 436 591 528 630 615 630 c 1xf680
150 433 m 0
 128 433 110 415 110 393 c 0
 110 371 128 353 150 353 c 0
 172 353 190 371 190 393 c 0xe680
 190 415 172 433 150 433 c 0
394 422 m 1
 384 307 295 258 295 194 c 2
 295 140 l 2xe580
 295 112 310 73 365 73 c 0
 420 73 435 112 435 140 c 2
 435 360 l 2
 435 380 416 403 394 422 c 1
EndSplineSet
Validated: 1
EndChar

StartChar: uni0E28.alt
Encoding: 297 3683 99
Width: 630
VWidth: 0
Flags: W
HStem: 0 21G<100 215 455 550> 227 55<269.37 349.708> 372 55<269.755 349.708> 527 85<226.287 396.533 541.13 630>
VStem: 70 90<260.593 460.829> 107 108<0 245.284> 355 55<287.292 366.708> 455 95<0 466.746>
LayerCount: 2
Fore
SplineSet
630 620 m 1xfb
 630 520 l 1
 592 520 554 508 523 493 c 1
 540 459 550 419 550 372 c 2
 550 0 l 1
 455 0 l 1
 455 372 l 2
 455 476 388 527 310 527 c 0
 232 527 160 471 160 372 c 0xfb
 160 330 166 293 173 259 c 1
 183 303 196 343 220 377 c 0
 240 407 272 427 310 427 c 0
 365 427 410 382 410 327 c 0
 410 272 365 227 310 227 c 0
 284 227 261 237 243 253 c 1
 219 171 215 79 215 0 c 1
 100 0 l 1
 105 38 107 69 107 96 c 0xf7
 107 213 70 247 70 372 c 0
 70 505 177 612 310 612 c 0
 370 612 424 595 466 562 c 1
 516 596 575 620 630 620 c 1xfb
310 372 m 0
 285 372 265 352 265 327 c 0
 265 302 285 282 310 282 c 0
 335 282 355 302 355 327 c 0
 355 352 335 372 310 372 c 0
EndSplineSet
Validated: 1
EndChar

StartChar: uni0E2A.alt
Encoding: 268 3684 100
Width: 610
VWidth: 0
Flags: W
HStem: -6 65<227.973 301.835> 139 65<227.517 301.835> 330 75<208.497 363.2> 527 85<213.944 383.829> 535 95<494.69 610>
VStem: 60 100<131.222 280.635> 70 105<434 488.27> 305 65<62.1654 135.835> 430 100<32.19 261.775 320 481.082>
LayerCount: 2
Fore
SplineSet
610 630 m 1xeb80
 610 535 l 1
 568 535 529 533 493 524 c 1
 518 489 530 446 530 402 c 2
 530 60 l 2
 530 -4 430 -6 430 -6 c 1
 430 180 l 2
 430 230 386 330 285 330 c 0
 214 330 160 277 160 190 c 0xed80
 160 169 163 149 175 130 c 1xeb80
 179 162 213 204 265 204 c 0
 323 204 370 157 370 99 c 0
 370 41 323 -6 265 -6 c 0
 151 -5 60 68 60 190 c 0xed80
 60 314 147 405 275 405 c 0
 365 405 417 347 430 320 c 1
 430 402 l 2
 430 470 385 527 300 527 c 0
 215 527 175 475 175 434 c 1
 70 434 l 1
 70 515 147 612 300 612 c 0xf380
 347 612 386 603 418 587 c 1
 474 619 543 630 610 630 c 1xeb80
265 139 m 0
 243 139 225 121 225 99 c 0
 225 77 243 59 265 59 c 0
 287 59 305 77 305 99 c 0
 305 121 287 139 265 139 c 0
EndSplineSet
Validated: 1
EndChar

StartChar: uni0E2C.alt
Encoding: 269 3685 101
Width: 670
VWidth: 0
Flags: W
HStem: 386 65<99.5633 149.111> 520 100<591.173 670> 541 65<99.4878 180.512> 580 50<464 536.863>
VStem: 30 65<455.488 536.512> 150 100<151 386> 185 65<455.412 536.437> 410 50<503.399 576> 490 100<150 457.922>
LayerCount: 2
Fore
SplineSet
500 630 m 0x9d80
 528 630 553 617 570 597 c 1
 603 611 637 620 670 620 c 1
 670 520 l 1
 642 520 615 514 590 505 c 1
 590 100 l 2
 590 15 542 -6 480 -6 c 1
 370 330 l 1
 260 -6 l 1
 198 -6 150 17 150 100 c 2
 150 386 l 1xcd80
 140 386 l 2
 79 386 30 435 30 496 c 0
 30 557 79 606 140 606 c 0
 201 606 250 557 250 496 c 2xab80
 250 151 l 1
 345 450 l 1
 395 450 l 1
 490 150 l 1
 490 451 l 1
 445 456 410 494 410 540 c 0
 410 590 450 630 500 630 c 0x9d80
500 580 m 0x9980
 478 580 460 562 460 540 c 0
 460 518 478 500 500 500 c 0
 522 500 540 518 540 540 c 0
 540 562 522 580 500 580 c 0x9980
140 541 m 0xab80
 115 541 95 521 95 496 c 0
 95 471 115 451 140 451 c 0
 165 451 185 471 185 496 c 0
 185 521 165 541 140 541 c 0xab80
EndSplineSet
Validated: 1
EndChar

StartChar: uni0E2E.alt
Encoding: 270 3686 102
Width: 610
VWidth: 0
Flags: W
HStem: -12 85<214.291 405.786> 200 65<190.889 240.437> 355 65<159.488 240.512> 527 85<178.791 382.185 520.548 610>
VStem: 90 100<98.5881 200> 90 65<269.412 350.437> 245 65<269.488 350.512> 430 100<98.5881 476.354>
LayerCount: 2
Fore
SplineSet
610 620 m 1xfb
 610 520 l 1
 573 520 536 509 506 494 c 1
 521 461 530 421 530 372 c 2
 530 188 l 2
 530 26 443 -12 310 -12 c 0
 177 -12 91 26 90 188 c 1xfb
 90 310 l 2xf7
 90 371 139 420 200 420 c 0
 261 420 310 371 310 310 c 0
 310 249 261 200 200 200 c 2
 190 200 l 1
 190 160 l 1
 191 82 255 73 310 73 c 0
 365 73 429 82 430 160 c 1
 430 372 l 2
 430 486 373 527 295 527 c 0
 210 527 151 492 105 450 c 1
 70 525 l 1
 103 555 180 612 295 612 c 0
 355 612 409 597 450 565 c 1
 499 597 556 620 610 620 c 1xfb
200 355 m 0
 175 355 155 335 155 310 c 0xf7
 155 285 175 265 200 265 c 0
 225 265 245 285 245 310 c 0
 245 335 225 355 200 355 c 0
EndSplineSet
Validated: 1
EndChar

StartChar: endash
Encoding: 8211 8211 215
Width: 640
VWidth: 0
Flags: W
HStem: 280 90<60 560>
LayerCount: 2
Fore
SplineSet
60 370 m 5
 560 370 l 5
 560 280 l 5
 60 280 l 5
 60 370 l 5
EndSplineSet
EndChar

StartChar: guilsinglleft
Encoding: 8249 8249 215
Width: 360
Flags: W
VStem: 60 260
LayerCount: 2
Fore
SplineSet
160 320 m 1
 320 90 l 1
 240 90 l 1
 60 315 l 1
 60 325 l 1
 240 550 l 1
 320 550 l 1
 160 320 l 1
EndSplineSet
EndChar

StartChar: Euro
Encoding: 8364 8364 201
Width: 637
Flags: W
HStem: -12 90<336.629 563.031> 300 73<46 132 251 536> 470 73<46 132 247 536> 775 90<335.629 563>
VStem: 132 115<178.791 297 373 470 543 676.923>
LayerCount: 2
Fore
SplineSet
536 300 m 5
 251 300 l 5
 250 297 l 5
 248.667 231 264.667 178 298 138 c 4
 331.333 98 376.667 78 434 78 c 4
 456 78 478 79.6667 500 83 c 4
 522 86.3333 543.333 91.3333 564 98 c 5
 575 6 l 5
 553 0 530 -4.5 506 -7.5 c 4
 482 -10.5 458 -12 434 -12 c 4
 344 -12 271.167 16.1667 215.5 72.5 c 4
 159.833 128.833 132 204.667 132 300 c 5
 46 300 l 5
 46 373 l 5
 132 373 l 5
 132 470 l 5
 46 470 l 5
 46 543 l 5
 132 543 l 5
 132 552 l 6
 132 647.333 159.667 723.333 215 780 c 4
 270.333 836.667 343 865 433 865 c 4
 456.333 865 479.333 863.5 502 860.5 c 4
 524.667 857.5 549 853 575 847 c 5
 564 754 l 5
 542.667 760 521 765 499 769 c 4
 477 773 455 775 433 775 c 4
 375.667 775 330.333 754.833 297 714.5 c 4
 263.667 674.166 247 620.333 247 553 c 6
 247 543 l 5
 536 543 l 5
 536 470 l 5
 247 470 l 5
 247 373 l 5
 536 373 l 5
 536 300 l 5
EndSplineSet
EndChar

StartChar: trademark
Encoding: 8482 8482 219
Width: 752
Flags: W
HStem: 805 48<60 145 200 285>
VStem: 145 55<538 805> 331 55<538 748> 602 54<538 739>
LayerCount: 2
Fore
SplineSet
602 739 m 1
 598 741 l 1
 510 538 l 1
 480 538 l 1
 389 749 l 1
 386 748 l 1
 386 538 l 1
 331 538 l 1
 331 853 l 1
 399 853 l 1
 493 625 l 1
 497 625 l 1
 592 853 l 1
 656 853 l 1
 656 538 l 1
 602 538 l 1
 602 739 l 1
285 805 m 1
 200 805 l 1
 200 538 l 1
 145 538 l 1
 145 805 l 1
 60 805 l 1
 60 853 l 1
 285 853 l 1
 285 805 l 1
EndSplineSet
EndChar

StartChar: uni0E10.descless
Encoding: 261 63232 18
Width: 580
VWidth: 0
Flags: W
HStem: 140 60<147.932 221.908> 280 60<147.932 221.359> 515 85<460.526 520> 537 75<194.611 367.823>
VStem: 60 100<456.486 500.022> 85 60<202.932 277.068> 340 120<34.9796 143.418> 360 100<200 351.443>
LayerCount: 2
Fore
SplineSet
280 612 m 0xd9
 356 612 401 575 430 544 c 1
 450 571 489 600 520 600 c 1
 520 515 l 1xe9
 489 515 449 486 430 459 c 1
 374 515 334 537 280 537 c 0
 206 537 160 491 160 459 c 1
 335 441 460 427 460 325 c 2xd9
 460 60 l 2
 460 -2 340 -6 340 -6 c 1
 340 40 l 2
 340 90 317 157 276 199 c 1
 261 164 226 140 185 140 c 0
 130 140 85 185 85 240 c 0xd6
 85 295 130 340 185 340 c 0
 243 340 299 301 360 200 c 1
 360 320 l 2
 360 385 145 387 60 395 c 1
 60 529 160 612 280 612 c 0xd9
185 280 m 0
 163 280 145 262 145 240 c 0xc4
 145 218 163 200 185 200 c 0
 207 200 225 218 225 240 c 0
 225 262 207 280 185 280 c 0
EndSplineSet
Validated: 1
EndChar

StartChar: uni0E4B.low
Encoding: 63240 63240 16
Width: 0
VWidth: 0
Flags: W
HStem: 780 60<-280 -195 -105 -20>
VStem: -195 90<690 780 840 930>
LayerCount: 2
Fore
SplineSet
-195 930 m 1
 -105 930 l 1
 -105 840 l 1
 -20 840 l 1
 -20 780 l 1
 -105 780 l 1
 -105 690 l 1
 -195 690 l 1
 -195 780 l 1
 -280 780 l 1
 -280 840 l 1
 -195 840 l 1
 -195 930 l 1
EndSplineSet
Validated: 1
Position2: "Tone Low-Left" dx=-210 dy=0 dh=0 dv=0
Substitution2: "Tone Low-High" uni0E4B
EndChar

StartChar: uni0E4C.low
Encoding: 63241 63241 17
Width: 0
VWidth: 0
Flags: W
HStem: 690 45<-262.187 -198.203>
VStem: -315 50<736.715 803.332> -195 45<738.203 802.278> -160 90<910.665 970>
LayerCount: 2
Fore
SplineSet
-160 970 m 1xd0
 -70 970 l 1xd0
 -80 914 -108 862 -174 827 c 1
 -159 812 -150 792 -150 770 c 0xe0
 -150 726 -186 690 -230 690 c 0
 -274 690 -315 721 -315 770 c 0
 -315 886 -168 858 -160 970 c 1xd0
-230 805 m 0
 -249 805 -265 789 -265 770 c 0
 -265 751 -249 735 -230 735 c 0
 -211 735 -195 751 -195 770 c 0xe0
 -195 789 -211 805 -230 805 c 0
EndSplineSet
Validated: 1
Position2: "Tone Low-Left" dx=-120 dy=0 dh=0 dv=0
Substitution2: "Tone Low-High" uni0E4C
EndChar

StartChar: uni0E0F.shorten
Encoding: 63290 63290 78
Width: 640
VWidth: 0
Flags: W
HStem: -240 55<61.3707 148.66> -85 55<61.3707 149.121> -6 70<113.153 187.452> 144 70<114.624 159.966> 527 85<239.743 403.379>
VStem: 0 55<-178.629 -91.3707> 40 70<67.5305 140.469> 160 100<214 371.255> 190 70<68.6236 141.563> 209 65<-75.25 -20> 460 100<-160 469.733>
LayerCount: 2
Back
SplineSet
320 612 m 0xfd20
 453 612 560 529 560 372 c 2
 560 -260 l 2
 560 -333 435 -340 435 -340 c 5
 385 -250 l 1
 340 -334 l 1
 290 -334 l 1
 271 -305 l 1
 255 -326 229 -340 200 -340 c 0
 150 -340 110 -300 110 -250 c 0
 110 -200 150 -160 200 -160 c 0
 218 -160 235 -165 249 -174 c 1
 255 -156 260 -137 260 -120 c 1
 330 -120 l 1xfa60
 330 -166 311 -206 295 -232 c 1
 315 -265 l 1
 364 -170 l 1
 410 -170 l 1
 460 -260 l 1
 460 372 l 2
 460 476 398 527 320 527 c 0
 262 527 209 493 190 440 c 1xf8a0
 310 415 l 1
 310 415 261 352 260 290 c 1xf920
 260 104 l 2xf8a0
 260 43 216 -6 155 -6 c 0
 94 -6 40 43 40 104 c 0
 40 165 89 214 150 214 c 2
 160 214 l 1
 160 270 l 2
 160 354 200 390 200 390 c 1
 80 410 l 1
 108 500 189 612 320 612 c 0xfd20
150 144 m 0
 128 144 110 126 110 104 c 0
 110 82 128 64 150 64 c 0
 172 64 190 82 190 104 c 0xfca0
 190 126 172 144 150 144 c 0
200 -215 m 0
 181 -215 165 -231 165 -250 c 0xfa20
 165 -269 181 -285 200 -285 c 0
 219 -285 235 -269 235 -250 c 0
 235 -231 219 -215 200 -215 c 0
EndSplineSet
Fore
SplineSet
320 612 m 0xfb20
 453 612 560 529 560 372 c 2
 560 -160 l 2
 560 -233 440 -240 440 -240 c 1
 365 -115 l 1
 295 -234 l 1
 240 -234 l 1
 199 -182 l 1
 182 -216 146 -240 105 -240 c 0
 47 -240 0 -193 0 -135 c 0
 0 -77 47 -30 105 -30 c 0
 141 -30 173 -48 192 -76 c 1
 204 -60 209 -44 209 -20 c 1
 274 -20 l 1xfc60
 274 -68 257 -99 231 -124 c 1
 265 -170 l 1
 349 -30 l 1
 380 -30 l 1
 460 -160 l 1
 460 372 l 2
 460 476 398 527 320 527 c 0
 262 527 209 493 190 440 c 1xf8a0
 310 415 l 1
 310 415 261 352 260 290 c 1xf920
 260 104 l 2xf8a0
 260 43 216 -6 155 -6 c 0
 94 -6 40 43 40 104 c 0
 40 165 89 214 150 214 c 2
 160 214 l 1
 160 270 l 2
 160 354 200 390 200 390 c 1
 80 410 l 1
 108 500 189 612 320 612 c 0xfb20
150 144 m 0
 128 144 110 126 110 104 c 0
 110 82 128 64 150 64 c 0
 172 64 190 82 190 104 c 0xfaa0
 190 126 172 144 150 144 c 0
105 -85 m 0
 77 -85 55 -107 55 -135 c 0xfc20
 55 -163 77 -185 105 -185 c 0
 133 -185 155 -163 155 -135 c 0
 155 -107 133 -85 105 -85 c 0
EndSplineSet
Validated: 1
EndChar

StartChar: uni0E0E.shorten
Encoding: 285 63291 79
Width: 640
VWidth: 0
Flags: W
HStem: -210 55<186.5 253.092> -85 55<186.5 253.729> -6 70<113.153 187.452> 144 70<114.624 159.966> 527 85<239.743 403.379>
VStem: 40 70<67.5305 140.469> 130 55<-153.5 -86.5001> 160 100<214 371.255> 190 70<68.6236 141.563> 280 70<-45.1541 10> 460 100<-145.929 469.733>
LayerCount: 2
Back
SplineSet
320 612 m 0xfd60
 453 612 560 529 560 372 c 2
 560 -260 l 6
 560 -333 445 -340 445 -340 c 5
 445 -340 363 -298 310 -275 c 5
 297 -297 272 -340 220 -340 c 4
 170 -340 130 -300 130 -250 c 4
 130 -200 170 -160 220 -160 c 4
 238 -160 255 -167 269 -176 c 5
 275 -158 280 -137 280 -120 c 5
 350 -120 l 5
 350 -157 337 -186 324 -210 c 5
 369 -232 460 -276 460 -276 c 5
 460 372 l 2
 460 476 398 527 320 527 c 0
 262 527 209 493 190 440 c 1xfee0
 310 415 l 1
 310 415 261 352 260 290 c 1xfd60
 260 104 l 2xfce0
 260 43 216 -6 155 -6 c 0
 94 -6 40 43 40 104 c 0
 40 165 89 214 150 214 c 2
 160 214 l 1
 160 270 l 2
 160 354 200 390 200 390 c 1
 80 410 l 1
 108 500 189 612 320 612 c 0xfd60
150 144 m 0
 128 144 110 126 110 104 c 0
 110 82 128 64 150 64 c 0
 172 64 190 82 190 104 c 0
 190 126 172 144 150 144 c 0
220 -215 m 4
 201 -215 185 -231 185 -250 c 4
 185 -269 201 -285 220 -285 c 4
 239 -285 255 -269 255 -250 c 4
 255 -231 239 -215 220 -215 c 4
EndSplineSet
Fore
SplineSet
320 612 m 0xfd60
 453 612 560 529 560 372 c 2
 560 -130 l 2
 560 -203 445 -210 445 -210 c 1
 445 -210 363 -168 310 -145 c 1
 297 -167 272 -210 220 -210 c 0
 170 -210 130 -170 130 -120 c 0
 130 -70 170 -30 220 -30 c 0
 238 -30 255 -37 269 -46 c 1
 275 -28 280 -7 280 10 c 1
 350 10 l 1
 350 -27 337 -56 324 -80 c 1
 369 -102 460 -146 460 -146 c 1
 460 372 l 2
 460 476 398 527 320 527 c 0
 262 527 209 493 190 440 c 1xfee0
 310 415 l 1
 310 415 261 352 260 290 c 1xfd60
 260 104 l 2xfce0
 260 43 216 -6 155 -6 c 0
 94 -6 40 43 40 104 c 0
 40 165 89 214 150 214 c 2
 160 214 l 1
 160 270 l 2
 160 354 200 390 200 390 c 1
 80 410 l 1
 108 500 189 612 320 612 c 0xfd60
150 144 m 0
 128 144 110 126 110 104 c 0
 110 82 128 64 150 64 c 0
 172 64 190 82 190 104 c 0
 190 126 172 144 150 144 c 0
220 -85 m 0
 201 -85 185 -101 185 -120 c 0
 185 -139 201 -155 220 -155 c 0
 239 -155 255 -139 255 -120 c 0
 255 -101 239 -85 220 -85 c 0
EndSplineSet
Validated: 1
EndChar
